<?xml version="1.0" encoding="UTF-8"?>
<svg version="1.1" xmlns="http://www.w3.org/2000/svg" width="1024" height="1024">
<path d="M0 0 C337.92 0 675.84 0 1024 0 C1024 337.92 1024 675.84 1024 1024 C686.08 1024 348.16 1024 0 1024 C0 686.08 0 348.16 0 0 Z " fill="#272526" transform="translate(0,0)"/>
<path d="M0 0 C21.13209008 17.77797493 34.8133742 41.60436377 40.77197266 68.49072266 C44.73197266 68.98572266 44.73197266 68.98572266 48.77197266 69.49072266 C49.09681641 68.44658203 49.09681641 68.44658203 49.42822266 67.38134766 C51.1195286 63.74307325 53.53680383 61.11311871 56.27197266 58.24072266 C56.81096191 57.6693457 57.34995117 57.09796875 57.90527344 56.50927734 C77.9503324 35.47703912 104.96070119 20.00264379 134.59228516 19.18994141 C137.02710595 19.17042977 139.46209953 19.16700573 141.89697266 19.17822266 C143.17725342 19.1838623 144.45753418 19.18950195 145.77661133 19.1953125 C166.99700374 19.46652536 190.01137892 24.08036434 205.77197266 39.49072266 C213.189024 48.71408177 216.45869393 55.95385449 216.18994141 67.88134766 C215.12358475 77.08988551 211.02756527 85.25908248 203.80712891 91.07275391 C195.75384874 96.88979811 186.73790486 99.86533399 176.77197266 98.49072266 C169.87322355 96.62739492 163.92859396 92.95541125 157.92431641 89.17431641 C150.92829177 85.43790176 144.36493297 83.92732943 136.45947266 83.99072266 C135.21725952 83.99821533 135.21725952 83.99821533 133.94995117 84.00585938 C126.74305956 84.20946372 121.06663138 85.92405658 114.77197266 89.49072266 C113.79873047 90.04115234 112.82548828 90.59158203 111.82275391 91.15869141 C109.43976013 92.55791091 107.09520928 93.99501058 104.77197266 95.49072266 C107.52271943 98.2939646 110.31775412 101.01392152 113.22509766 103.65478516 C120.73684893 110.48427646 127.69809062 117.31029193 133.77197266 125.49072266 C134.47193359 126.40208984 135.17189453 127.31345703 135.89306641 128.25244141 C158.59727976 159.21273235 168.62433683 197.11848488 164.02197266 235.24072266 C163.63626866 237.66252391 163.21906962 240.07950031 162.77197266 242.49072266 C162.53865234 243.78623047 162.30533203 245.08173828 162.06494141 246.41650391 C157.15699429 271.17489576 145.00965971 294.15133708 127.77197266 312.49072266 C127.22637695 313.07337891 126.68078125 313.65603516 126.11865234 314.25634766 C102.65779018 339.05518107 71.13728028 356.2749746 36.77197266 359.49072266 C34.77213624 359.51630196 32.77170792 359.52326273 30.77197266 359.49072266 C30.81837891 360.54904297 30.86478516 361.60736328 30.91259766 362.69775391 C31.48946565 382.47766998 28.41524424 402.5340991 22.77197266 421.49072266 C22.57410156 422.17295898 22.37623047 422.85519531 22.17236328 423.55810547 C15.29079635 446.96602005 3.93036209 469.14184733 -12.22802734 487.49072266 C-12.98083984 488.35310547 -13.73365234 489.21548828 -14.50927734 490.10400391 C-16.71807997 492.59647125 -18.96320864 495.04915767 -21.22802734 497.49072266 C-21.80423828 498.13267578 -22.38044922 498.77462891 -22.97412109 499.43603516 C-33.99644513 511.17026876 -47.89251593 520.33723824 -62.22802734 527.49072266 C-63.17597168 527.96566162 -63.17597168 527.96566162 -64.14306641 528.45019531 C-70.48800993 531.56412839 -76.71466044 534.2130403 -83.62255859 535.79931641 C-93.69913239 537.77684232 -93.69913239 537.77684232 -101.95458984 543.33447266 C-103.89645627 546.59257449 -103.89645627 546.59257449 -105.48974609 550.03369141 C-110.07264653 559.14799902 -118.39019295 566.5989324 -127.22802734 571.49072266 C-128.24509766 572.07080078 -128.24509766 572.07080078 -129.28271484 572.66259766 C-139.86374359 578.34423955 -151.24156197 579.15473217 -162.79052734 575.92822266 C-191.10742202 566.13798776 -209.7564585 539.93033704 -223.22802734 514.49072266 C-224.16884399 512.45058221 -225.10647245 510.40896774 -226.04052734 508.36572266 C-228.56634165 503.19121659 -231.88415308 499.3561583 -235.84179688 495.26708984 C-241.85565911 488.9633785 -246.53163427 481.80034155 -251.22802734 474.49072266 C-251.92669922 473.42853516 -252.62537109 472.36634766 -253.34521484 471.27197266 C-274.62374132 436.74777708 -281.80091582 389.23825056 -272.61865234 349.65478516 C-268.51098815 333.84334343 -263.19255908 318.76918902 -255.22802734 304.49072266 C-254.61830078 303.39373047 -254.00857422 302.29673828 -253.38037109 301.16650391 C-249.91639315 295.09883266 -246.17575343 289.25304344 -242.22802734 283.49072266 C-243.23422119 283.52008911 -243.23422119 283.52008911 -244.26074219 283.55004883 C-250.99055441 283.66082522 -257.25153541 283.07469185 -263.85302734 281.80322266 C-264.8052417 281.62388184 -265.75745605 281.44454102 -266.73852539 281.25976562 C-275.43148649 279.56063061 -283.81906899 277.24991212 -292.22802734 274.49072266 C-292.90607422 274.27722168 -293.58412109 274.0637207 -294.28271484 273.84375 C-320.3805633 265.60200022 -344.28791456 251.20311285 -364.22802734 232.49072266 C-364.80069336 231.96043457 -365.37335938 231.43014648 -365.96337891 230.88378906 C-388.02178105 210.28987037 -406.06484692 183.09853507 -413.22802734 153.49072266 C-413.50388672 152.46462891 -413.77974609 151.43853516 -414.06396484 150.38134766 C-418.5706474 132.10654318 -416.78034755 115.58144164 -407.28320312 99.16894531 C-396.18343891 81.51513244 -374.86840987 71.33840182 -355.22802734 66.49072266 C-354.52548828 66.30880371 -353.82294922 66.12688477 -353.09912109 65.93945312 C-321.49574162 58.03192396 -286.45564503 61.72324704 -255.22802734 69.49072266 C-255.21384766 68.78689453 -255.19966797 68.08306641 -255.18505859 67.35791016 C-254.44367818 52.00933195 -248.43754341 38.79870368 -237.62255859 27.85400391 C-231.4393672 22.45597968 -224.99224006 19.07533357 -217.22802734 16.49072266 C-216.13876953 16.12462891 -215.04951172 15.75853516 -213.92724609 15.38134766 C-209.61939459 14.34418805 -205.70260705 14.1469955 -201.29052734 14.17822266 C-200.45932373 14.18313721 -199.62812012 14.18805176 -198.77172852 14.19311523 C-154.5638938 15.01544928 -111.48974556 43.40075086 -80.22802734 72.49072266 C-78.8157227 73.72489879 -77.39924568 74.95432169 -75.97802734 76.17822266 C-72.57060915 79.14239946 -69.38148441 82.25842916 -66.22802734 85.49072266 C-62.54613912 84.09389736 -59.03843946 82.44879858 -55.50439453 80.72314453 C-33.31208975 69.94431289 -33.31208975 69.94431289 -24.22802734 70.49072266 C-28.84473285 61.44967437 -35.34505329 52.94496601 -45.22802734 49.49072266 C-47.97618171 49.13612209 -50.69632295 48.98904524 -53.46240234 48.83837891 C-62.06718434 47.75670433 -69.0186506 42.1471485 -74.22802734 35.49072266 C-77.35169911 30.46332059 -79.84646683 25.46850403 -80.22802734 19.49072266 C-80.27830078 18.81525391 -80.32857422 18.13978516 -80.38037109 17.44384766 C-80.79913437 7.72853964 -77.24446437 -0.00642646 -71.22802734 -7.50927734 C-51.58375619 -28.70813111 -19.03847916 -15.29355339 0 0 Z " fill="#292728" transform="translate(612.22802734375,232.50927734375)"/>
<path d="M0 0 C21.13209008 17.77797493 34.8133742 41.60436377 40.77197266 68.49072266 C44.73197266 68.98572266 44.73197266 68.98572266 48.77197266 69.49072266 C49.09681641 68.44658203 49.09681641 68.44658203 49.42822266 67.38134766 C51.1195286 63.74307325 53.53680383 61.11311871 56.27197266 58.24072266 C56.81096191 57.6693457 57.34995117 57.09796875 57.90527344 56.50927734 C77.9503324 35.47703912 104.96070119 20.00264379 134.59228516 19.18994141 C137.02710595 19.17042977 139.46209953 19.16700573 141.89697266 19.17822266 C143.17725342 19.1838623 144.45753418 19.18950195 145.77661133 19.1953125 C166.99700374 19.46652536 190.01137892 24.08036434 205.77197266 39.49072266 C213.189024 48.71408177 216.45869393 55.95385449 216.18994141 67.88134766 C215.12358475 77.08988551 211.02756527 85.25908248 203.80712891 91.07275391 C195.75384874 96.88979811 186.73790486 99.86533399 176.77197266 98.49072266 C169.87322355 96.62739492 163.92859396 92.95541125 157.92431641 89.17431641 C150.92829177 85.43790176 144.36493297 83.92732943 136.45947266 83.99072266 C135.21725952 83.99821533 135.21725952 83.99821533 133.94995117 84.00585938 C126.74305956 84.20946372 121.06663138 85.92405658 114.77197266 89.49072266 C113.79873047 90.04115234 112.82548828 90.59158203 111.82275391 91.15869141 C109.43976013 92.55791091 107.09520928 93.99501058 104.77197266 95.49072266 C107.52271943 98.2939646 110.31775412 101.01392152 113.22509766 103.65478516 C120.73684893 110.48427646 127.69809062 117.31029193 133.77197266 125.49072266 C134.47193359 126.40208984 135.17189453 127.31345703 135.89306641 128.25244141 C158.59727976 159.21273235 168.62433683 197.11848488 164.02197266 235.24072266 C163.63626866 237.66252391 163.21906962 240.07950031 162.77197266 242.49072266 C162.53865234 243.78623047 162.30533203 245.08173828 162.06494141 246.41650391 C157.15699429 271.17489576 145.00965971 294.15133708 127.77197266 312.49072266 C127.22637695 313.07337891 126.68078125 313.65603516 126.11865234 314.25634766 C102.65779018 339.05518107 71.13728028 356.2749746 36.77197266 359.49072266 C34.77213624 359.51630196 32.77170792 359.52326273 30.77197266 359.49072266 C30.81837891 360.54904297 30.86478516 361.60736328 30.91259766 362.69775391 C31.48946565 382.47766998 28.41524424 402.5340991 22.77197266 421.49072266 C22.57410156 422.17295898 22.37623047 422.85519531 22.17236328 423.55810547 C15.29079635 446.96602005 3.93036209 469.14184733 -12.22802734 487.49072266 C-12.98083984 488.35310547 -13.73365234 489.21548828 -14.50927734 490.10400391 C-16.71807997 492.59647125 -18.96320864 495.04915767 -21.22802734 497.49072266 C-21.80423828 498.13267578 -22.38044922 498.77462891 -22.97412109 499.43603516 C-33.99644513 511.17026876 -47.89251593 520.33723824 -62.22802734 527.49072266 C-63.17597168 527.96566162 -63.17597168 527.96566162 -64.14306641 528.45019531 C-70.48800993 531.56412839 -76.71466044 534.2130403 -83.62255859 535.79931641 C-93.69913239 537.77684232 -93.69913239 537.77684232 -101.95458984 543.33447266 C-103.89645627 546.59257449 -103.89645627 546.59257449 -105.48974609 550.03369141 C-110.07264653 559.14799902 -118.39019295 566.5989324 -127.22802734 571.49072266 C-128.24509766 572.07080078 -128.24509766 572.07080078 -129.28271484 572.66259766 C-139.86374359 578.34423955 -151.24156197 579.15473217 -162.79052734 575.92822266 C-191.10742202 566.13798776 -209.7564585 539.93033704 -223.22802734 514.49072266 C-224.16884399 512.45058221 -225.10647245 510.40896774 -226.04052734 508.36572266 C-228.56634165 503.19121659 -231.88415308 499.3561583 -235.84179688 495.26708984 C-241.85565911 488.9633785 -246.53163427 481.80034155 -251.22802734 474.49072266 C-251.92669922 473.42853516 -252.62537109 472.36634766 -253.34521484 471.27197266 C-274.62374132 436.74777708 -281.80091582 389.23825056 -272.61865234 349.65478516 C-268.51098815 333.84334343 -263.19255908 318.76918902 -255.22802734 304.49072266 C-254.61830078 303.39373047 -254.00857422 302.29673828 -253.38037109 301.16650391 C-249.91639315 295.09883266 -246.17575343 289.25304344 -242.22802734 283.49072266 C-243.23422119 283.52008911 -243.23422119 283.52008911 -244.26074219 283.55004883 C-250.99055441 283.66082522 -257.25153541 283.07469185 -263.85302734 281.80322266 C-264.8052417 281.62388184 -265.75745605 281.44454102 -266.73852539 281.25976562 C-275.43148649 279.56063061 -283.81906899 277.24991212 -292.22802734 274.49072266 C-292.90607422 274.27722168 -293.58412109 274.0637207 -294.28271484 273.84375 C-320.3805633 265.60200022 -344.28791456 251.20311285 -364.22802734 232.49072266 C-364.80069336 231.96043457 -365.37335938 231.43014648 -365.96337891 230.88378906 C-388.02178105 210.28987037 -406.06484692 183.09853507 -413.22802734 153.49072266 C-413.50388672 152.46462891 -413.77974609 151.43853516 -414.06396484 150.38134766 C-418.5706474 132.10654318 -416.78034755 115.58144164 -407.28320312 99.16894531 C-396.18343891 81.51513244 -374.86840987 71.33840182 -355.22802734 66.49072266 C-354.52548828 66.30880371 -353.82294922 66.12688477 -353.09912109 65.93945312 C-321.49574162 58.03192396 -286.45564503 61.72324704 -255.22802734 69.49072266 C-255.21384766 68.78689453 -255.19966797 68.08306641 -255.18505859 67.35791016 C-254.44367818 52.00933195 -248.43754341 38.79870368 -237.62255859 27.85400391 C-231.4393672 22.45597968 -224.99224006 19.07533357 -217.22802734 16.49072266 C-216.13876953 16.12462891 -215.04951172 15.75853516 -213.92724609 15.38134766 C-209.61939459 14.34418805 -205.70260705 14.1469955 -201.29052734 14.17822266 C-200.45932373 14.18313721 -199.62812012 14.18805176 -198.77172852 14.19311523 C-154.5638938 15.01544928 -111.48974556 43.40075086 -80.22802734 72.49072266 C-78.8157227 73.72489879 -77.39924568 74.95432169 -75.97802734 76.17822266 C-72.57060915 79.14239946 -69.38148441 82.25842916 -66.22802734 85.49072266 C-62.54613912 84.09389736 -59.03843946 82.44879858 -55.50439453 80.72314453 C-33.31208975 69.94431289 -33.31208975 69.94431289 -24.22802734 70.49072266 C-28.84473285 61.44967437 -35.34505329 52.94496601 -45.22802734 49.49072266 C-47.97618171 49.13612209 -50.69632295 48.98904524 -53.46240234 48.83837891 C-62.06718434 47.75670433 -69.0186506 42.1471485 -74.22802734 35.49072266 C-77.35169911 30.46332059 -79.84646683 25.46850403 -80.22802734 19.49072266 C-80.27830078 18.81525391 -80.32857422 18.13978516 -80.38037109 17.44384766 C-80.79913437 7.72853964 -77.24446437 -0.00642646 -71.22802734 -7.50927734 C-51.58375619 -28.70813111 -19.03847916 -15.29355339 0 0 Z M-61.29052734 9.30322266 C-62.57314944 13.66413779 -62.6020925 17.14203292 -61.22802734 21.49072266 C-58.6850452 25.60941766 -55.77432258 28.69096976 -51.22802734 30.49072266 C-49.04369025 30.72327291 -49.04369025 30.72327291 -46.72802734 30.74072266 C-34.45768162 31.82181039 -23.76319807 40.32675654 -15.78662109 49.20947266 C-7.51391366 59.62384546 -2.06380033 71.50018166 0.77197266 84.49072266 C0.10294922 84.51650391 -0.56607422 84.54228516 -1.25537109 84.56884766 C-25.43328279 85.99680486 -47.82067451 95.27864574 -67.22802734 109.49072266 C-72.63358777 104.9978812 -77.56555517 100.2000096 -82.47802734 95.17822266 C-88.76504768 88.83453818 -95.12311276 82.91941075 -102.22802734 77.49072266 C-103.51266091 76.47869038 -104.79644905 75.46558443 -106.07958984 74.45166016 C-125.8422946 58.9487529 -147.15340784 45.19070217 -171.22802734 37.49072266 C-171.85708984 37.28189453 -172.48615234 37.07306641 -173.13427734 36.85791016 C-186.53575424 32.51890739 -203.8115357 30.19801441 -217.00927734 36.17041016 C-227.09076141 42.16960314 -233.33644788 51.19680187 -236.54443359 62.40478516 C-238.57892914 72.42435176 -238.44344817 84.51854152 -236.22802734 94.49072266 C-245.22802734 91.49072266 -245.22802734 91.49072266 -247.13525391 90.80371094 C-253.35914736 88.61454968 -259.63123313 87.23902566 -266.10302734 85.99072266 C-267.2087207 85.77714111 -268.31441406 85.56355957 -269.45361328 85.34350586 C-271.68399918 84.91688085 -273.91511236 84.49403869 -276.14697266 84.07519531 C-278.79134512 83.57356079 -281.42735933 83.04289503 -284.06396484 82.50244141 C-313.77374556 76.73922014 -351.18356966 78.47656057 -377.22802734 95.49072266 C-386.72519428 102.08454372 -394.2712995 110.03685639 -397.22802734 121.49072266 C-398.25645885 131.99514943 -397.65361906 142.49433402 -394.22802734 152.49072266 C-394.00228027 153.18101562 -393.7765332 153.87130859 -393.54394531 154.58251953 C-386.07100415 177.26634092 -373.74693791 196.26637819 -357.22802734 213.49072266 C-356.07947266 214.71662109 -356.07947266 214.71662109 -354.90771484 215.96728516 C-339.3371658 232.13862709 -319.77990853 243.7604599 -299.22802734 252.49072266 C-298.2508374 252.90596191 -298.2508374 252.90596191 -297.25390625 253.32958984 C-271.4289802 264.08511041 -243.71245993 267.05452113 -215.97802734 268.05322266 C-214.83978516 268.09640625 -213.70154297 268.13958984 -212.52880859 268.18408203 C-209.76196238 268.28871067 -206.99505009 268.39089156 -204.22802734 268.49072266 C-205.03884766 269.26673828 -205.84966797 270.04275391 -206.68505859 270.84228516 C-228.55023161 292.04598517 -243.7736086 317.22794769 -252.22802734 346.49072266 C-252.56833984 347.47169922 -252.90865234 348.45267578 -253.25927734 349.46337891 C-264.61495558 384.94987339 -255.7140809 426.16874716 -239.22802734 458.49072266 C-233.23708532 469.57273269 -225.63327064 480.92952464 -216.04052734 489.24072266 C-211.52715065 493.51558757 -209.6470044 498.86444694 -207.29760742 504.49560547 C-202.42596317 516.0433823 -195.34805677 525.97014551 -187.22802734 535.49072266 C-186.54224609 536.32216797 -185.85646484 537.15361328 -185.14990234 538.01025391 C-177.25499544 547.25411073 -166.70310441 557.35419195 -154.13427734 558.86181641 C-144.66049495 559.227044 -137.28177158 557.30839741 -129.97802734 551.17822266 C-128.7081792 549.96957201 -127.45696859 548.74094428 -126.22802734 547.49072266 C-125.69435547 546.96736328 -125.16068359 546.44400391 -124.61083984 545.90478516 C-118.91023457 539.8497381 -114.51065987 531.72975043 -113.22802734 523.49072266 C-112.62144287 523.44753906 -112.0148584 523.40435547 -111.38989258 523.35986328 C-89.17033581 521.49809202 -67.78426475 511.99370794 -50.22802734 498.49072266 C-49.29861328 497.78302734 -48.36919922 497.07533203 -47.41162109 496.34619141 C-18.67007675 473.65549851 1.34514597 440.30619108 8.2175293 404.32128906 C8.62570788 402.23743943 9.07965542 400.16242668 9.55883789 398.09375 C12.10553735 386.35991274 12.11848875 374.95793393 11.95947266 362.99072266 C11.94438271 360.99203494 11.93070201 358.99333607 11.91845703 356.99462891 C11.88582948 352.1597114 11.83429096 347.32534486 11.77197266 342.49072266 C12.7906543 342.5088501 13.80933594 342.52697754 14.85888672 342.5456543 C23.22362007 342.65000019 31.25725557 342.38195605 39.52197266 340.92822266 C40.53638428 340.75258789 41.5507959 340.57695313 42.59594727 340.39599609 C70.55379586 335.19798971 92.89393199 321.58550208 112.77197266 301.49072266 C113.55056641 300.70955078 114.32916016 299.92837891 115.13134766 299.12353516 C138.43036357 274.68241061 146.71860605 242.15329036 146.23403931 209.16557312 C145.4142221 174.95866105 128.63384146 145.09482436 104.77197266 121.49072266 C104.00240234 120.72373047 103.23283203 119.95673828 102.43994141 119.16650391 C90.46554728 107.49091084 90.46554728 107.49091084 75.77197266 101.49072266 C87.96986356 83.97011572 103.43529429 71.77933274 124.27197266 66.05322266 C141.9710354 63.10337887 157.71340973 67.38380749 172.88891602 76.54321289 C177.8004116 79.40608268 181.08113832 80.00043911 186.77197266 79.49072266 C190.47103244 78.21027888 192.42053335 76.85141036 195.14697266 74.05322266 C197.54246704 68.8015619 197.71973085 64.16234648 196.77197266 58.49072266 C193.67247835 50.96158669 186.81434991 47.74030445 179.77197266 44.49072266 C178.61568359 43.9203125 178.61568359 43.9203125 177.43603516 43.33837891 C156.22289584 33.74540635 129.17509031 35.76372992 107.87353516 43.64550781 C96.64958987 48.15959919 86.65733815 54.26405145 77.77197266 62.49072266 C76.51513672 63.61027344 76.51513672 63.61027344 75.23291016 64.75244141 C67.99169556 71.53407427 58.88770609 81.48833059 56.77197266 91.49072266 C55.80517578 91.22517578 54.83837891 90.95962891 53.84228516 90.68603516 C38.54135366 86.49519931 38.54135366 86.49519931 22.77197266 85.49072266 C22.82417969 84.61673828 22.82417969 84.61673828 22.87744141 83.72509766 C23.11451947 76.545019 21.79315137 70.35394255 19.77197266 63.49072266 C19.38912109 62.08886719 19.38912109 62.08886719 18.99853516 60.65869141 C14.86155933 46.78653852 7.57550167 34.10119715 -2.22802734 23.49072266 C-2.91251953 22.71470703 -3.59701172 21.93869141 -4.30224609 21.13916016 C-15.09763739 9.52563384 -30.10126648 0.82388011 -46.16552734 -0.19677734 C-53.13454638 0.16673334 -57.29867594 3.85978892 -61.29052734 9.30322266 Z " fill="#F8F8F7" transform="translate(612.22802734375,232.50927734375)"/>
<path d="M0 0 C0.67015137 0.00143005 1.34030273 0.00286011 2.03076172 0.0043335 C14.16541051 0.0679994 25.40173079 1.63945431 36.9375 5.5 C37.63214355 5.72993652 38.32678711 5.95987305 39.04248047 6.19677734 C52.1437342 10.68020469 64.42032677 17.48253338 74.9375 26.5 C75.73542969 27.17675781 76.53335938 27.85351562 77.35546875 28.55078125 C81.9772941 32.58502571 86.38716152 36.81629188 90.625 41.25 C91.47449219 42.13171875 92.32398438 43.0134375 93.19921875 43.921875 C94.9375 46.5 94.9375 46.5 94.76953125 49.203125 C93.9375 51.5 93.9375 51.5 92.9375 53.5 C91.90490901 72.76179346 93.56298271 97.3125686 106.9375 112.5 C109.83094531 115.08537493 112.1023014 115.96733353 115.9375 116.5 C117.70593285 134.1515797 110.5871403 151.45211313 101.9375 166.5 C101.34839844 167.52738281 100.75929688 168.55476562 100.15234375 169.61328125 C94.4822186 178.95155114 87.40807954 186.64356936 78.9375 193.5 C78.07640625 194.21027344 77.2153125 194.92054688 76.328125 195.65234375 C63.97926176 205.41462077 50.18096573 211.6798749 34.9375 215.5 C34.21755859 215.68618896 33.49761719 215.87237793 32.75585938 216.06420898 C25.25684802 217.79931974 17.85644417 217.83174936 10.1875 217.8125 C8.9190625 217.82861328 7.650625 217.84472656 6.34375 217.86132812 C-18.21201511 217.87385658 -41.8936721 207.84014717 -60.0625 191.5 C-61.19171875 190.58347656 -61.19171875 190.58347656 -62.34375 189.6484375 C-77.53017103 177.08220883 -87.6433634 159.15303621 -94.1875 140.8125 C-94.48301758 139.98733887 -94.77853516 139.16217773 -95.08300781 138.31201172 C-96.66706648 133.58594656 -97.54761662 129.54396894 -97.0625 124.5 C-96.73894531 123.85546875 -96.41539062 123.2109375 -96.08203125 122.546875 C-94.51621099 119.40323586 -94.72222173 116.18815628 -94.75 112.75 C-94.75563965 112.03134766 -94.7612793 111.31269531 -94.76708984 110.57226562 C-94.94036999 103.01656516 -96.35651554 98.43874709 -101.3125 92.6875 C-103.76510194 89.517512 -104.50470925 87.51837461 -104.3125 83.5 C-100.4328404 58.78004505 -83.39688759 35.52931514 -63.83007812 20.76757812 C-44.70365053 7.05149911 -23.62083617 -0.11608022 0 0 Z " fill="#FAB82A" transform="translate(622.0625,336.5)"/>
<path d="M0 0 C2.60180723 0.02900375 5.20156555 0.02053505 7.8034668 0.00756836 C76.83590071 0.09653658 142.40897335 39.27563008 191.16870117 85.46655273 C191.68352051 85.95269043 192.19833984 86.43882812 192.72875977 86.93969727 C212.06421089 105.32903464 212.06421089 105.32903464 212.66870117 115.09155273 C212.59812626 119.17313504 211.96826967 121.5110273 209.41870117 124.71655273 C201.35467333 132.47359829 190.60796308 135.57983497 179.98120117 138.15405273 C178.79429687 138.44948975 177.60739258 138.74492676 176.38452148 139.04931641 C167.3598413 141.25880284 158.38606083 143.27762257 149.16870117 144.46655273 C148.41524414 144.56806641 147.66178711 144.66958008 146.88549805 144.77416992 C102.66400543 150.43123738 55.84385091 147.70268178 15.16870117 128.46655273 C14.49758301 128.14960449 13.82646484 127.83265625 13.13500977 127.50610352 C-18.74342166 112.14425135 -45.06503159 84.09705766 -57.18676758 50.73608398 C-60.18697524 41.15058297 -63.61352345 29.72655813 -59.33129883 20.09155273 C-58.50629883 19.22530273 -57.68129883 18.35905273 -56.83129883 17.46655273 C-56.30665039 16.90709961 -55.78200195 16.34764648 -55.24145508 15.77124023 C-40.88212199 1.74584513 -19.02980372 -0.23026402 0 0 Z " fill="#C9E4EC" transform="translate(295.831298828125,333.533447265625)"/>
<path d="M0 0 C2.73627844 1.34879953 5.42064137 2.76547528 8.08984375 4.2421875 C17.1940178 9.21247247 25.86235433 13.52769201 36 16 C36.86931152 16.2283252 37.73862305 16.45665039 38.63427734 16.69189453 C45.63250562 18.50700678 52.60351711 19.91613285 59.75 21 C61.38231567 21.25100464 61.38231567 21.25100464 63.04760742 21.50708008 C73.82725708 23.09456935 84.64842084 24.11837138 95.50097656 25.04882812 C97.44375488 25.21608398 97.44375488 25.21608398 99.42578125 25.38671875 C100.57473877 25.48170654 101.72369629 25.57669434 102.9074707 25.67456055 C105.66277759 25.96451271 108.28969851 26.44366885 111 27 C113.22873144 27.0764622 115.45803181 27.13688505 117.6875 27.1875 C134.51763473 27.9681036 151.18198202 33.19290632 167.09765625 38.4296875 C175.99786473 41.3330923 185.05653592 43.72975034 194.08447266 46.19921875 C196.64685217 46.90300411 199.20469104 47.6208379 201.76171875 48.34375 C211.52203512 51.05845498 221.38344973 53.19060373 231.3125 55.1875 C233.17201294 55.56273804 233.17201294 55.56273804 235.0690918 55.94555664 C243.35199956 57.57634539 251.63252549 58.88717162 260 60 C253.24063365 70.91897642 237.61629096 73.15117068 226.02246094 75.95214844 C217.38999172 77.96827549 208.78969571 79.82660403 200 81 C198.86328857 81.1544458 198.86328857 81.1544458 197.70361328 81.31201172 C153.48579736 86.96310751 106.67100349 84.2341682 66 65 C65.32888184 64.68305176 64.65776367 64.36610352 63.96630859 64.03955078 C38.44219062 51.73976973 17.01277163 31.54767464 3 7 C2.43410156 6.09378906 1.86820313 5.18757813 1.28515625 4.25390625 C0 2 0 2 0 0 Z " fill="#9ECBD6" transform="translate(245,397)"/>
<path d="M0 0 C24.98332423 8.65515655 46.85820928 22.29715029 67.1796875 39.1015625 C67.7567041 39.57561523 68.3337207 40.04966797 68.92822266 40.53808594 C75.67116518 46.10422046 82.15081793 51.8884607 88.3671875 58.0390625 C88.90802979 58.57063965 89.44887207 59.1022168 90.00610352 59.64990234 C92.91630528 62.58380206 95.22630499 65.456591 97.1796875 69.1015625 C96.56222656 69.86597656 95.94476562 70.63039063 95.30859375 71.41796875 C84.18052129 85.4038772 75.68829152 100.43702079 69.1796875 117.1015625 C65.06670371 113.62837619 61.06426926 110.07503922 57.1171875 106.4140625 C40.11648153 90.93787636 21.03516234 77.62694101 1.1796875 66.1015625 C0.43187012 65.66714844 -0.31594727 65.23273438 -1.08642578 64.78515625 C-7.82139237 60.90099218 -14.54708608 57.06437483 -21.66015625 53.91015625 C-22.44189209 53.56170654 -23.22362793 53.21325684 -24.02905273 52.85424805 C-25.51581948 52.20361928 -27.01123822 51.57228806 -28.51586914 50.96411133 C-31.85371757 49.51530708 -33.56682897 48.60571309 -35.2265625 45.3046875 C-35.4225 44.24765625 -35.6184375 43.190625 -35.8203125 42.1015625 C-36.12001953 40.51988281 -36.12001953 40.51988281 -36.42578125 38.90625 C-36.93412131 34.00403994 -37.08268438 29.15248622 -37.1328125 24.2265625 C-37.16181641 23.28425781 -37.19082031 22.34195312 -37.22070312 21.37109375 C-37.28370201 14.36367884 -36.26065954 7.78136787 -31.30151367 2.47705078 C-23.04142339 -4.59656962 -9.93231968 -2.88010354 0 0 Z " fill="#A2C2D3" transform="translate(431.8203125,287.8984375)"/>
<path d="M0 0 C2.20915829 2.79186381 3.85181153 5.56874338 5.4375 8.75 C12.23835935 21.34418399 21.69617649 32.33065232 31.61669922 42.56542969 C32.88807103 43.88392258 34.13477819 45.22608218 35.37890625 46.5703125 C72.44251546 85.57803658 129.23371998 106.74465484 182 111 C178.47956403 131.52043597 178.47956403 131.52043597 175 135 C121.70556986 139.74539446 64.3825788 110.61406661 24.62133789 77.60131836 C10.33761808 65.52615357 -1.82061852 52.08359983 -12.9375 37.0625 C-13.41082764 36.42320557 -13.88415527 35.78391113 -14.37182617 35.12524414 C-20.12179048 27.24713452 -20.12179048 27.24713452 -19.8046875 24 C-16.21053502 15.06696084 -6.76748447 6.76748447 0 0 Z " fill="#F8B72D" transform="translate(420,517)"/>
<path d="M0 0 C3.24690077 3.02898796 5.61668523 6.23906234 8.0625 9.9375 C13.9652047 18.66811646 20.63821527 26.82122824 28.1875 34.1875 C31 37 31 37 31 39 C31.59288818 39.26337158 32.18577637 39.52674316 32.79663086 39.7980957 C35.09308561 41.05077678 36.47666896 42.32665144 38.25390625 44.23046875 C41.89236859 47.97147749 45.78029865 51.16695544 49.9375 54.3125 C51.04883301 55.15433838 51.04883301 55.15433838 52.18261719 56.01318359 C93.21338261 86.67727241 141.24524516 101.14086012 192 104 C189.24612235 109.81883723 184.70895717 113.69806706 180 118 C179.071875 118.87527344 178.14375 119.75054688 177.1875 120.65234375 C168.33573591 127.94813368 160.25793491 128.38390797 149.05908203 127.34228516 C95.06180197 121.30045063 43.25600682 95.84761015 8 54 C7.00193535 52.97334233 6.00319745 51.94733886 5.00390625 50.921875 C-2.91030851 42.24773564 -4.13846344 34.77864032 -3.77172852 23.16796875 C-3.31248596 15.26006547 -2.28587322 7.60597102 0 0 Z " fill="#F8B72C" transform="translate(378,591)"/>
<path d="M0 0 C3.14553572 1.57276786 3.43138879 4.77077553 4.5 7.9375 C16.30257407 40.83554374 41.6274404 67.05182259 72.93652344 82.06591797 C78.15478038 84.42808681 83.54575916 86.2610679 89 88 C91.00045993 88.66528529 93.00060033 89.33153504 95 90 C95.95619733 93.99795892 96.1039592 97.70803922 96.0625 101.8125 C96.05347656 102.97394531 96.04445313 104.13539063 96.03515625 105.33203125 C96.01775391 106.65267578 96.01775391 106.65267578 96 108 C49.07252358 102.24162137 5.74994232 75.94310469 -28 44 C-28.94101562 43.113125 -29.88203125 42.22625 -30.8515625 41.3125 C-35.79929708 36.51807551 -40.34021441 31.55982358 -44.5625 26.125 C-44.98031738 25.58955566 -45.39813477 25.05411133 -45.82861328 24.50244141 C-48.11728055 21.47021875 -49.77236901 18.59662702 -51 15 C-50.40058594 14.85304688 -49.80117188 14.70609375 -49.18359375 14.5546875 C-46.51925912 13.89523625 -43.85769301 13.22534457 -41.19677734 12.55224609 C-39.60944456 12.15320778 -38.02109529 11.75820551 -36.43212891 11.36572266 C-25.63153348 8.69253272 -15.00027574 5.99218249 -4.69628906 1.7409668 C-3.15009502 1.11118269 -1.57689837 0.54839362 0 0 Z " fill="#F8B72C" transform="translate(508,481)"/>
<path d="M0 0 C8.62446148 3.42004507 13.21102793 10.71978269 16.8125 19 C20.43047574 27.89058885 21.38345704 36.39591572 21.4375 45.9375 C21.47037109 46.95779297 21.50324219 47.97808594 21.53710938 49.02929688 C21.5887646 56.38781912 20.10060072 61.84163242 16 68 C11.56584778 72.22791258 8.44838594 73.44371896 2.4375 73.328125 C-2.92561983 72.60616656 -6.43387117 69.80584243 -9.9140625 65.79296875 C-20.31628794 51.73889821 -23.77821878 34.21600969 -22 17 C-20.48487903 9.70397105 -17.17198055 5.119721 -11 1 C-7.50827022 -0.74586489 -3.81769835 -0.42768285 0 0 Z " fill="#292626" transform="translate(635,397)"/>
<path d="M0 0 C2.49470405 1.63818899 4.72821145 3.41864452 6.984375 5.37109375 C11.31699132 8.87245229 16.36812251 8.38513016 21.6953125 8.35546875 C27.38416341 7.74354743 30.87545928 4.92536503 35 1.1875 C38.21763307 -0.72296963 41.36727969 -0.64019251 45 0 C47.5 1.4375 47.5 1.4375 49 4 C49.8567734 7.89305809 49.8192871 11.29946291 48.0703125 14.9296875 C42.40963409 22.46609367 32.07019042 26.53706606 23 28 C12.17215394 29.20100892 1.4820834 25.9359817 -7.25390625 19.4921875 C-10.33132973 16.86226408 -11.71059139 14.84955386 -12.33984375 10.828125 C-12.61457059 6.72732438 -12.56946501 4.70751713 -9.9375 1.4375 C-6.08060557 -0.44991642 -4.26242498 -0.78144458 0 0 Z " fill="#2A2624" transform="translate(674,486)"/>
<path d="M0 0 C0.53367187 0.18175781 1.06734375 0.36351562 1.6171875 0.55078125 C15.07052072 5.08953554 27.78362106 8.05720349 42 9 C41.40762384 12.57026711 40.02819396 14.45816451 37.625 17.125 C37.01914062 17.80820312 36.41328125 18.49140625 35.7890625 19.1953125 C33.26679727 21.73960624 31.49779326 22.91872763 27.9375 23.5 C18.85664435 22.34687547 11.7329712 15.79871584 6 9 C3.87041758 6.07409936 1.8867893 3.0874734 0 0 Z " fill="#F3B530" transform="translate(435,748)"/>
<path d="M0 0 C0 0.66 0 1.32 0 2 C0.99 2.33 1.98 2.66 3 3 C3 5.64 3 8.28 3 11 C4.70840281 9.36587557 5.93453047 8.13093906 7 6 C7.99 6.495 7.99 6.495 9 7 C4.42787296 16.11993425 -0.26524433 24.25722233 -7 32 C-7.83425373 33.06177748 -8.66771463 34.1241789 -9.5 35.1875 C-12.73706469 38.82919778 -16.2323787 41.91797256 -20 45 C-21.29744141 46.07121094 -21.29744141 46.07121094 -22.62109375 47.1640625 C-34.97125946 56.91683922 -48.76051408 63.18087227 -64 67 C-64.71994141 67.18618896 -65.43988281 67.37237793 -66.18164062 67.56420898 C-73.68065198 69.29931974 -81.08105583 69.33174936 -88.75 69.3125 C-90.0184375 69.32861328 -91.286875 69.34472656 -92.59375 69.36132812 C-105.4711029 69.3678982 -117.08028626 66.79221144 -129 62 C-125.69556843 60.88857719 -123.93314228 61.12971844 -120.6875 62.3125 C-114.86219414 64.22229339 -109.0928624 64.87953415 -103.02734375 65.5703125 C-100 66 -100 66 -99 67 C-83.36279187 67.88590244 -65.97488775 67.02693939 -51.39453125 60.90625 C-49 60 -49 60 -46 60 C-46 59.34 -46 58.68 -46 58 C-44.02 57.67 -42.04 57.34 -40 57 C-40 56.34 -40 55.68 -40 55 C-39.01 55 -38.02 55 -37 55 C-37 54.34 -37 53.68 -37 53 C-35.35 52.67 -33.7 52.34 -32 52 C-32 51.34 -32 50.68 -32 50 C-31.05125 49.525625 -30.1025 49.05125 -29.125 48.5625 C-23.7651297 45.51216731 -19.45609165 41.21440532 -15 37 C-14.44570313 36.48695313 -13.89140625 35.97390625 -13.3203125 35.4453125 C-10.93365729 33.17163505 -9.24866865 31.06491396 -8 28 C-7.34 28 -6.68 28 -6 28 C-5.505 26.515 -5.505 26.515 -5 25 C-4.34 25 -3.68 25 -3 25 C-3 24.01 -3 23.02 -3 22 C-3.66 22 -4.32 22 -5 22 C-5 22.66 -5 23.32 -5 24 C-6.57725347 24.70133599 -8.16211333 25.385583 -9.75 26.0625 C-10.63171875 26.44535156 -11.5134375 26.82820313 -12.421875 27.22265625 C-15.15256309 28.04600008 -16.36901347 27.9773992 -19 27 C-18.21496094 26.70867187 -17.42992187 26.41734375 -16.62109375 26.1171875 C-6.18131949 22.17333449 -6.18131949 22.17333449 1 14 C1.2352732 11.89145964 1.2352732 11.89145964 1.25 9.5625 C1.27578125 8.78003906 1.3015625 7.99757813 1.328125 7.19140625 C1.16269685 4.94099963 1.16269685 4.94099963 -0.2734375 3.23828125 C-3.21779188 1.12660628 -6.56404649 1.47859071 -10 2 C-12.9254644 3.3509288 -12.9254644 3.3509288 -15 5 C-15 4.01 -15 3.02 -15 2 C-14.34 2 -13.68 2 -13 2 C-13 1.34 -13 0.68 -13 0 C-8.85529486 -1.32630565 -3.96769422 -1.98384711 0 0 Z " fill="#DEB04A" transform="translate(721,485)"/>
<path d="M0 0 C6.32198953 5.35994764 6.32198953 5.35994764 9.0234375 7.91015625 C35.32760861 32.59915896 67.67350219 47.96087964 102 58 C102 58.33 102 58.66 102 59 C99.36 59 96.72 59 94 59 C94 58.34 94 57.68 94 57 C92.865625 56.79375 91.73125 56.5875 90.5625 56.375 C85.72844638 55.30076586 81.10503678 53.75800197 76.4375 52.125 C75.72988525 51.88056152 75.02227051 51.63612305 74.29321289 51.38427734 C69.98436838 49.84942913 65.92899815 48.04860596 61.86352539 45.95458984 C59.28133094 44.63186217 56.64533115 43.44039902 54 42.25 C53.05125 41.82203125 52.1025 41.3940625 51.125 40.953125 C50.073125 40.48132813 50.073125 40.48132813 49 40 C49 39.34 49 38.68 49 38 C48.28070313 37.9071875 47.56140625 37.814375 46.8203125 37.71875 C43.53085021 36.88043828 41.58672405 35.52342712 38.875 33.5 C36.16068162 31.48694928 34.21804671 30.07268224 31 29 C31 28.34 31 27.68 31 27 C29.02 26.34 27.04 25.68 25 25 C25 24.34 25 23.68 25 23 C24.01 22.67 23.02 22.34 22 22 C22 21.34 22 20.68 22 20 C21.44957031 19.75636719 20.89914062 19.51273438 20.33203125 19.26171875 C12.9290108 15.25639948 5.32216268 8.55734037 0 2 C0 1.34 0 0.68 0 0 Z " fill="#402C0A" transform="translate(394,654)"/>
<path d="M0 0 C1.22178955 0.42297363 1.22178955 0.42297363 2.46826172 0.85449219 C24.90194144 8.62890723 24.90194144 8.62890723 48 14 C48.76763672 14.13986328 49.53527344 14.27972656 50.32617188 14.42382812 C58.85571557 15.96647877 67.35447338 17.30278011 76 18 C74.98408579 23.46864457 73.92908943 28.76390013 72 34 C70.86267574 30.59598052 71.16010043 28.22543336 71.9375 24.75 C72.13214844 23.85796875 72.32679688 22.9659375 72.52734375 22.046875 C72.76130859 21.03367187 72.76130859 21.03367187 73 20 C71.77925781 19.87882813 70.55851563 19.75765625 69.30078125 19.6328125 C37.94187206 16.4665691 37.94187206 16.4665691 23.23706055 10.83178711 C20.80079872 9.92593269 18.34621576 9.09863666 15.87890625 8.28125 C14.57083008 7.84232422 14.57083008 7.84232422 13.23632812 7.39453125 C11.42916594 6.78994375 9.61916058 6.19379911 7.80664062 5.60546875 C6.94361328 5.31285156 6.08058594 5.02023437 5.19140625 4.71875 C4.40967041 4.46029297 3.62793457 4.20183594 2.82250977 3.93554688 C1 3 1 3 0 0 Z " fill="#DAAC47" transform="translate(526,610)"/>
<path d="M0 0 C5.61474352 1.18773421 7.65274922 2.43556712 11 7 C14.26067284 10.07016161 17.71334995 12.93012251 21.15625 15.79296875 C30.58678918 23.7631819 30.58678918 23.7631819 31.375 29.9375 C31 33 31 33 30 36.0625 C27.48498585 44.34938116 28.83873528 53.26806155 30.375 61.625 C30.50092529 62.31198975 30.62685059 62.99897949 30.7565918 63.70678711 C31.42287843 67.0348992 32.09058122 69.13587183 34 72 C34.66796875 74.12109375 34.66796875 74.12109375 35.1875 76.4375 C35.36667969 77.19933594 35.54585937 77.96117187 35.73046875 78.74609375 C36.01748431 81.14620939 35.64054005 82.69593175 35 85 C30.0745485 71.1994425 26.89186654 58.67910231 26.75 43.9375 C26.74049316 43.11515869 26.73098633 42.29281738 26.72119141 41.44555664 C26.7443223 37.31240942 26.99826115 34.67268188 29 31 C28.85297954 26.80559289 25.79919505 24.19933446 23.0625 21.3125 C22.57104492 20.78648193 22.07958984 20.26046387 21.57324219 19.71850586 C14.94676471 12.71479947 7.91280568 6.50456047 0 1 C0 0.67 0 0.34 0 0 Z " fill="#3F2C0A" transform="translate(687,355)"/>
<path d="M0 0 C1.98 0.33 3.96 0.66 6 1 C6.95619733 4.99795892 7.1039592 8.70803922 7.0625 12.8125 C7.05347656 13.97394531 7.04445313 15.13539063 7.03515625 16.33203125 C7.02355469 17.21246094 7.01195312 18.09289062 7 19 C-3.66701741 17.69107121 -13.62337964 15.04195045 -23.8125 11.625 C-25.49146362 11.06244507 -25.49146362 11.06244507 -27.2043457 10.48852539 C-34.600603 7.95193431 -41.8196598 5.09339405 -49 2 C-49 1.67 -49 1.34 -49 1 C-46.69 1 -44.38 1 -42 1 C-42 1.66 -42 2.32 -42 3 C-41.10474609 3.22042969 -41.10474609 3.22042969 -40.19140625 3.4453125 C-33.3578476 5.21208695 -26.78447537 7.46456863 -20.15649414 9.86645508 C-15.14892857 11.65765535 -10.22391752 12.97387334 -5 14 C-4.505 14.495 -4.505 14.495 -4 15 C-2.48530552 15.23192865 -0.96245438 15.41215238 0.5625 15.5625 C1.38878906 15.64628906 2.21507812 15.73007812 3.06640625 15.81640625 C3.70449219 15.87699219 4.34257813 15.93757812 5 16 C4.93994409 13.89504036 4.85114641 11.79088565 4.75 9.6875 C4.70359375 8.51574219 4.6571875 7.34398437 4.609375 6.13671875 C4.29945851 2.90521318 4.29945851 2.90521318 1.953125 1.08203125 C1.30859375 0.72496094 0.6640625 0.36789062 0 0 Z " fill="#DAAA46" transform="translate(597,570)"/>
<path d="M0 0 C1.92948968 7.7179587 -1.64887503 15.97859531 -5 23 C-13.40518298 23.23093614 -21.6677173 22.61248798 -30.01953125 21.77319336 C-32.15559108 21.55943876 -34.29249607 21.35639133 -36.4296875 21.15429688 C-37.7891237 21.02145819 -39.14850128 20.88801786 -40.5078125 20.75390625 C-41.73129395 20.63345947 -42.95477539 20.5130127 -44.21533203 20.38891602 C-47 20 -47 20 -48 19 C-49.546875 18.814375 -49.546875 18.814375 -51.125 18.625 C-54.43466983 18.09118228 -56.87912599 17.29367328 -59.890625 15.8984375 C-64.47035917 13.94780998 -69.266899 12.5310688 -74 11 C-69.95728779 9.65242926 -67.2062783 10.98587632 -63.3125 12.25 C-44.69285224 17.98476429 -25.45740619 20.41398737 -6 20 C-4.02 13.4 -2.04 6.8 0 0 Z " fill="#432F0B" transform="translate(601,631)"/>
<path d="M0 0 C4.87486366 0.37498951 9.06360641 1.26615522 13.6875 2.875 C23.49803004 6.27237301 33.38226419 8.17588612 43.66015625 9.52734375 C46.66288173 9.95229086 49.59452137 10.50900444 52.5625 11.125 C60.94365134 12.67706506 68.61232299 13.54529959 76 9 C76.99 9.33 77.98 9.66 79 10 C73.96478976 14.07188224 70.26754901 14.67487499 63.875 14.5625 C62.97048096 14.55154297 62.06596191 14.54058594 61.1340332 14.52929688 C39.96844562 13.88861651 19.72856697 8.3475493 0 1 C0 0.67 0 0.34 0 0 Z " fill="#DAA944" transform="translate(472,704)"/>
<path d="M0 0 C2.26237329 0.0031577 4.52343226 -0.02035485 6.78564453 -0.0456543 C14.84238104 -0.08089879 22.89049832 -0.00287761 30.39892578 3.31567383 C30.89392578 4.30567383 30.89392578 4.30567383 31.39892578 5.31567383 C30.00279513 5.17271492 28.6070327 5.02615825 27.21142578 4.87817383 C26.43412109 4.79696289 25.65681641 4.71575195 24.85595703 4.63208008 C22.39892578 4.31567383 22.39892578 4.31567383 20.16235352 3.81079102 C14.40206059 2.77873217 8.48712928 3.02393582 2.64892578 3.00317383 C1.60230774 2.99924622 1.60230774 2.99924622 0.5345459 2.99523926 C-13.85411916 2.98944239 -26.13939243 5.23928106 -39.59716797 10.58129883 C-41.60107422 11.31567383 -41.60107422 11.31567383 -43.60107422 11.31567383 C-43.60107422 10.65567383 -43.60107422 9.99567383 -43.60107422 9.31567383 C-41.20819718 8.47289953 -38.81236403 7.64130381 -36.41357422 6.81567383 C-35.74003906 6.57719727 -35.06650391 6.3387207 -34.37255859 6.09301758 C-30.66902955 4.8283979 -27.52166886 4.01116162 -23.60107422 4.31567383 C-23.60107422 3.65567383 -23.60107422 2.99567383 -23.60107422 2.31567383 C-15.75669992 0.08331788 -8.08804365 -0.02357776 0 0 Z " fill="#402E0C" transform="translate(620.60107421875,334.684326171875)"/>
<path d="M0 0 C-1.34191406 0.72703125 -1.34191406 0.72703125 -2.7109375 1.46875 C-10.40763191 5.70658007 -17.35198836 10.20566562 -24 16 C-25.37478516 17.15822266 -25.37478516 17.15822266 -26.77734375 18.33984375 C-37.48831471 27.64031647 -44.25871263 38.7186653 -51 51 C-51.33 51 -51.66 51 -52 51 C-52 49.35 -52 47.7 -52 46 C-51.34 46 -50.68 46 -50 46 C-50 44.68 -50 43.36 -50 42 C-49.34 42 -48.68 42 -48 42 C-47.566875 40.6078125 -47.566875 40.6078125 -47.125 39.1875 C-46 36 -46 36 -44 33 C-43.34 33 -42.68 33 -42 33 C-41.731875 32.195625 -41.46375 31.39125 -41.1875 30.5625 C-40.795625 29.716875 -40.40375 28.87125 -40 28 C-39.01 27.67 -38.02 27.34 -37 27 C-37 26.01 -37 25.02 -37 24 C-35.5390625 22.5 -35.5390625 22.5 -33.625 21 C-31.13659847 19.03385558 -29.8042713 17.70640694 -28 15 C-27.01 15 -26.02 15 -25 15 C-24.67 14.01 -24.34 13.02 -24 12 C-23.34 12 -22.68 12 -22 12 C-22 11.34 -22 10.68 -22 10 C-20.02 9.34 -18.04 8.68 -16 8 C-16 7.34 -16 6.68 -16 6 C-15.34 6 -14.68 6 -14 6 C-14 5.34 -14 4.68 -14 4 C-11.35261084 2.5393715 -10.10551666 2 -7 2 C-7 1.34 -7 0.68 -7 0 C-3.86650268 -1.04449911 -3.01031744 -0.93423645 0 0 Z " fill="#3F2E0B" transform="translate(577,347)"/>
<path d="M0 0 C2.20915829 2.79186381 3.85181153 5.56874338 5.4375 8.75 C12.57329227 21.96443013 22.62286636 33.25488289 33 44 C31.02 44.495 31.02 44.495 29 45 C28.34 43.35 27.68 41.7 27 40 C26.34 40 25.68 40 25 40 C24.34 38.35 23.68 36.7 23 35 C22.34 35 21.68 35 21 35 C19.81079102 33.65478516 19.81079102 33.65478516 18.50390625 31.7890625 C18.02759766 31.12132812 17.55128906 30.45359375 17.06054688 29.765625 C16.56619141 29.05921875 16.07183594 28.3528125 15.5625 27.625 C14.58937861 26.23884549 13.61167824 24.8558916 12.62890625 23.4765625 C12.19650635 22.85861816 11.76410645 22.24067383 11.31860352 21.60400391 C9.90633975 19.72776102 9.90633975 19.72776102 7 18 C5.95281202 15.68745988 4.95653635 13.3514852 4 11 C3.03182008 9.31464976 2.04349839 7.63978318 1 6 C-2.23861303 7.44424635 -4.61969163 9.25772247 -7.25 11.625 C-7.95640625 12.25664063 -8.6628125 12.88828125 -9.390625 13.5390625 C-9.92171875 14.02117188 -10.4528125 14.50328125 -11 15 C-11.66 14.67 -12.32 14.34 -13 14 C-11.02108364 11.85393535 -9.04187901 9.70813786 -7.0625 7.5625 C-6.49853516 6.95083984 -5.93457031 6.33917969 -5.35351562 5.70898438 C-4.81533203 5.12568359 -4.27714844 4.54238281 -3.72265625 3.94140625 C-3.22515869 3.40201416 -2.72766113 2.86262207 -2.21508789 2.30688477 C-1.48918929 1.52614632 -0.75381738 0.75381738 0 0 Z " fill="#DBAD4A" transform="translate(420,517)"/>
<path d="M0 0 C2.5 1.4375 2.5 1.4375 4 4 C4.8567734 7.89305809 4.8192871 11.29946291 3.0703125 14.9296875 C-2.59036591 22.46609367 -12.92980958 26.53706606 -22 28 C-30.26567126 28.91681622 -37.23959669 26.72465571 -45 24 C-40.96989576 22.3879583 -38.02353283 23.82010324 -34 25 C-24.85827527 25.8582842 -16.20815666 25.44473305 -8 21 C-7.67 20.34 -7.34 19.68 -7 19 C-5.40625 17.96484375 -5.40625 17.96484375 -3.5 16.9375 C-1.0882696 15.6858579 -1.0882696 15.6858579 1 14 C1.1245486 12.35769636 1.17568524 10.70947724 1.1875 9.0625 C1.20167969 8.16660156 1.21585938 7.27070313 1.23046875 6.34765625 C1.23194769 3.80885466 1.23194769 3.80885466 -1 2 C-4.97357645 1.47018981 -6.54170381 1.68118526 -9.875 4 C-10.926875 4.99 -10.926875 4.99 -12 6 C-12.66 5.67 -13.32 5.34 -14 5 C-9.27726822 0.27726822 -6.70639236 -0.97350857 0 0 Z " fill="#4D380D" transform="translate(719,486)"/>
<path d="M0 0 C5.2625627 0.47841479 9.78900312 1.4729657 14.76171875 3.2421875 C16.93147509 3.9767996 19.0829939 4.54131676 21.3125 5.0625 C25 6 25 6 26.93359375 7.03515625 C29.33720997 8.15744965 31.10597756 8.26825375 33.75 8.375 C38.62908193 8.7262939 43.1679528 9.72499904 47.875 11 C54.14750729 12.69741636 60.09739625 13.51844454 66.62109375 13.7265625 C67.40613281 13.81679688 68.19117188 13.90703125 69 14 C69.495 14.99 69.495 14.99 70 16 C61.9790802 16.32925098 54.39475423 15.36733997 46.5 14 C45.24638672 13.78432373 43.99277344 13.56864746 42.70117188 13.34643555 C28.12865726 10.68682354 13.72642091 6.60598109 0 1 C0 0.67 0 0.34 0 0 Z " fill="#44310D" transform="translate(532,612)"/>
<path d="M0 0 C0.66 0.33 1.32 0.66 2 1 C-1.76993033 5.14692337 -5.97091074 8.20052781 -10.59765625 11.3515625 C-11.39042969 11.89554687 -12.18320312 12.43953125 -13 13 C-13.74121094 13.50273437 -14.48242188 14.00546875 -15.24609375 14.5234375 C-17.28235483 15.97692804 -17.28235483 15.97692804 -18 19 C-18.59296875 19.28359375 -19.1859375 19.5671875 -19.796875 19.859375 C-29.25009901 24.75359736 -37.74528928 42.68691249 -41 52.375 C-41.495 54.169375 -41.495 54.169375 -42 56 C-42.66 55.67 -43.32 55.34 -44 55 C-37.17800414 31.88101404 -19.93721013 12.93703413 0 0 Z " fill="#DFB14C" transform="translate(566,352)"/>
<path d="M0 0 C3.00676674 1.05660784 3.95343377 1.92518868 5.66796875 4.6796875 C6.16941406 5.73414063 6.67085937 6.78859375 7.1875 7.875 C7.69667969 8.92429687 8.20585938 9.97359375 8.73046875 11.0546875 C11.61271091 17.74148931 12.55570084 26.16959186 10.29296875 33.1953125 C10.01066406 33.77023437 9.72835937 34.34515625 9.4375 34.9375 C6.03127217 42.19424624 11.41607581 51.83411721 14 59 C15.25012925 62.05320029 16.58712056 65.01725452 18 68 C17.01 68.495 17.01 68.495 16 69 C4.97919376 44.16644993 4.97919376 44.16644993 6 36 C6.33128906 35.43796875 6.66257812 34.8759375 7.00390625 34.296875 C8.43336927 31.00070146 8.34063148 27.78152051 8.3125 24.25 C8.30758545 23.53279785 8.3026709 22.8155957 8.29760742 22.07666016 C8.10463435 13.37406944 5.66053096 8.42546758 0 2 C0 1.34 0 0.68 0 0 Z " fill="#DCAE48" transform="translate(519,425)"/>
<path d="M0 0 C3.25042891 1.39506426 5.07371792 2.96783394 7.3125 5.6875 C15.40947398 15.23159274 24.77044025 23.21739705 34.6875 30.8125 C35.42033203 31.38419922 36.15316406 31.95589844 36.90820312 32.54492188 C40.49983372 35.30098827 43.66612725 37.53629581 48 39 C49.02196992 39.97753644 50.01979625 40.9805881 51 42 C52.98188345 43.36011609 54.97951869 44.69791204 57 46 C56.01 46.495 56.01 46.495 55 47 C52.48933999 45.6650637 50.1395512 44.27950197 47.75 42.75 C47.03489258 42.29616943 46.31978516 41.84233887 45.58300781 41.37475586 C33.75607703 33.73903618 23.14175731 24.73595175 13 15 C12.48711426 14.50902832 11.97422852 14.01805664 11.44580078 13.51220703 C1.7099789 4.14045452 1.7099789 4.14045452 0 0 Z " fill="#422F09" transform="translate(442,549)"/>
<path d="M0 0 C1.32 1.32 2.64 2.64 4 4 C3.01 4.66 2.02 5.32 1 6 C-0.2088556 13.11559914 -0.2976111 20.35839038 -0.5625 27.5625 C-0.60568359 28.66658203 -0.64886719 29.77066406 -0.69335938 30.90820312 C-0.79844387 33.60537185 -0.90059413 36.30261703 -1 39 C-0.34 39 0.32 39 1 39 C2.54296875 40.86328125 2.54296875 40.86328125 4.1875 43.3125 C5.01314453 44.51326172 5.01314453 44.51326172 5.85546875 45.73828125 C6.23316406 46.48464844 6.61085938 47.23101563 7 48 C6.67 48.99 6.34 49.98 6 51 C0.12738578 45.79155048 -3.11524078 41.03896378 -3.703125 33.12890625 C-3.99044801 21.88739349 -3.24886056 10.81019675 0 0 Z " fill="#CEA347" transform="translate(378,591)"/>
<path d="M0 0 C1.93823923 0.08936238 3.87561256 0.19750435 5.8125 0.3125 C7.43091797 0.39951172 7.43091797 0.39951172 9.08203125 0.48828125 C12.30142897 0.90876091 14.95097032 1.53889182 18.03125 2.46875 C24.84632259 4.41065731 31.63899201 4.78921728 38.6875 5.1875 C39.97333984 5.26935547 41.25917969 5.35121094 42.58398438 5.43554688 C45.72217532 5.63387121 48.86061286 5.82180387 52 6 C53.32 4.02 54.64 2.04 56 0 C56.92091738 2.57856865 57.18506902 3.5943287 56.0234375 6.140625 C55.68570313 6.75421875 55.34796875 7.3678125 55 8 C36.5509065 8.89110112 17.68880712 6.19328614 0 1 C0 0.67 0 0.34 0 0 Z " fill="#DEAD47" transform="translate(540,644)"/>
<path d="M0 0 C2.84443747 1.07892456 3.82082923 1.61179666 5.125 4.4375 C8.06454056 8.4548721 12.30136829 8.91570037 17 10 C15.8125 34.625 15.8125 34.625 11 46 C10.34 45.67 9.68 45.34 9 45 C9.64412614 42.22875964 10.29022748 39.45800555 10.9375 36.6875 C11.11990234 35.90181641 11.30230469 35.11613281 11.49023438 34.30664062 C11.66748047 33.54931641 11.84472656 32.79199219 12.02734375 32.01171875 C12.18968506 31.31522217 12.35202637 30.61872559 12.51928711 29.90112305 C12.93765565 28.2465594 13.46031369 26.61905892 14 25 C14.22451458 22.77425665 14.40782878 20.54418481 14.5625 18.3125 C14.64628906 17.13300781 14.73007812 15.95351563 14.81640625 14.73828125 C14.87699219 13.83464844 14.93757812 12.93101562 15 12 C13.989375 12 12.97875 12 11.9375 12 C7.29738954 11.37627843 5.23673135 8.47602778 2.3828125 5.0078125 C1 3 1 3 0 0 Z " fill="#412F0C" transform="translate(723,441)"/>
<path d="M0 0 C9.03744369 0.78217306 17.96252419 2.15344912 26.92382812 3.5390625 C33.93858395 4.60419256 40.92516333 5.45571293 48 6 C48 6.66 48 7.32 48 8 C46.06257659 8.02703381 44.12504521 8.04641125 42.1875 8.0625 C41.10855469 8.07410156 40.02960937 8.08570313 38.91796875 8.09765625 C36 8 36 8 33 7 C30.79407723 6.82137129 28.58499734 6.68046282 26.375 6.5625 C21.49529608 6.24186237 16.91404076 5.72976445 12.17578125 4.54296875 C9.61055572 3.90281373 7.03129436 3.3865035 4.4375 2.875 C3.59058594 2.70742188 2.74367188 2.53984375 1.87109375 2.3671875 C1.25363281 2.24601563 0.63617188 2.12484375 0 2 C0 1.34 0 0.68 0 0 Z " fill="#3B2A0E" transform="translate(496,713)"/>
<path d="M0 0 C0.66 0.33 1.32 0.66 2 1 C1.47599609 2.32451172 1.47599609 2.32451172 0.94140625 3.67578125 C-3.47639617 14.53113065 -3.47639617 14.53113065 -4 26 C-2.49014745 28.81920978 -0.81279874 31.16280231 1.23828125 33.61328125 C5.07609966 38.8126317 5.31827268 44.03718602 5.25 50.25 C5.25773438 50.96929687 5.26546875 51.68859375 5.2734375 52.4296875 C5.25352444 57.74647556 5.25352444 57.74647556 3 60 C3.03480469 58.94941406 3.06960938 57.89882813 3.10546875 56.81640625 C3.57171048 45.52272734 3.57171048 45.52272734 0 35 C-1.03977324 33.91524929 -2.10343961 32.85299295 -3.1875 31.8125 C-6.27477279 28.48596357 -6.53134104 25.73469002 -6.6875 21.25 C-6.40315073 14.23854563 -4.2891981 9.09310468 -1 3 C-0.67 2.01 -0.34 1.02 0 0 Z " fill="#402C07" transform="translate(523,399)"/>
<path d="M0 0 C0.93457031 0.47308594 1.86914062 0.94617188 2.83203125 1.43359375 C25.40569175 12.90752704 25.40569175 12.90752704 49 22 C45.29173188 23.36204161 43.03391732 22.61098121 39.375 21.3125 C38.31925781 20.93867187 37.26351562 20.56484375 36.17578125 20.1796875 C29.8002602 17.81141277 23.83554206 15.50990692 18 12 C15.03992945 10.50809732 12.06911101 9.0461305 9.08398438 7.60546875 C5.81560419 6.00131242 2.7210676 4.4428537 0 2 C0 1.34 0 0.68 0 0 Z " fill="#402D0C" transform="translate(478,618)"/>
<path d="M0 0 C2.44226673 2.97258751 3.83782665 5.75672532 5.125 9.375 C5.45757813 10.29023438 5.79015625 11.20546875 6.1328125 12.1484375 C8.20086618 18.9487942 8.27964556 25.69377141 8.375 32.75 C8.41238281 33.78382813 8.44976563 34.81765625 8.48828125 35.8828125 C8.57375613 43.42359634 6.94621854 48.58405138 3 55 C2 52 2 52 2.77734375 50.3359375 C3.16019531 49.68882812 3.54304687 49.04171875 3.9375 48.375 C9.62912217 36.09934103 5.55394915 20.38693957 2 8 C1.62617187 7.25363281 1.25234375 6.50726563 0.8671875 5.73828125 C0 4 0 4 0 0 Z " fill="#422F0A" transform="translate(648,410)"/>
<path d="M0 0 C0 0.66 0 1.32 0 2 C0.99 2.33 1.98 2.66 3 3 C3 5.64 3 8.28 3 11 C4.70840281 9.36587557 5.93453047 8.13093906 7 6 C7.66 6.33 8.32 6.66 9 7 C6.36 11.95 3.72 16.9 1 22 C-0.32 21.01 -1.64 20.02 -3 19 C-2.34 18.360625 -1.68 17.72125 -1 17.0625 C1.57676467 13.1168291 1.9604334 9.62046338 1 5 C-0.20207745 3.17809029 -0.20207745 3.17809029 -2 2 C-7.42335303 1.47515938 -10.51521011 1.63640758 -15 5 C-15 4.01 -15 3.02 -15 2 C-14.34 2 -13.68 2 -13 2 C-13 1.34 -13 0.68 -13 0 C-8.85529486 -1.32630565 -3.96769422 -1.98384711 0 0 Z " fill="#CEA84E" transform="translate(721,485)"/>
<path d="M0 0 C0.88816406 0.46148438 1.77632812 0.92296875 2.69140625 1.3984375 C19.22011516 9.88018784 36.18094365 17.65146808 54 23 C49.83018039 24.78243584 46.16931217 23.05662953 42.125 21.6875 C41.43019531 21.46126953 40.73539063 21.23503906 40.01953125 21.00195312 C38.00934833 20.34514194 36.00424884 19.67467253 34 19 C32.84242188 18.61457031 31.68484375 18.22914063 30.4921875 17.83203125 C29.25855469 17.42017578 29.25855469 17.42017578 28 17 C28 16.34 28 15.68 28 15 C26.845 14.67 25.69 14.34 24.5 14 C16.04286224 11.20347042 7.40084027 6.93389351 0 2 C0 1.34 0 0.68 0 0 Z " fill="#422D08" transform="translate(526,560)"/>
<path d="M0 0 C0.66 0 1.32 0 2 0 C3.63429751 2.0944968 5.14167234 4.17782091 6.625 6.375 C7.04523438 6.97828125 7.46546875 7.5815625 7.8984375 8.203125 C11 12.73462865 11 12.73462865 11 15 C11.66 15 12.32 15 13 15 C13.33 16.32 13.66 17.64 14 19 C14.66 19 15.32 19 16 19 C21 24.47619048 21 24.47619048 21 27 C21.66 27 22.32 27 23 27 C24.69140625 28.64453125 24.69140625 28.64453125 26.5625 30.8125 C27.18253906 31.52019531 27.80257813 32.22789062 28.44140625 32.95703125 C30 35 30 35 31 38 C29 38 29 38 27.58984375 36.6015625 C27.04457031 35.94929687 26.49929688 35.29703125 25.9375 34.625 C23.28008146 31.48541067 20.55588371 28.44488344 17.75 25.4375 C13.92665884 21.19957968 10.45292278 16.77260599 7.0625 12.1875 C6.58973633 11.55320068 6.11697266 10.91890137 5.62988281 10.26538086 C3.2224677 6.95802608 1.30736558 3.92209674 0 0 Z " fill="#3B290B" transform="translate(380,592)"/>
<path d="M0 0 C4.01620978 6.02431467 4.33827449 10.85982517 4.3125 17.9375 C4.32861328 18.81857422 4.34472656 19.69964844 4.36132812 20.60742188 C4.3652553 25.85019956 3.85553985 29.42661559 1 34 C0.34 34 -0.32 34 -1 34 C-0.83701416 33.31591064 -0.67402832 32.63182129 -0.50610352 31.92700195 C0.06590995 28.61881603 0.11244643 25.52534024 0.09765625 22.16796875 C0.09443359 20.87568359 0.09121094 19.58339844 0.08789062 18.25195312 C0.07953665 16.89713474 0.07107172 15.54231703 0.0625 14.1875 C0.05748 12.81315265 0.05291797 11.43880355 0.04882812 10.06445312 C0.03705668 6.70959076 0.02061283 3.35481779 0 0 Z " fill="#DAA83E" transform="translate(655,426)"/>
<path d="M0 0 C7.27949317 -0.76626244 13.67662488 2.7654625 20 6 C16.07285262 7.30904913 14.27046237 6.34515224 10.375 5.0625 C6.76930631 3.66596588 6.76930631 3.66596588 3 3 C7.82991859 9.3842275 12.74960195 14.97973348 19 20 C14.73867602 20 13.27228635 17.99753305 10.20703125 15.2109375 C0 4.98584071 0 4.98584071 0 0 Z " fill="#402B09" transform="translate(434,747)"/>
<path d="M0 0 C2.3125 0 2.3125 0 5 1 C6.21621791 3.68581455 7.10645628 6.20604134 8 9 C10.70417751 16.11677041 13.73187191 22.59780787 17.9609375 28.94140625 C18.30382812 29.62074219 18.64671875 30.30007813 19 31 C18.67 31.99 18.34 32.98 18 34 C15.24937701 30.57243242 13.13383718 26.86070967 11.0625 23 C10.71058594 22.34443115 10.35867188 21.6888623 9.99609375 21.01342773 C6.96687565 15.21934691 4.78145169 9.2936813 3 3 C1.35 3.33 -0.3 3.66 -2 4 C-1.34 2.68 -0.68 1.36 0 0 Z " fill="#3E2E0E" transform="translate(506,479)"/>
<path d="M0 0 C4.10103962 0.65555652 7.56339087 1.99394529 11.375 3.625 C21.63977353 7.89877943 32.34004258 10.88523074 43 14 C43 14.33 43 14.66 43 15 C34.63680804 15.70874508 28.63237765 13.2326352 21 10 C19.01412448 9.19263254 17.02458513 8.3950037 15.03369141 7.60009766 C13.15673964 6.85015384 11.28334555 6.09132402 9.41015625 5.33203125 C6.29932126 4.11691701 3.17819414 3.02381521 0 2 C0 1.34 0 0.68 0 0 Z " fill="#DDAF4B" transform="translate(474,674)"/>
<path d="M0 0 C0 0.66 0 1.32 0 2 C-14.32877048 5.35269281 -28.33950188 5.32969636 -43 5 C-43 4.67 -43 4.34 -43 4 C-39.49833968 3.21557435 -36.19813417 2.84758872 -32.61328125 2.75390625 C-31.59169922 2.72103516 -30.57011719 2.68816406 -29.51757812 2.65429688 C-27.40048376 2.59366102 -25.28329257 2.53630664 -23.16601562 2.48242188 C-17.32117593 2.28820463 -11.84479306 1.75307697 -6.14526367 0.41772461 C-4 0 -4 0 0 0 Z " fill="#4E3913" transform="translate(661,551)"/>
<path d="M0 0 C0 0.66 0 1.32 0 2 C0.61875 2.268125 1.2375 2.53625 1.875 2.8125 C4 4 4 4 6 7 C3.77306531 5.96606604 2.02608314 5.02338488 0.1875 3.375 C-2.99125832 1.37692334 -5.32143314 1.60586784 -9 2 C-11.5771736 2.74536751 -11.5771736 2.74536751 -13 5 C-13.73204596 9.80926396 -13.5643582 14.76880896 -11 19 C-9.04978917 20.22527948 -9.04978917 20.22527948 -7 21 C-6.34 21.66 -5.68 22.32 -5 23 C-7.78211944 22.62403791 -9.5879284 22.32681541 -11.8125 20.5625 C-13 19 -13 19 -13 17 C-13.66 17 -14.32 17 -15 17 C-16.39151652 12.20699867 -15.68662689 7.84864218 -15 3 C-14.01 2.67 -13.02 2.34 -12 2 C-12 1.34 -12 0.68 -12 0 C-8.04395608 -1.21724428 -3.79359325 -1.89679663 0 0 Z " fill="#E0B04A" transform="translate(676,485)"/>
<path d="M0 0 C3.05666664 2.90656248 5.53005241 5.96011034 8 9.375 C15.86257515 19.96619909 24.45297164 29.88692747 34 39 C30.15376241 39 29.06928292 37.48351665 26.41748047 34.88476562 C25.82596191 34.28341797 25.23444336 33.68207031 24.625 33.0625 C24.01156738 32.44439453 23.39813477 31.82628906 22.76611328 31.18945312 C0 7.706251 0 7.706251 0 0 Z " fill="#432F08" transform="translate(402,547)"/>
<path d="M0 0 C2.33333333 2.33333333 4.66666667 4.66666667 7 7 C6.6730244 9.61580479 6.17960932 11.64078137 5 14 C4.30853273 26.65916994 5.51071835 38.5980432 8 51 C7.34 51 6.68 51 6 51 C2.69672092 43.028666 2.61216317 35.87130555 2.75 27.3125 C2.75515625 26.02021484 2.7603125 24.72792969 2.765625 23.39648438 C2.84414459 13.89070703 2.84414459 13.89070703 3.57128906 9.73510742 C4.05089517 6.67529694 3.66571926 5.54757063 2 3 C1.34 3 0.68 3 0 3 C0 2.01 0 1.02 0 0 Z " fill="#CBA145" transform="translate(710,376)"/>
<path d="M0 0 C3.59989397 1.69339921 5.99477187 3.73358027 8.875 6.5 C13.15010559 10.44845543 17.52556215 14.04026537 22.25 17.4375 C22.8157373 17.85 23.38147461 18.2625 23.96435547 18.6875 C27.83057917 21.41739405 31.62727141 23.27421499 36 25 C36 25.99 36 26.98 36 28 C36.66 28 37.32 28 38 28 C37.67 28.66 37.34 29.32 37 30 C28.84252726 24.80781548 20.96773044 19.38746387 13.4375 13.3125 C12.78394531 12.79083252 12.13039063 12.26916504 11.45703125 11.73168945 C7.13617025 8.19042825 3.49568072 4.35478182 0 0 Z " fill="#44310B" transform="translate(411,630)"/>
<path d="M0 0 C7.30228026 0.7554083 7.30228026 0.7554083 10.796875 1.98046875 C15.61996638 3.51562345 20.5200038 3.82391257 25.5390625 4.33984375 C28.94462083 4.9894367 30.50212485 5.67329904 33 8 C21.5545766 8.6867254 10.52059506 5.22970863 0 1 C0 0.67 0 0.34 0 0 Z " fill="#DAA943" transform="translate(592,546)"/>
<path d="M0 0 C-6.77547726 3.6537914 -13.19888676 6.63586833 -20.72265625 8.359375 C-23.25040493 8.94401444 -23.25040493 8.94401444 -26 11 C-26.99 10.67 -27.98 10.34 -29 10 C-5.82976058 -2.04175947 -5.82976058 -2.04175947 0 0 Z " fill="#DFAE44" transform="translate(597,341)"/>
<path d="M0 0 C0 0.99 0 1.98 0 3 C-5.03453387 5.81149294 -9.17871937 7.40599177 -15 8 C-15.33 8.33 -15.66 8.66 -16 9 C-17.85287502 9.07226502 -19.70833878 9.0838122 -21.5625 9.0625 C-22.57441406 9.05347656 -23.58632813 9.04445313 -24.62890625 9.03515625 C-25.41136719 9.02355469 -26.19382812 9.01195312 -27 9 C-23.93745977 7.35530247 -20.90508297 6.27152489 -17.578125 5.2734375 C-16.55332031 4.9640625 -15.52851563 4.6546875 -14.47265625 4.3359375 C-13.40917969 4.01882813 -12.34570312 3.70171875 -11.25 3.375 C-10.17105469 3.05015625 -9.09210938 2.7253125 -7.98046875 2.390625 C-5.32126657 1.59051107 -2.66110357 0.79376265 0 0 Z " fill="#DCAD42" transform="translate(501,484)"/>
<path d="M0 0 C1 3 1 3 0.0703125 6.375 C-1.5137595 12.18947604 -1.21408187 18.01780947 -1.125 24 C-1.11597656 25.15628906 -1.10695313 26.31257813 -1.09765625 27.50390625 C-1.07424922 30.33615647 -1.04145995 33.16796619 -1 36 C-5.71367627 28.92948559 -4.78253455 18.2212597 -4 10 C-3.05417815 6.40257278 -1.82264972 3.23845799 0 0 Z " fill="#4C360D" transform="translate(617,404)"/>
<path d="M0 0 C5.852795 0.51482919 11.3297637 1.45357192 17 3 C17 3.66 17 4.32 17 5 C17.58007812 5.18175781 18.16015625 5.36351562 18.7578125 5.55078125 C23.39147293 7.0418106 27.69762355 8.68333576 32 11 C32 11.66 32 12.32 32 13 C32.99 13.33 33.98 13.66 35 14 C34.34 14.33 33.68 14.66 33 15 C30.77691549 13.87318931 28.65014271 12.69122109 26.5 11.4375 C18.05798592 6.69312371 9.23866391 3.79382276 0 1 C0 0.67 0 0.34 0 0 Z " fill="#4E370D" transform="translate(652,340)"/>
<path d="M0 0 C0.87398438 0.09087891 0.87398438 0.09087891 1.765625 0.18359375 C8.50409957 0.87227433 15.24850516 1.45477619 22 2 C21.41463247 5.66060821 19.916761 7.54535164 17.4375 10.25 C16.79683594 10.95640625 16.15617187 11.6628125 15.49609375 12.390625 C15.00238281 12.92171875 14.50867188 13.4528125 14 14 C14 13.01 14 12.02 14 11 C15 10 16 9 17 8 C17.33 6.68 17.66 5.36 18 4 C12.06 3.34 6.12 2.68 0 2 C0 1.34 0 0.68 0 0 Z " fill="#D8AB4A" transform="translate(455,755)"/>
<path d="M0 0 C1.60407328 -0.02708567 3.2082785 -0.04643483 4.8125 -0.0625 C5.70582031 -0.07410156 6.59914063 -0.08570313 7.51953125 -0.09765625 C10 0 10 0 13 1 C13 1.66 13 2.32 13 3 C11.91332031 2.93039062 11.91332031 2.93039062 10.8046875 2.859375 C4.66128965 2.63002148 0.72584743 2.61994629 -4 7 C-6.97639866 10.80317606 -8.67629182 14.36702138 -10 19 C-11.60080151 14.99799622 -10.29279692 11.95443764 -9 8 C-8.34 8 -7.68 8 -7 8 C-6.67 7.01 -6.34 6.02 -6 5 C-2.55555556 2 -2.55555556 2 0 2 C0 1.34 0 0.68 0 0 Z " fill="#DDAE47" transform="translate(624,395)"/>
<path d="M0 0 C0.33 0.66 0.66 1.32 1 2 C-0.47825216 5.47389258 -1.87880303 8.75273818 -5 11 C-6.32 11 -7.64 11 -9 11 C-9 11.66 -9 12.32 -9 13 C-14.65394631 13.34615998 -18.03006806 12.43425238 -23 10 C-23 9.34 -23 8.68 -23 8 C-21.7315625 8.495 -21.7315625 8.495 -20.4375 9 C-16.51131684 10.14216238 -14.06300352 10.63046606 -10 10 C-5.91907358 7.23000639 -2.7321016 4.09815239 0 0 Z " fill="#412D0A" transform="translate(476,760)"/>
<path d="M0 0 C-3.33162131 1.13011341 -6.66559048 2.25314259 -10 3.375 C-10.93457031 3.69210937 -11.86914062 4.00921875 -12.83203125 4.3359375 C-27.86868825 9.38320698 -27.86868825 9.38320698 -34 9 C-30.17482487 6.60926555 -26.40334476 6.44033448 -22 6 C-22 5.34 -22 4.68 -22 4 C-6.03895528 -1.65994494 -6.03895528 -1.65994494 0 0 Z " fill="#402E0C" transform="translate(503,484)"/>
<path d="M0 0 C0.33 0 0.66 0 1 0 C1.02578125 0.83660156 1.0515625 1.67320312 1.078125 2.53515625 C1.53462087 11.90369657 3.29832919 20.00443682 6 29 C6.30679688 30.04542969 6.61359375 31.09085937 6.9296875 32.16796875 C7.6056192 34.45004291 8.29405455 36.72706957 9 39 C7 37.25 7 37.25 5 35 C5 33.68 5 32.36 5 31 C4.34 31 3.68 31 3 31 C2.8046875 29.11197917 2.609375 27.22395833 2.4140625 25.3359375 C2.05564221 22.89250222 2.05564221 22.89250222 0.96875 20.28125 C-0.25621072 16.1321895 -0.21963059 12.41977302 -0.125 8.125 C-0.11597656 7.34125 -0.10695313 6.5575 -0.09765625 5.75 C-0.07428063 3.83319945 -0.03841653 1.91655809 0 0 Z " fill="#DEAF4A" transform="translate(612,418)"/>
<path d="M0 0 C2.27704825 3.41557237 4.01567622 7.00818943 5.8125 10.6875 C8.04186362 15.22557488 10.27837547 19.64406918 13.0625 23.875 C13.701875 24.90625 14.34125 25.9375 15 27 C14.67 27.66 14.34 28.32 14 29 C12.9944239 27.54550599 11.99569565 26.08627557 11 24.625 C10.443125 23.81289063 9.88625 23.00078125 9.3125 22.1640625 C8 20 8 20 8 18 C7.01 17.67 6.02 17.34 5 17 C2.78248601 13.30414334 2 11.36991627 2 7 C1.34 7 0.68 7 0 7 C-0.38133299 5.0085944 -0.71325582 3.00720923 -1 1 C-0.67 0.67 -0.34 0.34 0 0 Z " fill="#402E0C" transform="translate(529,480)"/>
<path d="M0 0 C2.5 1.4375 2.5 1.4375 4 4 C4.77800354 7.90483684 4.93298539 11.41489333 2.87109375 14.91796875 C1.5 16.5625 1.5 16.5625 -1 19 C-1.66 18.34 -2.32 17.68 -3 17 C-2.02160156 16.41412109 -2.02160156 16.41412109 -1.0234375 15.81640625 C1.21920915 14.17192133 1.21920915 14.17192133 1.4609375 11.58984375 C1.43257812 10.71457031 1.40421875 9.83929688 1.375 8.9375 C1.36210938 8.05964844 1.34921875 7.18179687 1.3359375 6.27734375 C1.2024981 3.80493404 1.2024981 3.80493404 -1 2 C-4.97357645 1.47018981 -6.54170381 1.68118526 -9.875 4 C-10.57625 4.66 -11.2775 5.32 -12 6 C-12.66 5.67 -13.32 5.34 -14 5 C-9.27726822 0.27726822 -6.70639236 -0.97350857 0 0 Z " fill="#412C04" transform="translate(719,486)"/>
<path d="M0 0 C7.92 0.33 15.84 0.66 24 1 C22.16614077 4.66771845 20.74937171 6.46834996 17.875 9.25 C17.15054688 9.95640625 16.42609375 10.6628125 15.6796875 11.390625 C15.12539063 11.92171875 14.57109375 12.4528125 14 13 C14 10 14 10 16 7 C16.66 7 17.32 7 18 7 C18.33 6.01 18.66 5.02 19 4 C19.66 4 20.32 4 21 4 C21 3.34 21 2.68 21 2 C19.98679687 2.01160156 18.97359375 2.02320313 17.9296875 2.03515625 C16.57812686 2.04454209 15.2265642 2.05364143 13.875 2.0625 C12.87726562 2.07506836 12.87726562 2.07506836 11.859375 2.08789062 C7.79318646 2.10782292 3.9879908 1.78890161 0 1 C0 0.67 0 0.34 0 0 Z " fill="#E4B651" transform="translate(546,694)"/>
<path d="M0 0 C3.31907529 1.65953765 3.80800099 5.35639386 5 8.6875 C5.26039063 9.39583984 5.52078125 10.10417969 5.7890625 10.83398438 C7.26360133 14.86662467 8.66331955 18.9192688 10 23 C9.34 22.67 8.68 22.34 8 22 C8 21.34 8 20.68 8 20 C7.34 20 6.68 20 6 20 C5.67 18.02 5.34 16.04 5 14 C4.34 14 3.68 14 3 14 C1.80712589 10.12315913 1 7.08378077 1 3 C-0.98 3 -2.96 3 -5 3 C-2 1 -2 1 0 0 Z " fill="#D7AA48" transform="translate(508,481)"/>
<path d="M0 0 C5.58467119 1.64255035 9.326713 5.3379525 12.375 10.1875 C13 12 13 12 13 15 C13.66 15 14.32 15 15 15 C17.27678571 23.03571429 17.27678571 23.03571429 16 27 C15.56300781 25.74896484 15.56300781 25.74896484 15.1171875 24.47265625 C11.62033994 14.87282001 7.59714307 6.92680691 0 0 Z " fill="#E0B14A" transform="translate(638,398)"/>
<path d="M0 0 C0 0.33 0 0.66 0 1 C-4.95 1.66 -9.9 2.32 -15 3 C-14.34 4.65 -13.68 6.3 -13 8 C-13.33 8.99 -13.66 9.98 -14 11 C-14.83905565 9.87926138 -15.67107831 8.75325453 -16.5 7.625 C-16.9640625 6.99851562 -17.428125 6.37203125 -17.90625 5.7265625 C-19 4 -19 4 -19 2 C-6.51480638 -1.62870159 -6.51480638 -1.62870159 0 0 Z " fill="#D7AA46" transform="translate(476,494)"/>
<path d="M0 0 C2.9375 2.5 2.9375 2.5 5 5 C4.43539062 4.84917969 3.87078125 4.69835937 3.2890625 4.54296875 C0.98413813 3.99623754 -1.27592126 3.61497335 -3.625 3.3125 C-4.78902344 3.15201172 -4.78902344 3.15201172 -5.9765625 2.98828125 C-8.23292822 2.7642617 -8.23292822 2.7642617 -10 5 C-10.21358801 8.84458427 -10.17881287 12.31620978 -9 16 C-10.97297779 14.35760094 -11.90678419 13.42180154 -12.46875 10.87890625 C-12.55229432 4.68618385 -12.55229432 4.68618385 -9.9375 1.4375 C-6.22793965 -0.37781677 -4.08316143 -0.65622237 0 0 Z " fill="#402C08" transform="translate(674,486)"/>
<path d="M0 0 C3.36220784 3.18361481 6.16148156 6.68497855 8.9375 10.375 C12.18982722 14.67792442 15.51961025 18.87832198 19 23 C16.6875 22.8125 16.6875 22.8125 14 22 C12.96447676 20.35516888 11.97247977 18.6828728 11 17 C8.91205446 14.18160355 6.69844754 11.45806175 4.49609375 8.72851562 C0.43768126 3.58023272 0.43768126 3.58023272 0 0 Z " fill="#D9AB4B" transform="translate(523,513)"/>
<path d="M0 0 C7.96487242 5.76281946 16.19864879 11.87366955 23 19 C19.4124787 17.66749209 16.1635377 16.169283 13 14 C13 13.34 13 12.68 13 12 C12.15695312 11.62875 12.15695312 11.62875 11.296875 11.25 C8.60907431 9.78725133 6.53594518 8.03195127 4.25 6 C3.45078125 5.29875 2.6515625 4.5975 1.828125 3.875 C0 2 0 2 0 0 Z " fill="#3E2C09" transform="translate(436,587)"/>
<path d="M0 0 C0.99 0.33 1.98 0.66 3 1 C-3.28493683 5.67716229 -9.31120475 5.8643613 -17 5 C-19.39453125 3.9765625 -19.39453125 3.9765625 -21 3 C-21 2.67 -21 2.34 -21 2 C-19.10314453 2.03480469 -19.10314453 2.03480469 -17.16796875 2.0703125 C-15.5078184 2.08907126 -13.84766167 2.10727135 -12.1875 2.125 C-11.35412109 2.14175781 -10.52074219 2.15851563 -9.66210938 2.17578125 C-8.45844727 2.18544922 -8.45844727 2.18544922 -7.23046875 2.1953125 C-6.12288208 2.21102295 -6.12288208 2.21102295 -4.99291992 2.22705078 C-2.68109324 2.11741479 -2.68109324 2.11741479 0 0 Z " fill="#DEAF49" transform="translate(703,490)"/>
<path d="M0 0 C1.85174007 7.40696029 -1.20967102 15.50229319 -5 22 C-8.3 22 -11.6 22 -15 22 C-15 21.67 -15 21.34 -15 21 C-12.03 20.67 -9.06 20.34 -6 20 C-4.02 13.4 -2.04 6.8 0 0 Z " fill="#533D11" transform="translate(601,631)"/>
<path d="M0 0 C0.56847656 0.19335938 1.13695312 0.38671875 1.72265625 0.5859375 C6.45364938 2.18136423 11.18794425 3.66900586 16 5 C16 5.33 16 5.66 16 6 C13.03 6 10.06 6 7 6 C7.33 6.99 7.66 7.98 8 9 C8.66 9 9.32 9 10 9 C9.67 9.99 9.34 10.98 9 12 C7.49707257 10.18992669 5.99772829 8.37687764 4.5 6.5625 C3.6646875 5.55316406 2.829375 4.54382813 1.96875 3.50390625 C0 1 0 1 0 0 Z " fill="#D4A84C" transform="translate(435,748)"/>
<path d="M0 0 C8.68007546 0.55055809 17.34279687 1.15407786 26 2 C26 2.66 26 3.32 26 4 C16.91990679 4.4490156 8.80578857 3.18842083 0 1 C0 0.67 0 0.34 0 0 Z " fill="#32240D" transform="translate(518,717)"/>
<path d="M0 0 C3.97570945 1.72346025 7.23559514 4.35202746 10.625 7 C11.21023438 7.45117188 11.79546875 7.90234375 12.3984375 8.3671875 C14.71029327 10.15940597 16.92951793 11.92951793 19 14 C12.98915331 13.03826453 7.41799399 9.01635818 3 5 C3 4.34 3 3.68 3 3 C2.01 2.67 1.02 2.34 0 2 C0 1.34 0 0.68 0 0 Z " fill="#DDAF49" transform="translate(420,640)"/>
<path d="M0 0 C0.66 0 1.32 0 2 0 C2 0.66 2 1.32 2 2 C2.57492187 2.23589844 3.14984375 2.47179687 3.7421875 2.71484375 C6.49499605 4.28175381 8.08560756 6.14702188 10.125 8.5625 C12.69470499 11.7474573 12.69470499 11.7474573 16 14 C16 14.66 16 15.32 16 16 C16.99 16.33 17.98 16.66 19 17 C18.34 17.66 17.68 18.32 17 19 C14.3460351 16.40401115 11.70329296 13.79688166 9.0625 11.1875 C8.30775391 10.44951172 7.55300781 9.71152344 6.77539062 8.95117188 C6.05673828 8.23896484 5.33808594 7.52675781 4.59765625 6.79296875 C3.93258057 6.1383667 3.26750488 5.48376465 2.58227539 4.80932617 C1 3 1 3 0 0 Z " fill="#DBAD4A" transform="translate(421,570)"/>
<path d="M0 0 C0.66 0.33 1.32 0.66 2 1 C1.47599609 2.32451172 1.47599609 2.32451172 0.94140625 3.67578125 C-1.65634649 10.52707815 -3.55339826 16.47880114 -3.76171875 23.890625 C-4 26 -4 26 -6 28 C-6.64100336 18.24250439 -5.63610213 11.58818919 -1 3 C-0.67 2.01 -0.34 1.02 0 0 Z " fill="#49360E" transform="translate(523,399)"/>
<path d="M0 0 C5.84950002 0.52227679 10.57882552 1.81368272 16 4 C17.99640639 4.67735217 19.99504414 5.34838935 22 6 C21.67 6.66 21.34 7.32 21 8 C13.74839665 6.180206 6.87619244 3.93841629 0 1 C0 0.67 0 0.34 0 0 Z " fill="#4F390E" transform="translate(481,676)"/>
<path d="M0 0 C-1 2 -1 2 -2.73730469 2.61889648 C-5.26861631 3.04524278 -7.63584214 3.11258231 -10.203125 3.09765625 C-11.1828125 3.09443359 -12.1625 3.09121094 -13.171875 3.08789062 C-14.18765625 3.07951172 -15.2034375 3.07113281 -16.25 3.0625 C-17.796875 3.05573242 -17.796875 3.05573242 -19.375 3.04882812 C-21.91672573 3.03706088 -24.45833319 3.02062011 -27 3 C-27 2.67 -27 2.34 -27 2 C-23.81309767 1.66078548 -20.62539896 1.32970583 -17.4375 1 C-16.54224609 0.90460937 -15.64699219 0.80921875 -14.72460938 0.7109375 C-9.78509212 0.20432035 -4.96511986 -0.10897382 0 0 Z " fill="#EAB546" transform="translate(652,551)"/>
<path d="M0 0 C5.12196774 1.90403583 6.53873255 5.83813909 8.8046875 10.53515625 C10.70263148 16.03671283 10.49988896 21.26053411 10 27 C9.67 27 9.34 27 9 27 C8.92523437 26.02160156 8.85046875 25.04320312 8.7734375 24.03515625 C8.00811501 16.40444079 7.24347215 10.92085974 2.33984375 4.734375 C1 3 1 3 0 0 Z " fill="#CCA141" transform="translate(519,425)"/>
<path d="M0 0 C0.33 0.66 0.66 1.32 1 2 C-3.29648154 8.12848382 -7.49489403 13.90777698 -13 19 C-13.99 18.67 -14.98 18.34 -16 18 C-15.175 17.38125 -14.35 16.7625 -13.5 16.125 C-8.09979142 11.65054146 -3.87137668 5.80706502 0 0 Z " fill="#47350E" transform="translate(720,508)"/>
<path d="M0 0 C0 0.66 0 1.32 0 2 C0.99 2.33 1.98 2.66 3 3 C2.67 4.32 2.34 5.64 2 7 C1.505 6.175 1.01 5.35 0.5 4.5 C-1.88320369 1.60646486 -1.88320369 1.60646486 -5.9375 1.5 C-9.60529513 1.71938214 -12.03079344 2.77309508 -15 5 C-15 4.01 -15 3.02 -15 2 C-14.34 2 -13.68 2 -13 2 C-13 1.34 -13 0.68 -13 0 C-8.85529486 -1.32630565 -3.96769422 -1.98384711 0 0 Z " fill="#D9AB45" transform="translate(721,485)"/>
<path d="M0 0 C0.84820313 0.32742188 1.69640625 0.65484375 2.5703125 0.9921875 C6.20190011 2.05932828 9.10336301 2.20197218 12.875 2.125 C14.02742187 2.10695313 15.17984375 2.08890625 16.3671875 2.0703125 C17.23601563 2.04710937 18.10484375 2.02390625 19 2 C19 1.34 19 0.68 19 0 C19.99 0.33 20.98 0.66 22 1 C17.75316452 4.48458296 14.77566649 5.63070508 9.2578125 5.40625 C5.57760108 4.74406663 3.07351648 3.09260696 0 1 C0 0.67 0 0.34 0 0 Z " fill="#402E0B" transform="translate(628,465)"/>
<path d="M0 0 C2.97 0.495 2.97 0.495 6 1 C6.20177072 8.35342179 6.21211746 14.94887561 4 22 C3.67 22 3.34 22 3 22 C3 15.73 3 9.46 3 3 C2.01 2.67 1.02 2.34 0 2 C0 1.34 0 0.68 0 0 Z " fill="#D9AB47" transform="translate(732,452)"/>
<path d="M0 0 C7.45014687 -0.58432525 14.08642473 1.21832654 21 4 C21.33 4.66 21.66 5.32 22 6 C14.52164523 4.77048326 7.2783523 3.11170763 0 1 C0 0.67 0 0.34 0 0 Z " fill="#4D390F" transform="translate(503,684)"/>
<path d="M0 0 C3.96457262 1.37099303 6.72954737 3.1890365 9.9375 5.875 C13.51884604 8.81930541 17.08251377 11.52579817 21 14 C20.67 14.66 20.34 15.32 20 16 C17.78947874 14.44052267 15.58158389 12.87753183 13.375 11.3125 C12.75753906 10.87744141 12.14007813 10.44238281 11.50390625 9.99414062 C7.51331991 7.15872401 3.67946093 4.23226491 0 1 C0 0.67 0 0.34 0 0 Z " fill="#D7AA4A" transform="translate(497,539)"/>
<path d="M0 0 C1.32 0.33 2.64 0.66 4 1 C4 2.32 4 3.64 4 5 C4.66 5 5.32 5 6 5 C6 5.99 6 6.98 6 8 C6.66 8 7.32 8 8 8 C8.28875 8.639375 8.5775 9.27875 8.875 9.9375 C9.82823451 12.15206079 9.82823451 12.15206079 12 13 C12 13.99 12 14.98 12 16 C12.66 16.33 13.32 16.66 14 17 C13.01 17 12.02 17 11 17 C9.6496582 15.54711914 9.6496582 15.54711914 8.30078125 13.53515625 C7.81416016 12.81779297 7.32753906 12.10042969 6.82617188 11.36132812 C6.32666016 10.60271484 5.82714844 9.84410156 5.3125 9.0625 C4.80138672 8.30775391 4.29027344 7.55300781 3.76367188 6.77539062 C0 1.17259471 0 1.17259471 0 0 Z " fill="#422F0C" transform="translate(427,529)"/>
<path d="M0 0 C2.31 0 4.62 0 7 0 C7 0.66 7 1.32 7 2 C7.886875 2.12375 8.77375 2.2475 9.6875 2.375 C12.70387502 2.94412736 15.20326054 3.76614436 18 5 C17.67 5.66 17.34 6.32 17 7 C11.14340094 5.33846988 5.5409866 3.52958084 0 1 C0 0.67 0 0.34 0 0 Z " fill="#D8A846" transform="translate(509,633)"/>
<path d="M0 0 C0.33 0 0.66 0 1 0 C1.04254356 1.99954746 1.04080783 4.00041636 1 6 C0.67 6.33 0.34 6.66 0 7 C-0.15740605 8.70563778 -0.25093392 10.41727244 -0.31640625 12.12890625 C-0.35830078 13.16337891 -0.40019531 14.19785156 -0.44335938 15.26367188 C-0.48267578 16.35228516 -0.52199219 17.44089844 -0.5625 18.5625 C-0.60568359 19.65498047 -0.64886719 20.74746094 -0.69335938 21.87304688 C-0.79982068 24.58189564 -0.90183516 27.29083992 -1 30 C-1.33 30 -1.66 30 -2 30 C-2.05819473 25.93756043 -2.09366215 21.87522854 -2.125 17.8125 C-2.14175781 16.66201172 -2.15851563 15.51152344 -2.17578125 14.32617188 C-2.18222656 13.21435547 -2.18867188 12.10253906 -2.1953125 10.95703125 C-2.20578613 9.93585205 -2.21625977 8.91467285 -2.22705078 7.86254883 C-1.98999632 4.87387833 -1.25617102 2.70576631 0 0 Z " fill="#312916" transform="translate(375,599)"/>
<path d="M0 0 C6.45092862 2.72923903 10.47183874 7.16496407 14 13 C10.33620697 11.42491141 7.70148695 9.15806427 4.75 6.5 C3.85796875 5.7059375 2.9659375 4.911875 2.046875 4.09375 C0 2 0 2 0 0 Z " fill="#D6A846" transform="translate(553,518)"/>
<path d="M0 0 C0.33 0 0.66 0 1 0 C1.13277344 0.61488281 1.26554688 1.22976563 1.40234375 1.86328125 C1.57894531 2.67152344 1.75554688 3.47976563 1.9375 4.3125 C2.19853516 5.51326172 2.19853516 5.51326172 2.46484375 6.73828125 C2.99886159 9.145401 2.99886159 9.145401 4 12 C5.93330603 13.09166275 5.93330603 13.09166275 8 14 C8.66 14.66 9.32 15.32 10 16 C7.21788056 15.62403791 5.4120716 15.32681541 3.1875 13.5625 C2 12 2 12 2 10 C1.34 10 0.68 10 0 10 C-0.95024979 6.30458414 -0.95024979 3.69541586 0 0 Z " fill="#D0A140" transform="translate(661,492)"/>
<path d="M0 0 C4.05819183 0.65503282 7.53971282 1.94559121 11.3125 3.5625 C12.38113281 4.01753906 13.44976562 4.47257813 14.55078125 4.94140625 C15.76314453 5.46541016 15.76314453 5.46541016 17 6 C15.421875 7.2109375 15.421875 7.2109375 13 8 C10.5453777 6.98613427 8.50453746 5.97276745 6.25 4.625 C5.64800781 4.28210938 5.04601562 3.93921875 4.42578125 3.5859375 C2.94227881 2.73822182 1.46998513 1.87094495 0 1 C0 0.67 0 0.34 0 0 Z " fill="#DAA945" transform="translate(438,688)"/>
<path d="M0 0 C5.91492272 0.45224761 11.35199888 1.1582605 17 3 C17 3.33 17 3.66 17 4 C10.54107286 4.40368295 5.93891422 3.5915262 0 1 C0 0.67 0 0.34 0 0 Z " fill="#E7B446" transform="translate(500,685)"/>
<path d="M0 0 C0.33 0 0.66 0 1 0 C1.37634203 6.80203375 0.77471079 11.75690073 -2 18 C-2.66 17.67 -3.32 17.34 -4 17 C-2.68 11.39 -1.36 5.78 0 0 Z " fill="#4B3710" transform="translate(736,469)"/>
<path d="M0 0 C5.23880078 0.55145271 9.97350697 1.42922093 15 3 C15 3.66 15 4.32 15 5 C9.33895411 4.50341703 5.12325529 3.45489316 0 1 C0 0.67 0 0.34 0 0 Z " fill="#48340F" transform="translate(586,565)"/>
<path d="M0 0 C4.9723422 1.49170266 9.41845739 3.60457417 14 6 C13.34 6.66 12.68 7.32 12 8 C11.46890625 7.72285156 10.9378125 7.44570313 10.390625 7.16015625 C9.68421875 6.79792969 8.9778125 6.43570312 8.25 6.0625 C7.55390625 5.70285156 6.8578125 5.34320313 6.140625 4.97265625 C4.09775567 4.04441818 2.18884624 3.46833422 0 3 C0 2.01 0 1.02 0 0 Z " fill="#DEAD46" transform="translate(668,346)"/>
<path d="M0 0 C4.33333333 4.33333333 8.66666667 8.66666667 13 13 C12.34 13.66 11.68 14.32 11 15 C9.53308542 13.44555348 8.07679359 11.88107825 6.625 10.3125 C5.81289063 9.44238281 5.00078125 8.57226562 4.1640625 7.67578125 C2.11022491 5.13628893 1.0099332 3.07974134 0 0 Z " fill="#D2A749" transform="translate(393,612)"/>
<path d="M0 0 C0.66 0 1.32 0 2 0 C2 0.66 2 1.32 2 2 C2.556875 2.20625 3.11375 2.4125 3.6875 2.625 C7.01603962 4.60413167 8.74304069 6.84025696 11 10 C10.67 10.99 10.34 11.98 10 13 C8.51511559 11.40112446 7.03726855 9.79571095 5.5625 8.1875 C4.32693359 6.84751953 4.32693359 6.84751953 3.06640625 5.48046875 C1 3 1 3 0 0 Z " fill="#D9AA46" transform="translate(463,505)"/>
<path d="M0 0 C4.97093824 0.41153737 9.44508386 0.79600832 14 3 C13.67 3.66 13.34 4.32 13 5 C11.01853549 4.55170486 9.03985789 4.09107502 7.0625 3.625 C5.96035156 3.36976563 4.85820312 3.11453125 3.72265625 2.8515625 C2.82417969 2.57054687 1.92570312 2.28953125 1 2 C0.67 1.34 0.34 0.68 0 0 Z " fill="#47340E" transform="translate(440,749)"/>
<path d="M0 0 C4.29718953 1.38914475 6.70687757 3.38031985 9.8125 6.625 C10.99779297 7.85089844 10.99779297 7.85089844 12.20703125 9.1015625 C12.79871094 9.72804688 13.39039063 10.35453125 14 11 C9.85878264 11 8.16365957 8.75914512 5.3125 6.0625 C4.80138672 5.59392578 4.29027344 5.12535156 3.76367188 4.64257812 C2.48385946 3.45503523 1.23873906 2.23032657 0 1 C0 0.67 0 0.34 0 0 Z " fill="#D6AA4A" transform="translate(399,658)"/>
<path d="M0 0 C0.33 0 0.66 0 1 0 C1.268125 0.928125 1.53625 1.85625 1.8125 2.8125 C2.72251395 5.95914625 2.72251395 5.95914625 4.625 7.5625 C6 9 6 9 6.1875 11.6875 C6.125625 12.450625 6.06375 13.21375 6 14 C3.36138548 10.81546523 0.8167672 7.72915372 -1 4 C-0.6875 1.6875 -0.6875 1.6875 0 0 Z " fill="#DCAD49" transform="translate(401,539)"/>
<path d="M0 0 C4.12751449 0.60698743 7.3321148 2.03810791 11 4 C11 4.66 11 5.32 11 6 C11.99 6.33 12.98 6.66 14 7 C13.01 7.495 13.01 7.495 12 8 C9.1796875 6.6015625 9.1796875 6.6015625 5.875 4.625 C4.77929688 3.97789062 3.68359375 3.33078125 2.5546875 2.6640625 C1.71164062 2.11492187 0.86859375 1.56578125 0 1 C0 0.67 0 0.34 0 0 Z " fill="#402D0B" transform="translate(673,347)"/>
<path d="M0 0 C0.99 0.33 1.98 0.66 3 1 C-2.10703423 5.66928844 -6.61842957 5.35199549 -13.3671875 5.140625 C-14.67042969 5.07101562 -14.67042969 5.07101562 -16 5 C-16 4.67 -16 4.34 -16 4 C-14.89591797 3.94392578 -14.89591797 3.94392578 -13.76953125 3.88671875 C-8.31816521 3.51945367 -4.59428799 3.158573 0 0 Z " fill="#E6B54D" transform="translate(548,713)"/>
<path d="M0 0 C0.99 0 1.98 0 3 0 C4.640625 1.86328125 4.640625 1.86328125 6.25 4.3125 C7.06210937 5.51326172 7.06210937 5.51326172 7.890625 6.73828125 C9 9 9 9 8 12 C6.66382103 10.18959679 5.33112616 8.3766216 4 6.5625 C3.2575 5.55316406 2.515 4.54382813 1.75 3.50390625 C0 1 0 1 0 0 Z " fill="#D9A945" transform="translate(376,630)"/>
<path d="M0 0 C2.31 0.33 4.62 0.66 7 1 C7 1.66 7 2.32 7 3 C7.61875 3.144375 8.2375 3.28875 8.875 3.4375 C11 4 11 4 13 5 C13 5.66 13 6.32 13 7 C8.1725201 5.58707905 4.2837641 3.57025846 0 1 C0 0.67 0 0.34 0 0 Z " fill="#402F0E" transform="translate(499,596)"/>
<path d="M0 0 C5.46154338 1.15532648 7.87075778 2.3640856 11 7 C11.66 7.66 12.32 8.32 13 9 C9.02348017 9 7.85083826 7.55718178 4.8125 5.0625 C3.91144531 4.33160156 3.01039063 3.60070312 2.08203125 2.84765625 C1.39496094 2.23792969 0.70789063 1.62820313 0 1 C0 0.67 0 0.34 0 0 Z " fill="#47330D" transform="translate(687,355)"/>
<path d="M0 0 C0 3 0 3 -1 6 C-1.66 6 -2.32 6 -3 6 C-3.268125 6.598125 -3.53625 7.19625 -3.8125 7.8125 C-4.98493467 9.97224808 -6.19369282 11.35790256 -8 13 C-8.66 12.67 -9.32 12.34 -10 12 C-9.236875 11.278125 -8.47375 10.55625 -7.6875 9.8125 C-5.27636338 7.28921749 -3.70779581 5.00897358 -2 2 C-1.34 1.34 -0.68 0.68 0 0 Z " fill="#322712" transform="translate(570,696)"/>
<path d="M0 0 C1.79398267 0.95399078 3.58511655 1.91334026 5.375 2.875 C6.37273437 3.40867187 7.37046875 3.94234375 8.3984375 4.4921875 C11 6 11 6 13 8 C7.64147506 7.60791281 3.85831875 5.6642613 0 2 C0 1.34 0 0.68 0 0 Z " fill="#E0AF4A" transform="translate(442,656)"/>
<path d="M0 0 C3.19624262 1.53837846 6.21605574 3.28866532 9.25 5.125 C10.14203125 5.66382813 11.0340625 6.20265625 11.953125 6.7578125 C12.96632813 7.37269531 12.96632813 7.37269531 14 8 C13.34 8.66 12.68 9.32 12 10 C9.99426318 8.71656721 7.99563881 7.4239631 6 6.125 C5.42765625 5.76019531 4.8553125 5.39539063 4.265625 5.01953125 C2.80818084 4.06525233 1.39962775 3.03722413 0 2 C0 1.34 0 0.68 0 0 Z " fill="#402D0A" transform="translate(459,606)"/>
<path d="M0 0 C-5.65275661 3.80946641 -10.22613615 4.72740991 -17 5 C-13.86875441 3.36017707 -10.6857317 2.04844701 -7.375 0.8125 C-6.41335938 0.44769531 -5.45171875 0.08289063 -4.4609375 -0.29296875 C-2 -1 -2 -1 0 0 Z " fill="#4A320A" transform="translate(678,546)"/>
<path d="M0 0 C4.04161955 1.34484714 6.38678154 3.0505162 9.3125 6.125 C10.00988281 6.84945312 10.70726562 7.57390625 11.42578125 8.3203125 C11.94527344 8.87460937 12.46476562 9.42890625 13 10 C8.87731395 10 7.79669528 8.32277298 4.8125 5.5625 C3.91144531 4.73878906 3.01039063 3.91507813 2.08203125 3.06640625 C1.39496094 2.38449219 0.70789063 1.70257812 0 1 C0 0.67 0 0.34 0 0 Z " fill="#DAAB4B" transform="translate(484,528)"/>
<path d="M0 0 C0 0.99 0 1.98 0 3 C-8.42857143 6.28571429 -8.42857143 6.28571429 -13 7 C-4.79310345 0 -4.79310345 0 0 0 Z " fill="#D6A746" transform="translate(581,345)"/>
<path d="M0 0 C7.48291572 6.15034169 7.48291572 6.15034169 10 10 C8.68 10 7.36 10 6 10 C5.34 8.35 4.68 6.7 4 5 C3.34 5 2.68 5 2 5 C1.34 3.35 0.68 1.7 0 0 Z " fill="#DCAF49" transform="translate(443,552)"/>
<path d="M0 0 C8.44646925 6.15034169 8.44646925 6.15034169 12 10 C9.21788056 9.62403791 7.4120716 9.32681541 5.1875 7.5625 C4 6 4 6 4 4 C2.68 3.34 1.36 2.68 0 2 C0 1.34 0 0.68 0 0 Z " fill="#3F2C0B" transform="translate(492,536)"/>
<path d="M0 0 C0.99 0 1.98 0 3 0 C3.66 2.31 4.32 4.62 5 7 C5.66 7 6.32 7 7 7 C7 8.65 7 10.3 7 12 C0 3.55172414 0 3.55172414 0 0 Z " fill="#DAA943" transform="translate(536,494)"/>
<path d="M0 0 C0.66 0 1.32 0 2 0 C4.75702189 4.79482068 5.53328373 8.58609132 6 14 C3.74402173 11.74402173 3.03425808 9.95396133 1.875 7 C1.52179687 6.113125 1.16859375 5.22625 0.8046875 4.3125 C0 2 0 2 0 0 Z " fill="#46330E" transform="translate(616,443)"/>
<path d="M0 0 C0.33 0.66 0.66 1.32 1 2 C-0.5224249 5.57769851 -2.02930459 8.45368965 -5 11 C-5.66 10.67 -6.32 10.34 -7 10 C-4.75421558 6.59260295 -2.48862878 3.23521742 0 0 Z " fill="#352811" transform="translate(476,760)"/>
<path d="M0 0 C3.96 1.98 7.92 3.96 12 6 C12 6.33 12 6.66 12 7 C7.33174173 7.70731186 4.96719769 5.92277529 1.35546875 3.2890625 C0.90816406 2.86367188 0.46085937 2.43828125 0 2 C0 1.34 0 0.68 0 0 Z " fill="#DBAB47" transform="translate(494,594)"/>
<path d="M0 0 C4.20390632 1.50139512 5.89110738 4.17275043 8 8 C7.67 8.99 7.34 9.98 7 11 C5.82750647 9.54634731 4.66216184 8.08692581 3.5 6.625 C2.52546875 5.40683594 2.52546875 5.40683594 1.53125 4.1640625 C0 2 0 2 0 0 Z " fill="#DDAF48" transform="translate(409,555)"/>
<path d="M0 0 C0.99 0 1.98 0 3 0 C4.40113616 1.95309888 5.73339467 3.95708818 7 6 C7.66 6.66 8.32 7.32 9 8 C8.67 8.99 8.34 9.98 8 11 C6.66375099 9.35653302 5.33107149 7.71016314 4 6.0625 C3.2575 5.14597656 2.515 4.22945312 1.75 3.28515625 C0 1 0 1 0 0 Z " fill="#422F0B" transform="translate(528,519)"/>
<path d="M0 0 C4 5 4 5 8 10 C4.9054129 9.6684371 3.97195314 8.97117406 1.75 6.6875 C0 4 0 4 0 0 Z " fill="#DCAF48" transform="translate(723,442)"/>
<path d="M0 0 C1.77007714 -0.08114106 3.54122098 -0.13925505 5.3125 -0.1875 C6.29863281 -0.22230469 7.28476562 -0.25710938 8.30078125 -0.29296875 C11 0 11 0 12.85546875 1.51171875 C13.23316406 2.00285156 13.61085938 2.49398438 14 3 C4.58997722 2.03644647 4.58997722 2.03644647 0 1 C0 0.67 0 0.34 0 0 Z " fill="#4A340C" transform="translate(638,337)"/>
<path d="M0 0 C2.64 0.33 5.28 0.66 8 1 C8 1.66 8 2.32 8 3 C9.65 3 11.3 3 13 3 C13 3.33 13 3.66 13 4 C5.25 4.125 5.25 4.125 3 3 C3 2.34 3 1.68 3 1 C2.01 0.67 1.02 0.34 0 0 Z " fill="#4B391A" transform="translate(510,715)"/>
<path d="M0 0 C1.79206547 0.14084796 3.58364917 0.28783701 5.375 0.4375 C6.87160156 0.55931641 6.87160156 0.55931641 8.3984375 0.68359375 C11 1 11 1 13 2 C13 2.66 13 3.32 13 4 C8.61667943 3.17812739 4.32059823 2.09845718 0 1 C0 0.67 0 0.34 0 0 Z " fill="#41300F" transform="translate(591,587)"/>
<path d="M0 0 C4.55015893 1.51671964 6.50057264 5.16891053 9 9 C5.18063472 7.44396229 2.73955562 5.04395069 0 2 C0 1.34 0 0.68 0 0 Z " fill="#48350D" transform="translate(639,400)"/>
<path d="M0 0 C3.86648272 1.04097612 7.49461443 2.03698408 11 4 C11 4.66 11 5.32 11 6 C6.95743617 4.77782954 3.50711041 3.37245704 0 1 C0 0.67 0 0.34 0 0 Z " fill="#43300C" transform="translate(457,664)"/>
<path d="M0 0 C0.33 0.66 0.66 1.32 1 2 C-0.41840259 4.83680518 -2.18641385 5.62592304 -5 7 C-6.32 6.67 -7.64 6.34 -9 6 C-6.03 4.02 -3.06 2.04 0 0 Z " fill="#402E0B" transform="translate(693,535)"/>
<path d="M0 0 C1.43861294 0.08746284 2.87597508 0.19565348 4.3125 0.3125 C5.11300781 0.37050781 5.91351562 0.42851562 6.73828125 0.48828125 C9.36272334 1.08206694 10.30820672 1.95780294 12 4 C7.6822542 3.49202991 3.96697886 2.80317221 0 1 C0 0.67 0 0.34 0 0 Z " fill="#4D350B" transform="translate(674,509)"/>
<path d="M0 0 C0.33 0 0.66 0 1 0 C0.67 2.31 0.34 4.62 0 7 C-0.99 7.33 -1.98 7.66 -3 8 C-3.33 8.99 -3.66 9.98 -4 11 C-4.33 10.34 -4.66 9.68 -5 9 C-4.00390625 6.8359375 -4.00390625 6.8359375 -2.5625 4.375 C-2.08941406 3.55773437 -1.61632812 2.74046875 -1.12890625 1.8984375 C-0.75636719 1.27195312 -0.38382813 0.64546875 0 0 Z " fill="#41300D" transform="translate(727,496)"/>
<path d="M0 0 C0 3 0 3 -1 6 C-3.4375 7.75 -3.4375 7.75 -6 9 C-6.66 8.67 -7.32 8.34 -8 8 C-5.36 5.36 -2.72 2.72 0 0 Z " fill="#D1A645" transform="translate(549,365)"/>
<path d="M0 0 C4.06815373 1.84916079 7.0094833 3.66442368 10 7 C6.12697862 5.85569823 2.99736561 4.76679902 0 2 C0 1.34 0 0.68 0 0 Z " fill="#DFB04B" transform="translate(682,353)"/>
<path d="M0 0 C1.98 0 3.96 0 6 0 C6 0.99 6 1.98 6 3 C5.01 3 4.02 3 3 3 C2.67 3.99 2.34 4.98 2 6 C0 3 0 3 0 0 Z " fill="#382D16" transform="translate(434,747)"/>
<path d="M0 0 C2.97 0.99 5.94 1.98 9 3 C8.67 3.66 8.34 4.32 8 5 C5.03 4.01 2.06 3.02 -1 2 C-0.67 1.34 -0.34 0.68 0 0 Z " fill="#453310" transform="translate(494,679)"/>
<path d="M0 0 C3.7910119 1.44950455 7.3874638 3.15172566 11 5 C9.4375 5.75 9.4375 5.75 7 6 C4.49713591 4.86915563 2.32992278 3.47860484 0 2 C0 1.34 0 0.68 0 0 Z " fill="#D5A845" transform="translate(455,664)"/>
<path d="M0 0 C2.88437779 1.29299694 4.87219421 2.65941363 7 5 C6.67 5.99 6.34 6.98 6 8 C4.99403703 7.0479279 3.99538437 6.08812654 3 5.125 C2.443125 4.59132813 1.88625 4.05765625 1.3125 3.5078125 C0 2 0 2 0 0 Z " fill="#D4A746" transform="translate(392,650)"/>
<path d="M0 0 C0.33 0 0.66 0 1 0 C1.29036649 3.38115651 1.44908891 6.62919149 1 10 C-1.5 12.625 -1.5 12.625 -4 14 C-4 13.01 -4 12.02 -4 11 C-3.01 10.34 -2.02 9.68 -1 9 C-0.42006301 6.80545319 -0.42006301 6.80545319 -0.3125 4.375 C-0.24675781 3.55773437 -0.18101562 2.74046875 -0.11328125 1.8984375 C-0.07589844 1.27195312 -0.03851562 0.64546875 0 0 Z " fill="#37280C" transform="translate(721,491)"/>
<path d="M0 0 C0 3 0 3 -2.5 5.6875 C-3.325 6.450625 -4.15 7.21375 -5 8 C-5.66 7.67 -6.32 7.34 -7 7 C-2.25 1.125 -2.25 1.125 0 0 Z " fill="#A6BDC9" transform="translate(405,287)"/>
<path d="M0 0 C0.66 0 1.32 0 2 0 C2 0.66 2 1.32 2 2 C3.32 2.33 4.64 2.66 6 3 C6.33 4.65 6.66 6.3 7 8 C1.125 3.375 1.125 3.375 0 0 Z " fill="#E0AF46" transform="translate(385,642)"/>
<path d="M0 0 C0.33 0 0.66 0 1 0 C3.42857143 7.42857143 3.42857143 7.42857143 2 11 C-1.07692308 4.6 -1.07692308 4.6 -0.6875 1.5625 C-0.460625 1.046875 -0.23375 0.53125 0 0 Z " fill="#45340F" transform="translate(524,463)"/>
<path d="M0 0 C2.31 0 4.62 0 7 0 C7.33 1.32 7.66 2.64 8 4 C2.25 2.25 2.25 2.25 0 0 Z " fill="#43320E" transform="translate(516,605)"/>
<path d="M0 0 C0.66 0.33 1.32 0.66 2 1 C0.875 2.9375 0.875 2.9375 -1 5 C-4.1875 5.75 -4.1875 5.75 -7 6 C-4.74259377 3.66475218 -2.7194239 1.81294927 0 0 Z " fill="#D8AD46" transform="translate(566,352)"/>
<path d="M0 0 C0.99 0 1.98 0 3 0 C5.25 2.3125 5.25 2.3125 7 5 C6.67 5.99 6.34 6.98 6 8 C4.02 5.36 2.04 2.72 0 0 Z " fill="#43310C" transform="translate(393,611)"/>
<path d="M0 0 C3.99996286 1.33332095 4.83782337 3.4957827 7 7 C6.01 7 5.02 7 4 7 C2.02 3.535 2.02 3.535 0 0 Z " fill="#43310B" transform="translate(622,457)"/>
</svg>
