<?xml version="1.0" encoding="UTF-8"?>
<svg version="1.1" xmlns="http://www.w3.org/2000/svg" width="1024" height="1024">
<path d="M0 0 C2.51718801 1.92251252 4.84085515 3.94044335 7.1640625 6.09375 C7.6688916 6.55765137 8.1737207 7.02155273 8.69384766 7.49951172 C16.72476877 14.95390275 23.49737569 22.66479715 29.1640625 32.09375 C29.72818848 33.02864258 29.72818848 33.02864258 30.30371094 33.98242188 C36.75474407 44.89456342 40.90373874 56.20960209 44.55078125 68.32226562 C45.02024333 70.09555413 45.02024333 70.09555413 46.1640625 71.09375 C48.47891685 71.68030815 48.47891685 71.68030815 51.1640625 71.09375 C53.16878106 69.1279871 54.78317986 67.29958385 56.4765625 65.09375 C57.45341825 63.88744788 58.4325876 62.68301562 59.4140625 61.48046875 C59.88714844 60.89442871 60.36023438 60.30838867 60.84765625 59.70458984 C67.45315682 51.62167204 75.57440394 45.87206204 84.1640625 40.09375 C84.99808594 39.52527344 85.83210938 38.95679688 86.69140625 38.37109375 C105.5438616 26.28618647 128.91088375 20.99701146 151.1640625 22.09375 C152.19144531 22.12339844 153.21882812 22.15304688 154.27734375 22.18359375 C174.39549776 23.11773227 196.21579039 28.80301149 210.6171875 43.6171875 C218.38629027 52.96888527 222.18391848 61.83623568 221.1640625 74.09375 C219.58981085 84.10252427 215.16666463 91.15420108 207.2265625 97.40625 C200.68294656 101.98042813 194.37268424 105.21829344 186.2890625 105.28125 C185.46664062 105.29542969 184.64421875 105.30960937 183.796875 105.32421875 C176.04123439 104.64531252 168.97325897 100.16198479 162.12695312 96.7265625 C148.73848219 90.18237859 136.42647278 89.44740393 122.1640625 94.09375 C118.35455498 95.88030902 114.74016641 97.87928886 111.1640625 100.09375 C112.66836832 103.88831918 114.81577894 105.59743734 118.0390625 108.03125 C143.20364274 128.20884694 160.09089995 158.87159935 167.1640625 190.09375 C167.42630615 191.18768066 167.42630615 191.18768066 167.69384766 192.30371094 C169.65392288 201.53842777 169.64724406 210.81888068 169.6640625 220.21875 C169.66674133 221.1030368 169.66942017 221.98732361 169.67218018 222.89840698 C169.662264 238.02997258 168.08567907 251.6816735 163.1640625 266.09375 C162.91849609 266.83254395 162.67292969 267.57133789 162.41992188 268.33251953 C160.92335718 272.71811374 159.15306602 276.90332512 157.1640625 281.09375 C156.88369141 281.68736328 156.60332031 282.28097656 156.31445312 282.89257812 C149.34421164 297.40237441 139.7398147 313.22335917 127.2265625 323.59375 C124.69481254 325.7327238 122.39534603 327.89691166 120.1640625 330.34375 C101.53066338 349.10305046 70.51157822 363.60772392 44.1015625 364.71875 C43.33134766 364.75742187 42.56113281 364.79609375 41.76757812 364.8359375 C39.90006773 364.92873305 38.03209998 365.01225124 36.1640625 365.09375 C36.19342896 366.36496704 36.19342896 366.36496704 36.22338867 367.66186523 C36.33570148 376.30995115 35.71701071 384.60292012 34.4765625 393.15625 C34.20646362 395.0441626 34.20646362 395.0441626 33.9309082 396.97021484 C26.85775004 444.47307375 4.55843543 489.27174414 -34.28125 518.75390625 C-49.8590958 530.26039183 -67.45063129 540.3360508 -86.6484375 543.96875 C-92.34362264 545.23114428 -94.95609303 546.53160296 -98.3984375 551.28125 C-99.56930609 553.20372419 -100.71629037 555.14100051 -101.8359375 557.09375 C-109.08397548 567.41972192 -117.39057803 574.7067113 -128.8359375 580.09375 C-129.52945312 580.43535156 -130.22296875 580.77695312 -130.9375 581.12890625 C-141.02004436 585.31374609 -154.15349755 584.24085777 -164.1328125 580.35546875 C-168.6146788 578.26349936 -172.75414418 575.88512613 -176.8359375 573.09375 C-177.53847656 572.61550781 -178.24101562 572.13726563 -178.96484375 571.64453125 C-198.64232163 557.25786694 -212.59691801 536.7447118 -223.296875 515.14453125 C-226.12998819 509.53562218 -229.44678843 505.0233221 -233.5859375 500.34375 C-257.95448107 472.76872007 -273.13113904 434.99498363 -273.8359375 398.09375 C-273.87460937 397.05605469 -273.91328125 396.01835938 -273.953125 394.94921875 C-274.6763216 360.43667009 -265.40207018 324.3234779 -245.5703125 295.74609375 C-244.03832748 293.4032608 -243.25609777 291.82479177 -242.8359375 289.09375 C-243.6403125 289.07957031 -244.4446875 289.06539062 -245.2734375 289.05078125 C-253.7570327 288.7066003 -261.83677705 287.46104139 -270.1484375 285.71875 C-271.14939453 285.50968018 -272.15035156 285.30061035 -273.18164062 285.08520508 C-320.96412455 274.73838664 -364.68584911 244.51471131 -391.18359375 203.40625 C-406.23677117 179.34819765 -418.97635939 149.77787634 -412.7734375 120.84375 C-407.31530693 102.39373118 -395.58808709 89.10241841 -378.7734375 79.90625 C-341.90841574 60.71817329 -298.66770995 62.90661462 -259.11425781 70.73095703 C-256.56206965 71.19858719 -256.56206965 71.19858719 -252.8359375 71.09375 C-252.7534375 69.85625 -252.6709375 68.61875 -252.5859375 67.34375 C-250.7556944 51.3479267 -242.86229366 38.42090906 -230.8359375 28.09375 C-216.58559225 17.10388374 -199.09300884 16.56587908 -181.8359375 18.09375 C-174.97262143 19.09284782 -168.41994103 20.95343925 -161.8359375 23.09375 C-161.17432617 23.29709961 -160.51271484 23.50044922 -159.83105469 23.70996094 C-140.60296911 29.69968171 -122.05328088 40.25620777 -105.8359375 52.09375 C-104.86503174 52.79516113 -104.86503174 52.79516113 -103.87451172 53.51074219 C-75.03309326 74.42990633 -75.03309326 74.42990633 -64.87109375 86.41015625 C-62.9719579 88.355465 -62.9719579 88.355465 -60.46875 88.0390625 C-57.37605095 86.92862753 -54.60678982 85.5248345 -51.7109375 83.96875 C-43.09043887 79.46414245 -33.99783252 76.30725049 -24.8359375 73.09375 C-27.24754088 66.39485171 -31.39135733 60.93766949 -37.8984375 57.78125 C-41.79806892 56.24139554 -45.7229779 55.49352711 -49.8359375 54.71875 C-56.35686086 53.41316147 -60.77577244 51.36610493 -65.8359375 47.09375 C-66.47144531 46.57941406 -67.10695313 46.06507813 -67.76171875 45.53515625 C-73.75887682 40.18009219 -76.65033426 33.36192167 -78.7734375 25.71875 C-78.96891094 14.38129072 -76.45167308 3.92090097 -68.7734375 -4.65625 C-48.31353362 -23.67404612 -20.2000724 -13.5780101 0 0 Z " fill="#292728" transform="translate(608.8359375,227.90625)"/>
<path d="M0 0 C2.51718801 1.92251252 4.84085515 3.94044335 7.1640625 6.09375 C7.6688916 6.55765137 8.1737207 7.02155273 8.69384766 7.49951172 C16.72476877 14.95390275 23.49737569 22.66479715 29.1640625 32.09375 C29.72818848 33.02864258 29.72818848 33.02864258 30.30371094 33.98242188 C36.75474407 44.89456342 40.90373874 56.20960209 44.55078125 68.32226562 C45.02024333 70.09555413 45.02024333 70.09555413 46.1640625 71.09375 C48.47891685 71.68030815 48.47891685 71.68030815 51.1640625 71.09375 C53.16878106 69.1279871 54.78317986 67.29958385 56.4765625 65.09375 C57.45341825 63.88744788 58.4325876 62.68301562 59.4140625 61.48046875 C59.88714844 60.89442871 60.36023438 60.30838867 60.84765625 59.70458984 C67.45315682 51.62167204 75.57440394 45.87206204 84.1640625 40.09375 C84.99808594 39.52527344 85.83210938 38.95679688 86.69140625 38.37109375 C105.5438616 26.28618647 128.91088375 20.99701146 151.1640625 22.09375 C152.19144531 22.12339844 153.21882812 22.15304688 154.27734375 22.18359375 C174.39549776 23.11773227 196.21579039 28.80301149 210.6171875 43.6171875 C218.38629027 52.96888527 222.18391848 61.83623568 221.1640625 74.09375 C219.58981085 84.10252427 215.16666463 91.15420108 207.2265625 97.40625 C200.68294656 101.98042813 194.37268424 105.21829344 186.2890625 105.28125 C185.46664062 105.29542969 184.64421875 105.30960937 183.796875 105.32421875 C176.04123439 104.64531252 168.97325897 100.16198479 162.12695312 96.7265625 C148.73848219 90.18237859 136.42647278 89.44740393 122.1640625 94.09375 C118.35455498 95.88030902 114.74016641 97.87928886 111.1640625 100.09375 C112.66836832 103.88831918 114.81577894 105.59743734 118.0390625 108.03125 C143.20364274 128.20884694 160.09089995 158.87159935 167.1640625 190.09375 C167.42630615 191.18768066 167.42630615 191.18768066 167.69384766 192.30371094 C169.65392288 201.53842777 169.64724406 210.81888068 169.6640625 220.21875 C169.66674133 221.1030368 169.66942017 221.98732361 169.67218018 222.89840698 C169.662264 238.02997258 168.08567907 251.6816735 163.1640625 266.09375 C162.91849609 266.83254395 162.67292969 267.57133789 162.41992188 268.33251953 C160.92335718 272.71811374 159.15306602 276.90332512 157.1640625 281.09375 C156.88369141 281.68736328 156.60332031 282.28097656 156.31445312 282.89257812 C149.34421164 297.40237441 139.7398147 313.22335917 127.2265625 323.59375 C124.69481254 325.7327238 122.39534603 327.89691166 120.1640625 330.34375 C101.53066338 349.10305046 70.51157822 363.60772392 44.1015625 364.71875 C43.33134766 364.75742187 42.56113281 364.79609375 41.76757812 364.8359375 C39.90006773 364.92873305 38.03209998 365.01225124 36.1640625 365.09375 C36.19342896 366.36496704 36.19342896 366.36496704 36.22338867 367.66186523 C36.33570148 376.30995115 35.71701071 384.60292012 34.4765625 393.15625 C34.20646362 395.0441626 34.20646362 395.0441626 33.9309082 396.97021484 C26.85775004 444.47307375 4.55843543 489.27174414 -34.28125 518.75390625 C-49.8590958 530.26039183 -67.45063129 540.3360508 -86.6484375 543.96875 C-92.34362264 545.23114428 -94.95609303 546.53160296 -98.3984375 551.28125 C-99.56930609 553.20372419 -100.71629037 555.14100051 -101.8359375 557.09375 C-109.08397548 567.41972192 -117.39057803 574.7067113 -128.8359375 580.09375 C-129.52945312 580.43535156 -130.22296875 580.77695312 -130.9375 581.12890625 C-141.02004436 585.31374609 -154.15349755 584.24085777 -164.1328125 580.35546875 C-168.6146788 578.26349936 -172.75414418 575.88512613 -176.8359375 573.09375 C-177.53847656 572.61550781 -178.24101562 572.13726563 -178.96484375 571.64453125 C-198.64232163 557.25786694 -212.59691801 536.7447118 -223.296875 515.14453125 C-226.12998819 509.53562218 -229.44678843 505.0233221 -233.5859375 500.34375 C-257.95448107 472.76872007 -273.13113904 434.99498363 -273.8359375 398.09375 C-273.87460937 397.05605469 -273.91328125 396.01835938 -273.953125 394.94921875 C-274.6763216 360.43667009 -265.40207018 324.3234779 -245.5703125 295.74609375 C-244.03832748 293.4032608 -243.25609777 291.82479177 -242.8359375 289.09375 C-243.6403125 289.07957031 -244.4446875 289.06539062 -245.2734375 289.05078125 C-253.7570327 288.7066003 -261.83677705 287.46104139 -270.1484375 285.71875 C-271.14939453 285.50968018 -272.15035156 285.30061035 -273.18164062 285.08520508 C-320.96412455 274.73838664 -364.68584911 244.51471131 -391.18359375 203.40625 C-406.23677117 179.34819765 -418.97635939 149.77787634 -412.7734375 120.84375 C-407.31530693 102.39373118 -395.58808709 89.10241841 -378.7734375 79.90625 C-341.90841574 60.71817329 -298.66770995 62.90661462 -259.11425781 70.73095703 C-256.56206965 71.19858719 -256.56206965 71.19858719 -252.8359375 71.09375 C-252.7534375 69.85625 -252.6709375 68.61875 -252.5859375 67.34375 C-250.7556944 51.3479267 -242.86229366 38.42090906 -230.8359375 28.09375 C-216.58559225 17.10388374 -199.09300884 16.56587908 -181.8359375 18.09375 C-174.97262143 19.09284782 -168.41994103 20.95343925 -161.8359375 23.09375 C-161.17432617 23.29709961 -160.51271484 23.50044922 -159.83105469 23.70996094 C-140.60296911 29.69968171 -122.05328088 40.25620777 -105.8359375 52.09375 C-104.86503174 52.79516113 -104.86503174 52.79516113 -103.87451172 53.51074219 C-75.03309326 74.42990633 -75.03309326 74.42990633 -64.87109375 86.41015625 C-62.9719579 88.355465 -62.9719579 88.355465 -60.46875 88.0390625 C-57.37605095 86.92862753 -54.60678982 85.5248345 -51.7109375 83.96875 C-43.09043887 79.46414245 -33.99783252 76.30725049 -24.8359375 73.09375 C-27.24754088 66.39485171 -31.39135733 60.93766949 -37.8984375 57.78125 C-41.79806892 56.24139554 -45.7229779 55.49352711 -49.8359375 54.71875 C-56.35686086 53.41316147 -60.77577244 51.36610493 -65.8359375 47.09375 C-66.47144531 46.57941406 -67.10695313 46.06507813 -67.76171875 45.53515625 C-73.75887682 40.18009219 -76.65033426 33.36192167 -78.7734375 25.71875 C-78.96891094 14.38129072 -76.45167308 3.92090097 -68.7734375 -4.65625 C-48.31353362 -23.67404612 -20.2000724 -13.5780101 0 0 Z M-57.8984375 13.90625 C-59.1810596 18.26716513 -59.21000266 21.74506026 -57.8359375 26.09375 C-55.29295535 30.21244501 -52.38223273 33.2939971 -47.8359375 35.09375 C-45.6516004 35.32630026 -45.6516004 35.32630026 -43.3359375 35.34375 C-31.06559177 36.42483773 -20.37110823 44.92978388 -12.39453125 53.8125 C-4.12182382 64.2268728 1.32828952 76.103209 4.1640625 89.09375 C3.11089844 89.19171875 2.05773437 89.2896875 0.97265625 89.390625 C-22.75743786 91.77416634 -44.77808763 99.57348343 -63.8359375 114.09375 C-69.24149793 109.60090855 -74.17346533 104.80303695 -79.0859375 99.78125 C-85.37295784 93.43756553 -91.73102291 87.52243809 -98.8359375 82.09375 C-100.12057107 81.08171772 -101.4043592 80.06861177 -102.6875 79.0546875 C-122.5784522 63.4511762 -143.75973706 50.15272923 -167.8359375 42.09375 C-168.92390625 41.68125 -170.011875 41.26875 -171.1328125 40.84375 C-183.6904043 36.51768967 -201.38852243 35.08167765 -213.6875 40.7734375 C-223.73132101 46.94582205 -229.92684003 55.78217005 -233.15234375 67.078125 C-235.2104851 77.11451366 -234.89176706 89.08202721 -232.8359375 99.09375 C-241.8359375 96.09375 -241.8359375 96.09375 -243.74316406 95.40673828 C-249.96705751 93.21757702 -256.23914328 91.84205301 -262.7109375 90.59375 C-263.81663086 90.38016846 -264.92232422 90.16658691 -266.06152344 89.9465332 C-268.29190933 89.51990819 -270.52302252 89.09706603 -272.75488281 88.67822266 C-275.39925528 88.17658813 -278.03526949 87.64592237 -280.671875 87.10546875 C-310.38165572 81.34224748 -347.79147982 83.07958791 -373.8359375 100.09375 C-383.33310443 106.68757106 -390.87920966 114.63988373 -393.8359375 126.09375 C-394.86436901 136.59817677 -394.26152921 147.09736137 -390.8359375 157.09375 C-390.61019043 157.78404297 -390.38444336 158.47433594 -390.15185547 159.18554688 C-382.67891431 181.86936826 -370.35484806 200.86940554 -353.8359375 218.09375 C-352.68738281 219.31964844 -352.68738281 219.31964844 -351.515625 220.5703125 C-335.94507596 236.74165443 -316.38781868 248.36348724 -295.8359375 257.09375 C-294.85874756 257.50898926 -294.85874756 257.50898926 -293.86181641 257.93261719 C-268.03689036 268.68813776 -240.32037008 271.65754847 -212.5859375 272.65625 C-211.44769531 272.69943359 -210.30945313 272.74261719 -209.13671875 272.78710938 C-206.36987254 272.89173801 -203.60296024 272.9939189 -200.8359375 273.09375 C-201.64675781 273.86976563 -202.45757812 274.64578125 -203.29296875 275.4453125 C-225.15814176 296.64901251 -240.38151875 321.83097503 -248.8359375 351.09375 C-249.17625 352.07472656 -249.5165625 353.05570313 -249.8671875 354.06640625 C-261.26575797 389.68693896 -252.33647719 430.84929328 -235.72558594 463.26025391 C-229.73056513 474.36264393 -222.21524054 485.53376226 -212.6484375 493.84375 C-208.13506081 498.11861491 -206.25491456 503.46747428 -203.90551758 509.09863281 C-199.03387333 520.64640964 -191.95596693 530.57317286 -183.8359375 540.09375 C-183.15015625 540.92519531 -182.464375 541.75664063 -181.7578125 542.61328125 C-173.86290559 551.85713808 -163.31101457 561.95721929 -150.7421875 563.46484375 C-141.26840511 563.83007134 -133.88968174 561.91142475 -126.5859375 555.78125 C-125.31608935 554.57259936 -124.06487875 553.34397162 -122.8359375 552.09375 C-122.30226563 551.57039062 -121.76859375 551.04703125 -121.21875 550.5078125 C-115.51814473 544.45276545 -111.11857003 536.33277777 -109.8359375 528.09375 C-109.22935303 528.05056641 -108.62276855 528.00738281 -107.99780273 527.96289062 C-85.77824596 526.10111936 -64.39217491 516.59673528 -46.8359375 503.09375 C-45.90652344 502.38605469 -44.97710938 501.67835938 -44.01953125 500.94921875 C-15.27798691 478.25852585 4.73723582 444.90921842 11.60961914 408.92431641 C12.01779773 406.84046677 12.47174526 404.76545403 12.95092773 402.69677734 C15.49762719 390.96294009 15.51057859 379.56096127 15.3515625 367.59375 C15.33647255 365.59506229 15.32279185 363.59636342 15.31054688 361.59765625 C15.27791932 356.76273874 15.22638081 351.9283722 15.1640625 347.09375 C16.18274414 347.11187744 17.20142578 347.13000488 18.25097656 347.14868164 C26.61570991 347.25302753 34.64934542 346.98498339 42.9140625 345.53125 C43.92847412 345.35561523 44.94288574 345.17998047 45.98803711 344.99902344 C73.94588571 339.80101706 96.28602184 326.18852942 116.1640625 306.09375 C116.94265625 305.31257813 117.72125 304.53140625 118.5234375 303.7265625 C131.89984461 289.69444916 140.73568496 271.59958252 146.1640625 253.09375 C146.37804687 252.37832031 146.59203125 251.66289062 146.8125 250.92578125 C155.5728615 219.12186015 147.9562453 183.72874543 132.23046875 155.59765625 C125.80114199 144.47706708 117.25617131 135.08764158 108.1640625 126.09375 C107.39449219 125.32675781 106.62492187 124.55976563 105.83203125 123.76953125 C93.85763712 112.09393818 93.85763712 112.09393818 79.1640625 106.09375 C91.36195341 88.57314306 106.82738413 76.38236009 127.6640625 70.65625 C145.36312524 67.70640621 161.10549957 71.98683484 176.28100586 81.14624023 C181.19277977 84.00927226 184.4733145 84.59799349 190.1640625 84.09375 C194.83254808 82.53758814 197.61132806 80.18243596 200.23828125 76.109375 C201.96676692 72.34608974 202.09180415 69.10724106 201.1640625 65.09375 C197.02177535 55.67238262 189.30119078 51.25046002 180.1640625 47.40625 C156.686689 38.94347583 129.79585012 39.97984203 106.9765625 50.06005859 C97.39629571 54.57400032 88.96524237 59.87089103 81.1640625 67.09375 C79.90722656 68.21330078 79.90722656 68.21330078 78.625 69.35546875 C71.38378541 76.13710161 62.27979594 86.09135793 60.1640625 96.09375 C59.45386963 95.91199219 58.74367676 95.73023438 58.01196289 95.54296875 C54.75285169 94.71552738 51.48985164 93.90455044 48.2265625 93.09375 C47.10958984 92.80757813 45.99261719 92.52140625 44.84179688 92.2265625 C38.42947542 90.64698771 32.76703634 89.75764953 26.1640625 90.09375 C26.2105896 89.12767822 26.2105896 89.12767822 26.25805664 88.14208984 C26.54704739 81.03880298 25.16152664 74.87644345 23.1640625 68.09375 C22.78121094 66.69189453 22.78121094 66.69189453 22.390625 65.26171875 C18.25364917 51.38956587 10.96759152 38.70422449 1.1640625 28.09375 C0.47957031 27.31773437 -0.20492188 26.54171875 -0.91015625 25.7421875 C-11.70554755 14.12866119 -26.70917664 5.42690746 -42.7734375 4.40625 C-49.74245654 4.76976068 -53.90658609 8.46281627 -57.8984375 13.90625 Z " fill="#F8F8F7" transform="translate(608.8359375,227.90625)"/>
<path d="M0 0 C1.23927246 0.00563965 2.47854492 0.0112793 3.75537109 0.01708984 C13.27348135 0.14257335 22.24208313 0.82798208 31.4375 3.3125 C32.15518555 3.50585938 32.87287109 3.69921875 33.61230469 3.8984375 C49.41661867 8.33377551 64.14942887 15.30221789 76.4375 26.3125 C77.66146484 27.35857422 77.66146484 27.35857422 78.91015625 28.42578125 C83.51783348 32.43524382 87.90573288 36.64853191 92.125 41.0625 C92.97449219 41.94421875 93.82398438 42.8259375 94.69921875 43.734375 C96.4375 46.3125 96.4375 46.3125 96.26953125 49.015625 C95.4375 51.3125 95.4375 51.3125 94.4375 53.3125 C93.05529766 67.9096065 94.6751238 81.51288483 99.4375 95.3125 C100.04851562 97.09333984 100.04851562 97.09333984 100.671875 98.91015625 C102.89739464 104.74130672 105.41080865 110.38539739 110.4375 114.3125 C112.82747837 115.37738956 114.83552542 115.84414458 117.4375 116.3125 C118.68117768 139.52781676 108.26465848 161.34279202 94.4375 179.3125 C93.73882813 180.24320313 93.04015625 181.17390625 92.3203125 182.1328125 C91.69898438 182.85210938 91.07765625 183.57140625 90.4375 184.3125 C89.7775 184.3125 89.1175 184.3125 88.4375 184.3125 C88.4375 184.9725 88.4375 185.6325 88.4375 186.3125 C87.7775 186.3125 87.1175 186.3125 86.4375 186.3125 C86.4375 186.9725 86.4375 187.6325 86.4375 188.3125 C66.08415926 207.95970443 37.8695139 218.88908505 9.62890625 218.45703125 C-15.71661965 217.30919226 -38.13017353 208.61566971 -57.5625 192.3125 C-58.75939453 191.36117187 -58.75939453 191.36117187 -59.98046875 190.390625 C-77.59793452 175.7977507 -90.6122836 152.48447765 -95.5625 130.3125 C-96.04328127 125.12006229 -96.04328127 125.12006229 -94.5625 122.6328125 C-93.13672185 119.32456163 -93.22138583 116.10411724 -93.25 112.5625 C-93.25563965 111.84384766 -93.2612793 111.12519531 -93.26708984 110.38476562 C-93.44036999 102.82906516 -94.85651554 98.25124709 -99.8125 92.5 C-102.31924801 89.28061042 -102.98320834 87.27163582 -102.75 83.1875 C-98.85041316 58.63705761 -82.04150158 35.31260174 -62.41601562 20.62744141 C-50.46961774 12.15229665 -37.76205313 5.93281459 -23.5625 2.3125 C-22.81250732 2.12034912 -22.06251465 1.92819824 -21.28979492 1.73022461 C-14.20149931 0.10895403 -7.24969729 -0.0344989 0 0 Z " fill="#FAB82B" transform="translate(620.5625,336.6875)"/>
<path d="M0 0 C0.82608765 -0.00100708 1.65217529 -0.00201416 2.5032959 -0.00305176 C14.62707741 0.00695088 26.20699471 0.53883467 38.0625 3.25 C39.45013175 3.5331634 40.8381604 3.81438824 42.2265625 4.09375 C86.55391295 13.38545451 127.96830054 36.09957263 163.0625 64.25 C164.31740234 65.24386719 164.31740234 65.24386719 165.59765625 66.2578125 C173.0719879 72.25878668 180.12261785 78.64652148 187.0625 85.25 C187.86252441 86.00700195 187.86252441 86.00700195 188.67871094 86.77929688 C207.95889368 105.12675798 207.95889368 105.12675798 208.5625 114.875 C208.48606421 120.17199998 206.94046116 122.84059524 203.203125 126.51171875 C191.02289595 136.40259818 172.40947733 138.92431187 157.4375 142 C156.48673584 142.19851563 155.53597168 142.39703125 154.55639648 142.6015625 C137.87548174 145.87304406 121.1473371 146.66075701 104.1875 146.625 C103.20893036 146.62445618 102.23036072 146.62391235 101.22213745 146.62335205 C69.68291989 146.54318852 39.76449034 141.82377155 11.0625 128.25 C10.39138184 127.93305176 9.72026367 127.61610352 9.02880859 127.28955078 C-22.84962283 111.92769862 -49.17123276 83.88050493 -61.29296875 50.51953125 C-64.29317641 40.93403024 -67.71972462 29.51000539 -63.4375 19.875 C-62.6125 19.00875 -61.7875 18.1425 -60.9375 17.25 C-60.41285156 16.69054687 -59.88820312 16.13109375 -59.34765625 15.5546875 C-43.59388141 0.16727951 -20.55592514 0.0173761 0 0 Z " fill="#C9E4EC" transform="translate(299.9375,333.75)"/>
<path d="M0 0 C0.78697266 0.52787109 0.78697266 0.52787109 1.58984375 1.06640625 C27.09216787 17.31830332 57.97408321 20.85409906 87.4375 23.4375 C113.84917782 25.76488435 139.57936096 29.17358684 165 37 C165.7621582 37.23219238 166.52431641 37.46438477 167.30957031 37.70361328 C170.57035092 38.70151807 173.82160622 39.72496945 177.0703125 40.76171875 C203.56434084 49.1756373 230.41577053 55.49983589 258 59 C246.17909688 74.81979599 216.12292463 77.08070504 197.95581055 79.79541016 C188.36797952 81.16499244 178.88840476 82.15093848 169.19921875 82.23828125 C168.29279633 82.2480751 167.3863739 82.25786896 166.45248413 82.26795959 C130.55100419 82.57572159 96.8915916 79.55512161 64 64 C63.32888184 63.68305176 62.65776367 63.36610352 61.96630859 63.03955078 C36.62873347 50.8296626 9.03655339 28.07881978 -1 1 C-0.67 0.67 -0.34 0.34 0 0 Z " fill="#9ECBD6" transform="translate(247,398)"/>
<path d="M0 0 C17.85932197 8.18034775 34.00698362 19.47866653 49.10644531 31.96484375 C49.68346191 32.43889648 50.26047852 32.91294922 50.85498047 33.40136719 C57.59792299 38.96750171 64.07757575 44.75174195 70.29394531 50.90234375 C70.8347876 51.4339209 71.37562988 51.96549805 71.93286133 52.51318359 C74.84306309 55.44708331 77.1530628 58.31987225 79.10644531 61.96484375 C78.48898437 62.72925781 77.87152344 63.49367188 77.23535156 64.28125 C65.97704373 78.42526938 58.20392108 93.36856689 51.10644531 109.96484375 C47.0027129 106.48448184 42.9782357 102.94976378 39.04394531 99.27734375 C22.04323934 83.80115761 2.96192016 70.49022226 -16.89355469 58.96484375 C-17.64137207 58.53042969 -18.38918945 58.09601563 -19.15966797 57.6484375 C-25.89463456 53.76427343 -32.62032827 49.92765608 -39.73339844 46.7734375 C-40.51513428 46.42498779 -41.29687012 46.07653809 -42.10229492 45.7175293 C-43.58906166 45.06690053 -45.08448041 44.43556931 -46.58911133 43.82739258 C-49.97051029 42.35968508 -51.64714251 41.46588185 -53.29980469 38.10546875 C-53.49574219 37.0690625 -53.69167969 36.03265625 -53.89355469 34.96484375 C-54.09464844 34.06378906 -54.29574219 33.16273438 -54.50292969 32.234375 C-55.04457819 27.70077706 -55.11772372 23.214739 -55.14355469 18.65234375 C-55.16417969 17.75322266 -55.18480469 16.85410156 -55.20605469 15.92773438 C-55.24928204 8.4548055 -54.17691083 1.54013814 -49.45605469 -4.47265625 C-37.17140821 -16.75730272 -13.23751643 -5.89913484 0 0 Z " fill="#A2C2D3" transform="translate(449.8935546875,295.03515625)"/>
<path d="M0 0 C2.26683589 2.86337165 3.97053053 5.74911263 5.625 9 C9.12946524 15.50705645 13.4329947 21.20695301 18 27 C18.66515625 27.87140625 19.3303125 28.7428125 20.015625 29.640625 C31.42344124 44.18341364 44.96773797 56.32868238 60 67 C60.62197266 67.44537109 61.24394531 67.89074219 61.88476562 68.34960938 C97.24361478 93.45401248 138.99749449 107.30295201 182 111 C180.81072343 116.55579103 179.4992421 122.03687173 177.9375 127.5 C177.59589844 128.7065625 177.25429688 129.913125 176.90234375 131.15625 C176 134 176 134 175 135 C123.9944346 137.85578035 68.7492624 114.10795841 30 82 C29.44828125 81.54834473 28.8965625 81.09668945 28.328125 80.63134766 C12.59357564 67.70970337 -0.82595287 53.42758934 -12.9375 37.0625 C-13.41082764 36.42320557 -13.88415527 35.78391113 -14.37182617 35.12524414 C-20.12179048 27.24713452 -20.12179048 27.24713452 -19.8046875 24 C-16.21053502 15.06696084 -6.76748447 6.76748447 0 0 Z " fill="#F7B72D" transform="translate(420,517)"/>
<path d="M0 0 C3.24690077 3.02898796 5.61668523 6.23906234 8.0625 9.9375 C14.72103934 19.78606199 22.40963312 28.77955322 31 37 C31.78890625 37.79148437 32.5778125 38.58296875 33.390625 39.3984375 C58.17339135 64.10700395 89.03857395 80.81773664 122 92 C122.7434668 92.25861816 123.48693359 92.51723633 124.25292969 92.78369141 C145.95661292 100.23690771 169.20990904 102.71617825 192 104 C187.3976188 113.72465392 176.6892654 122.53852893 167 127 C161.35681079 128.18973619 155.68525568 127.57121515 150 127 C148.63680032 126.89734845 147.27351956 126.79576739 145.91015625 126.6953125 C95.39087634 122.35281963 43.10173961 95.52700728 10.27734375 56.7734375 C9.52582031 55.85820313 8.77429688 54.94296875 8 54 C7.52191895 53.47051758 7.04383789 52.94103516 6.55126953 52.39550781 C-1.83091917 43.01613225 -4.18859868 35.3363388 -3.77172852 22.75927734 C-3.29852698 14.99529003 -2.21084964 7.47477737 0 0 Z " fill="#F7B72D" transform="translate(378,591)"/>
<path d="M0 0 C3.14553572 1.57276786 3.43138879 4.77077553 4.5 7.9375 C16.30420139 40.84007967 41.54522527 66.7878334 72.81445312 81.87548828 C80.01918652 85.21779107 87.31831654 87.98223061 95 90 C95.77040851 96.06696699 96.09706112 101.88514973 96 108 C49.02884246 102.23626135 5.84547966 75.88408394 -28 44 C-28.83273437 43.23300781 -29.66546875 42.46601562 -30.5234375 41.67578125 C-35.93711403 36.51614456 -40.57438283 30.91635825 -45.125 25 C-45.70628662 24.24509277 -46.28757324 23.49018555 -46.88647461 22.71240234 C-51 17.25784662 -51 17.25784662 -51 15 C-48.5 14.375 -48.5 14.375 -46 13.75 C-44.89527344 13.4715625 -43.79054688 13.193125 -42.65234375 12.90625 C-40.23206893 12.30571122 -37.80751612 11.72213968 -35.37890625 11.15625 C-17.23147702 6.89385696 -17.23147702 6.89385696 0 0 Z " fill="#F8B72C" transform="translate(508,481)"/>
<path d="M0 0 C7.22253208 2.60223582 11.38396646 8.50877881 15 15 C21.30032582 28.60070337 24.73891969 44.04869125 20.82421875 58.90234375 C18.80845666 64.03250604 15.79256276 68.40122781 11.6875 72.0625 C6.97646225 73.70588526 2.62266369 73.95986582 -2.11328125 72.2265625 C-11.20142566 67.25014168 -15.91988087 57.49703397 -19 48 C-19.2990625 47.12085938 -19.598125 46.24171875 -19.90625 45.3359375 C-23.27258339 34.02131693 -24.08023977 20.23666971 -19.34765625 9.2109375 C-14.77590668 1.71061792 -8.54568267 -1.15038036 0 0 Z " fill="#2B2725" transform="translate(635,397)"/>
<path d="M0 0 C4.70600982 0.94120196 7.1557854 3.02423737 10.734375 6.12109375 C15.06699132 9.62245229 20.11812251 9.13513016 25.4453125 9.10546875 C31.13416341 8.49354743 34.62545928 5.67536503 38.75 1.9375 C41.96763307 0.02703037 45.11727969 0.10980749 48.75 0.75 C51.25 2.1875 51.25 2.1875 52.75 4.75 C53.6067734 8.64305809 53.5692871 12.04946291 51.8203125 15.6796875 C46.16745481 23.20568146 35.81502409 27.31110729 26.75 28.75 C15.59085101 29.86070845 5.59379852 26.82957555 -3.46875 20.24609375 C-6.45472509 17.7381366 -7.90494716 15.69340104 -8.58984375 11.8359375 C-8.8966926 7.83941836 -8.51282222 6.13228686 -6.1875 2.75 C-3.25 0.75 -3.25 0.75 0 0 Z " fill="#2B2724" transform="translate(670.25,485.25)"/>
<path d="M0 0 C0.58523438 0.17015625 1.17046875 0.3403125 1.7734375 0.515625 C14.63192152 4.14534722 27.59920709 7.47447871 41 8 C40.40762384 11.57026711 39.02819396 13.45816451 36.625 16.125 C36.01914062 16.80820312 35.41328125 17.49140625 34.7890625 18.1953125 C32.26679727 20.73960624 30.49779326 21.91872763 26.9375 22.5 C16.99748101 21.23777537 9.38313436 13.54557145 3.39453125 5.96875 C0 1.32860644 0 1.32860644 0 0 Z " fill="#F0B332" transform="translate(436,749)"/>
<path d="M0 0 C0.495 1.485 0.495 1.485 1 3 C-3.07414228 9.28639153 -8.37448934 14.65619354 -14.1328125 19.40625 C-15.91237649 20.92520839 -17.42694258 22.522082 -19 24.25 C-37.63339912 43.00930046 -68.65248428 57.51397392 -95.0625 58.625 C-96.21782227 58.68300781 -96.21782227 58.68300781 -97.39648438 58.7421875 C-99.26399477 58.83498305 -101.13196252 58.91850124 -103 59 C-102.97679687 59.83225098 -102.95359375 60.66450195 -102.9296875 61.52197266 C-102.78756607 70.66215685 -103.6368803 79.33051658 -105 88.375 C-105.19361319 89.70820224 -105.38632533 91.04153565 -105.578125 92.375 C-106.04330293 95.58472772 -106.51735663 98.79286049 -107 102 C-107.66 102 -108.32 102 -109 102 C-108.85584802 100.1873655 -108.70957364 98.37489978 -108.5625 96.5625 C-108.48128906 95.55316406 -108.40007813 94.54382813 -108.31640625 93.50390625 C-108.08481044 90.93919708 -107.80902631 88.39877142 -107.5 85.84375 C-106.86417143 80.22103071 -106.65501565 74.58934113 -106.4375 68.9375 C-106.39431641 67.88111328 -106.35113281 66.82472656 -106.30664062 65.73632812 C-106.20162663 63.15765121 -106.09947123 60.57889565 -106 58 C-104.36463186 57.70155687 -102.72920213 57.40345128 -101.09375 57.10546875 C-100.08570313 56.92161621 -99.07765625 56.73776367 -98.0390625 56.54833984 C-95.43421253 56.07834522 -92.82721627 55.62507851 -90.21875 55.17578125 C-67.50419743 51.11442782 -46.09456624 42.54453421 -28 28 C-27.49549316 27.60087402 -26.99098633 27.20174805 -26.47119141 26.79052734 C-16.64620422 18.976485 -7.35003167 10.23578236 0 0 Z " fill="#9A999A" transform="translate(748,534)"/>
<path d="M0 0 C0.33 0 0.66 0 1 0 C1.50986543 10.36726374 -0.19948961 18.94425248 -7.046875 27 C-13.43870451 33.54523342 -22.00253187 39.50347998 -31.3671875 40.16796875 C-32.19476562 40.17441406 -33.02234375 40.18085938 -33.875 40.1875 C-34.69742188 40.20167969 -35.51984375 40.21585937 -36.3671875 40.23046875 C-44.12282811 39.55156252 -51.19080353 35.06823479 -58.03710938 31.6328125 C-71.73197042 24.9388674 -83.39675865 24.78971483 -98 29 C-100.43014693 29.88441413 -102.67357817 30.8638405 -105 32 C-105 31.01 -105 30.02 -105 29 C-103.81679424 28.36690809 -102.62812152 27.74403282 -101.4375 27.125 C-100.77621094 26.77695312 -100.11492188 26.42890625 -99.43359375 26.0703125 C-89.42842229 21.66996422 -75.74397281 20.91170037 -65.3125 24.5 C-63.51863384 25.28252114 -61.75001293 26.12378663 -60 27 C-58.6289503 27.67066298 -57.25785258 28.34122778 -55.88671875 29.01171875 C-53.04570527 30.41247209 -50.2217764 31.84175928 -47.40625 33.29296875 C-40.1127436 36.94808606 -32.08306284 37.15114383 -24.13671875 35.3515625 C-15.62994884 32.2557862 -9.92336948 27.25513926 -5.625 19.3125 C-3.17465982 14.05323326 -2.01690855 9.04340311 -1.32421875 3.30078125 C-1 1 -1 1 0 0 Z " fill="#7A7A7B" transform="translate(829,293)"/>
<path d="M0 0 C1.90121287 2.85181931 2.62905256 4.74341391 3.5 8 C3.7371875 8.86625 3.974375 9.7325 4.21875 10.625 C4.4765625 11.73875 4.734375 12.8525 5 14 C5.17354004 14.70560059 5.34708008 15.41120117 5.52587891 16.13818359 C7.38343729 24.70294382 7.37222469 33.26307123 7.37060547 41.98583984 C7.37495722 44.59930706 7.41131822 47.21105104 7.44921875 49.82421875 C7.52280302 60.9165896 6.60180648 71.43747374 3 82 C2.01 82.495 2.01 82.495 1 83 C1.4355964 77.81869542 2.02627702 72.74333948 3.015625 67.63671875 C4.28025092 60.12634219 4.39168069 52.65548431 4.375 45.0625 C4.37667679 43.98323746 4.37667679 43.98323746 4.37838745 42.88217163 C4.36951117 31.23859262 3.23383518 20.26941604 0.46142578 8.92822266 C-0.16804245 6.29777817 -0.6701672 3.68458849 -1 1 C-0.67 0.67 -0.34 0.34 0 0 Z " fill="#BEBEBE" transform="translate(771,404)"/>
<path d="M0 0 C0.495 1.485 0.495 1.485 1 3 C-3.07414228 9.28639153 -8.37448934 14.65619354 -14.1328125 19.40625 C-15.91237649 20.92520839 -17.42694258 22.522082 -19 24.25 C-27.26782807 32.59265004 -38.02450985 38.69924358 -48.3125 44.1875 C-49.39700439 44.76733643 -49.39700439 44.76733643 -50.50341797 45.35888672 C-55.60908325 48 -55.60908325 48 -59 48 C-59 47.34 -59 46.68 -59 46 C-58.00742187 45.52691406 -57.01484375 45.05382812 -55.9921875 44.56640625 C-34.14027186 34.00076393 -14.34063104 19.95218232 0 0 Z " fill="#B9B8B8" transform="translate(748,534)"/>
<path d="M0 0 C0.33 0 0.66 0 1 0 C1.50986543 10.36726374 -0.19948961 18.94425248 -7.046875 27 C-13.25618913 33.35833767 -21.95056889 39.67840187 -31.140625 40.09765625 C-31.83671875 40.08605469 -32.5328125 40.07445312 -33.25 40.0625 C-35.10625 40.0315625 -35.10625 40.0315625 -37 40 C-37 39.01 -37 38.02 -37 37 C-36.17757812 36.91363281 -35.35515625 36.82726562 -34.5078125 36.73828125 C-23.78804928 35.38902699 -15.35954469 32.8516846 -8.46484375 24.15625 C-4.0182853 17.61091596 -2.44758054 11.20078308 -1.39453125 3.40625 C-1 1 -1 1 0 0 Z " fill="#A8A7A8" transform="translate(829,293)"/>
<path d="M0 0 C-0.33 0.66 -0.66 1.32 -1 2 C-2.17393311 2.02505615 -3.34786621 2.0501123 -4.55737305 2.07592773 C-8.97265899 2.17112228 -13.38782786 2.27105471 -17.80297852 2.37231445 C-19.70268996 2.41524488 -21.60242972 2.45694295 -23.50219727 2.49731445 C-34.03287615 2.72196154 -44.5087042 3.00333301 -55 4 C-55 3.34 -55 2.68 -55 2 C-36.59806319 -1.06291644 -18.57195397 -2.15486784 0 0 Z " fill="#BCBCBE" transform="translate(320,294)"/>
<path d="M0 0 C20.29270161 -1.25091996 38.4744237 6.11707499 54 19 C53.01 19.33 52.02 19.66 51 20 C48.65927887 18.68241491 46.51563209 17.33125118 44.3125 15.8125 C43.03669074 14.96902854 41.75935977 14.12785396 40.48046875 13.2890625 C39.87122559 12.88719727 39.26198242 12.48533203 38.63427734 12.07128906 C27.2522111 4.61020351 13.39330045 2.45867467 0 2 C0 1.34 0 0.68 0 0 Z " fill="#C7C7C7" transform="translate(560,213)"/>
<path d="M0 0 C17.54026445 0.41029858 39.1415895 2.06355884 53 14 C52.34 14.33 51.68 14.66 51 15 C48.62244407 13.99621044 46.32212947 12.93224128 44 11.8125 C30.01250766 5.40653712 15.19525234 3.46182174 0 2 C0 1.34 0 0.68 0 0 Z " fill="#BFBFC0" transform="translate(756,250)"/>
<path d="M0 0 C0.66 0 1.32 0 2 0 C1.93039062 1.30453125 1.86078125 2.6090625 1.7890625 3.953125 C1.39426828 14.50049173 1.33871025 23.20592888 8 32 C10.16001986 34.32107397 12.41107531 36.18173196 15 38 C15.969375 38.78375 16.93875 39.5675 17.9375 40.375 C18.618125 40.91125 19.29875 41.4475 20 42 C19.01 42.495 19.01 42.495 18 43 C7.96304188 36.11751443 1.32517012 28.63634615 -1.875 16.75 C-2.06486725 11.0539824 -1.01740246 5.59150941 0 0 Z " fill="#CBCBC9" transform="translate(532,237)"/>
<path d="M0 0 C-1 3 -1 3 -2.78735352 4.10327148 C-3.56006592 4.43915283 -4.33277832 4.77503418 -5.12890625 5.12109375 C-5.99209473 5.4972583 -6.8552832 5.87342285 -7.74462891 6.26098633 C-8.67452637 6.64923584 -9.60442383 7.03748535 -10.5625 7.4375 C-11.50528809 7.83928467 -12.44807617 8.24106934 -13.41943359 8.6550293 C-20.49343405 11.58469604 -27.4389744 13.6001699 -34.9453125 15.05078125 C-38.37377915 16.11614877 -39.13605819 17.04571315 -41 20 C-41.66 20 -42.32 20 -43 20 C-42.6015625 17.18359375 -42.6015625 17.18359375 -41 14 C-37.94521634 12.46147673 -34.69782634 11.81410897 -31.375 11.0625 C-22.13560977 8.7226802 -9.032311 0 0 0 Z " fill="#BFBEBF" transform="translate(553,758)"/>
<path d="M0 0 C4.21751282 -0.04946113 8.43487168 -0.08574827 12.65258789 -0.10986328 C14.08718812 -0.119917 15.52176789 -0.13356194 16.95629883 -0.15087891 C19.01909438 -0.17515549 21.08161885 -0.18648919 23.14453125 -0.1953125 C24.38565674 -0.20578613 25.62678223 -0.21625977 26.90551758 -0.22705078 C30 0 30 0 33 2 C33 3.32 33 4.64 33 6 C32.34 6 31.68 6 31 6 C31 6.66 31 7.32 31 8 C29.125 10.125 29.125 10.125 27 12 C26.34 12 25.68 12 25 12 C25 12.66 25 13.32 25 14 C24.01 13.67 23.02 13.34 22 13 C22.56589844 12.44570313 23.13179687 11.89140625 23.71484375 11.3203125 C24.44832031 10.59585938 25.18179688 9.87140625 25.9375 9.125 C26.66839844 8.40570312 27.39929688 7.68640625 28.15234375 6.9453125 C30.05667999 5.12972808 30.05667999 5.12972808 31 3 C30.27039063 3.02320313 29.54078125 3.04640625 28.7890625 3.0703125 C19.06608528 3.23836396 9.63438183 2.21105585 0 1 C0 0.67 0 0.34 0 0 Z " fill="#493514" transform="translate(539,692)"/>
<path d="M0 0 C0.33 0 0.66 0 1 0 C1.29363991 9.62792236 0.4245694 18.79772396 -1 28.3125 C-1.19354552 29.65026977 -1.38625796 30.98816034 -1.578125 32.32617188 C-2.04395695 35.5520581 -2.51802815 38.77649281 -3 42 C-3.66 42 -4.32 42 -5 42 C-4.78673 39.39024867 -4.56923931 36.78093756 -4.34765625 34.171875 C-4.07044435 30.89167211 -3.81367937 27.61011839 -3.55859375 24.328125 C-3.39345578 22.2812317 -3.22808915 20.23435685 -3.0625 18.1875 C-2.98789551 17.19741943 -2.91329102 16.20733887 -2.83642578 15.18725586 C-2.39758879 9.8678157 -1.68938804 5.06816413 0 0 Z " fill="#C5C4C2" transform="translate(644,594)"/>
<path d="M0 0 C0.76030518 0.2266333 1.52061035 0.4532666 2.30395508 0.68676758 C5.80641702 1.72998056 9.30945372 2.77125095 12.8125 3.8125 C14.6059082 4.34713867 14.6059082 4.34713867 16.43554688 4.89257812 C23.60028167 7.02052388 30.77857199 9.07286863 38 11 C37.67 11.66 37.34 12.32 37 13 C32.70515826 12.09782108 28.41484763 11.17561028 24.125 10.25 C22.92101562 9.99734375 21.71703125 9.7446875 20.4765625 9.484375 C13.32471406 7.92962534 6.68024238 6.00543391 0 3 C0 2.01 0 1.02 0 0 Z " fill="#C5C5C5" transform="translate(309,502)"/>
<path d="M0 0 C5.10248599 0.51650932 8.8796627 2.35224377 13.25 4.875 C19.00481221 8.0850028 24.53108155 10.53878548 31 12 C31 12.99 31 13.98 31 15 C24.95084418 14.5383539 20.74258344 12.5886071 15.5 9.625 C10.41372282 6.80434539 5.38910169 4.19818622 0 2 C0 1.34 0 0.68 0 0 Z " fill="#949394" transform="translate(761,318)"/>
<path d="M0 0 C2.475 0.495 2.475 0.495 5 1 C5.77040851 7.06696699 6.09706112 12.88514973 6 19 C-12.34042553 16 -12.34042553 16 -21 13 C-21 12.67 -21 12.34 -21 12 C-18.03 12 -15.06 12 -12 12 C-12 12.66 -12 13.32 -12 14 C-10.02 14 -8.04 14 -6 14 C-6 14.66 -6 15.32 -6 16 C-2.7 16 0.6 16 4 16 C4 11.38 4 6.76 4 2 C2.68 2 1.36 2 0 2 C0 1.34 0 0.68 0 0 Z " fill="#D8A948" transform="translate(598,570)"/>
<path d="M0 0 C4.29878146 3.71786505 6.92623724 7.30402411 8 13 C8.17604347 15.76993398 8.2934991 18.47991728 8.3125 21.25 C8.31805908 21.94778564 8.32361816 22.64557129 8.3293457 23.36450195 C8.27581458 27.16155125 7.80117482 29.69665962 6 33 C5.76020238 35.36222232 5.76020238 35.36222232 5.875 37.75 C5.89304687 38.54921875 5.91109375 39.3484375 5.9296875 40.171875 C5.96449219 41.07679688 5.96449219 41.07679688 6 42 C5.34 42 4.68 42 4 42 C4 38.04 4 34.08 4 30 C4.66 30 5.32 30 6 30 C6 23.4 6 16.8 6 10 C5.34 10 4.68 10 4 10 C4 8.68 4 7.36 4 6 C3.34 6 2.68 6 2 6 C2 5.34 2 4.68 2 4 C1.34 4 0.68 4 0 4 C0 2.68 0 1.36 0 0 Z " fill="#3B2D12" transform="translate(520,428)"/>
<path d="M0 0 C3.00762225 3.00166656 6.00512563 6.01298309 8.99609375 9.03125 C10.47650569 10.5208898 11.95697582 12.01047176 13.4375 13.5 C14.17548828 14.24636719 14.91347656 14.99273438 15.67382812 15.76171875 C19.63051256 19.73598845 23.61736149 23.49944562 28 27 C26.68 27.33 25.36 27.66 24 28 C24 27.34 24 26.68 24 26 C23.34 26 22.68 26 22 26 C22 25.34 22 24.68 22 24 C21.34 24 20.68 24 20 24 C20 23.34 20 22.68 20 22 C19.34 22 18.68 22 18 22 C18 21.34 18 20.68 18 20 C17.34 20 16.68 20 16 20 C16 19.34 16 18.68 16 18 C15.34 18 14.68 18 14 18 C14 17.34 14 16.68 14 16 C13.34 16 12.68 16 12 16 C12 15.34 12 14.68 12 14 C11.34 14 10.68 14 10 14 C10 13.34 10 12.68 10 12 C9.34 12 8.68 12 8 12 C8 11.34 8 10.68 8 10 C7.34 10 6.68 10 6 10 C6 9.34 6 8.68 6 8 C5.34 8 4.68 8 4 8 C4 7.34 4 6.68 4 6 C3.34 6 2.68 6 2 6 C2 5.34 2 4.68 2 4 C1.34 4 0.68 4 0 4 C0 2.68 0 1.36 0 0 Z " fill="#402D14" transform="translate(466,510)"/>
<path d="M0 0 C0.99 0 1.98 0 3 0 C3 0.66 3 1.32 3 2 C3.66 2 4.32 2 5 2 C5 5.3 5 8.6 5 12 C5.66 12 6.32 12 7 12 C5.56691865 15.95906817 3.66858051 19.28718181 1.375 22.8125 C0.74335937 23.78832031 0.11171875 24.76414062 -0.5390625 25.76953125 C-1.02117188 26.50558594 -1.50328125 27.24164062 -2 28 C-2.33 26.68 -2.66 25.36 -3 24 C-2.34 24 -1.68 24 -1 24 C-1 23.34 -1 22.68 -1 22 C-2.32 21.67 -3.64 21.34 -5 21 C-4.50628906 20.59007812 -4.01257813 20.18015625 -3.50390625 19.7578125 C-2.86324219 19.21898437 -2.22257813 18.68015625 -1.5625 18.125 C-0.92441406 17.59132813 -0.28632812 17.05765625 0.37109375 16.5078125 C2.32370022 14.70036382 2.93725309 13.62505576 3.203125 10.9765625 C3.35815056 5.97943274 3.35815056 5.97943274 1.5 1.4375 C1.005 0.963125 0.51 0.48875 0 0 Z " fill="#CCA64E" transform="translate(719,486)"/>
<path d="M0 0 C3.59977508 3.41827382 5.66353897 6.66085809 8 11 C6.68 11 5.36 11 4 11 C4 9.68 4 8.36 4 7 C2.68 6.34 1.36 5.68 0 5 C0 8.3 0 11.6 0 15 C-0.66 15 -1.32 15 -2 15 C-2 22.59 -2 30.18 -2 38 C-2.33 38 -2.66 38 -3 38 C-3.61916858 12.23623663 -3.61916858 12.23623663 0 0 Z " fill="#C6A04C" transform="translate(378,591)"/>
<path d="M0 0 C0.66 0 1.32 0 2 0 C3.42992047 4.21560331 4.85391801 8.43314642 6.27246094 12.65258789 C6.75586246 14.08770643 7.24087817 15.52228229 7.72753906 16.95629883 C8.42678121 19.01763614 9.12019477 21.08085542 9.8125 23.14453125 C10.23144531 24.38565674 10.65039062 25.62678223 11.08203125 26.90551758 C12 30 12 30 12 33 C11.34 33 10.68 33 10 33 C8.69700969 29.37897272 7.40975176 25.75253437 6.125 22.125 C5.76019531 21.11179687 5.39539063 20.09859375 5.01953125 19.0546875 C2.79985198 12.75886993 1.09400363 6.58776479 0 0 Z " fill="#D7D7D6" transform="translate(339,654)"/>
<path d="M0 0 C2.95167648 3.48672358 4.57840049 7.38830628 6.3125 11.5625 C8.86253498 17.57266037 11.65955672 23.30189699 14.93359375 28.9609375 C16 31 16 31 16 33 C15.34 33 14.68 33 14 33 C12.05117394 29.36011478 10.11806798 25.71209737 8.1875 22.0625 C7.64029297 21.04091797 7.09308594 20.01933594 6.52929688 18.96679688 C3.42144396 13.07129407 0.89929302 7.39095442 -1 1 C-0.67 0.67 -0.34 0.34 0 0 Z " fill="#C1C1C0" transform="translate(202,396)"/>
<path d="M0 0 C0.33 0 0.66 0 1 0 C3.84405098 11.02069756 4.03085717 22.01314275 1 33 C0.67 33 0.34 33 0 33 C0 22.11 0 11.22 0 0 Z " fill="#4F3A12" transform="translate(654,425)"/>
<path d="M0 0 C0 0.66 0 1.32 0 2 C-1.12921875 2.23783203 -1.12921875 2.23783203 -2.28125 2.48046875 C-9.59482849 4.08697082 -16.67665632 6.05421132 -23.79296875 8.3737793 C-28.81166134 10 -28.81166134 10 -31 10 C-31 9.34 -31 8.68 -31 8 C-10.47826087 0 -10.47826087 0 0 0 Z " fill="#CBCACB" transform="translate(741,251)"/>
<path d="M0 0 C0.33 0.99 0.66 1.98 1 3 C-3.10992079 9.34159768 -8.47649272 14.75231232 -14.26953125 19.5625 C-16.30779858 21.25568821 -18.16572933 23.08930138 -20 25 C-20.99 24.67 -21.98 24.34 -23 24 C-22.26136719 23.35675781 -21.52273438 22.71351563 -20.76171875 22.05078125 C-13.08893189 15.25499342 -6.43566739 7.96857241 0 0 Z " fill="#BDBDBD" transform="translate(748,534)"/>
<path d="M0 0 C0.33 0 0.66 0 1 0 C1.22215767 5.58356282 0.44184343 10.45819725 -0.875 15.875 C-1.04902344 16.64585937 -1.22304688 17.41671875 -1.40234375 18.2109375 C-1.86523502 20.15850964 -2.42516461 22.08248342 -3 24 C-3.66 24.33 -4.32 24.66 -5 25 C-3.3164557 4.97468354 -3.3164557 4.97468354 0 0 Z " fill="#BBBBBB" transform="translate(777,462)"/>
<path d="M0 0 C7.25152824 7.01760797 13.95807861 14.21729822 19 23 C18.01 23 17.02 23 16 23 C14.23828125 20.91015625 14.23828125 20.91015625 12.3125 18.0625 C9.00419678 13.30566328 5.46933848 9.06023103 1.46875 4.875 C0 3 0 3 0 0 Z " fill="#BAB6B9" transform="translate(734,343)"/>
<path d="M0 0 C6.94670011 -0.62024108 10.47600085 0.85995781 16 5 C16.94875 5.70125 17.8975 6.4025 18.875 7.125 C21 9 21 9 23 12 C22.67 12.99 22.34 13.98 22 15 C21.59910156 14.46890625 21.19820312 13.9378125 20.78515625 13.390625 C15.56930033 6.90924395 10.55167922 3.95824826 2.4375 2.25 C1.633125 2.1675 0.82875 2.085 0 2 C0 1.34 0 0.68 0 0 Z " fill="#C1C0C0" transform="translate(560,281)"/>
<path d="M0 0 C2.09807945 2.67744188 3.39676766 4.62189888 4 8 C3.34 8 2.68 8 2 8 C2 7.01 2 6.02 2 5 C0.68 5 -0.64 5 -2 5 C-2 5.66 -2 6.32 -2 7 C-2.99 7.33 -3.98 7.66 -5 8 C-5.33 8.99 -5.66 9.98 -6 11 C-6.66 11 -7.32 11 -8 11 C-8 11.66 -8 12.32 -8 13 C-8.66 13 -9.32 13 -10 13 C-10 13.66 -10 14.32 -10 15 C-11.65 15.66 -13.3 16.32 -15 17 C-10.60502098 10.67467725 -5.54949524 5.32751543 0 0 Z " fill="#DBAD48" transform="translate(420,517)"/>
<path d="M0 0 C2.97 0 5.94 0 9 0 C9 0.66 9 1.32 9 2 C14.28 2 19.56 2 25 2 C25 2.66 25 3.32 25 4 C28.3 4 31.6 4 35 4 C35 4.33 35 4.66 35 5 C28.34826603 5.25859873 21.85264754 4.88415681 15.25 4.125 C14.18761108 4.00729248 14.18761108 4.00729248 13.10375977 3.88720703 C8.56256976 3.33396022 4.36837012 2.36082734 0 1 C0 0.67 0 0.34 0 0 Z " fill="#C79C42" transform="translate(603,550)"/>
<path d="M0 0 C0.66 0.33 1.32 0.66 2 1 C-1.2817547 4.38120182 -4.69147937 7.47516888 -8.29296875 10.51171875 C-9.86047413 11.87835387 -11.34199589 13.34199589 -12.8125 14.8125 C-15 17 -15 17 -17 18 C-15.43727522 14.2285078 -13.07921327 11.84402385 -10.1875 9 C-9.33542969 8.154375 -8.48335937 7.30875 -7.60546875 6.4375 C-5.16027385 4.14994135 -2.64475158 2.05122565 0 0 Z M-18 18 C-17.67 18.66 -17.34 19.32 -17 20 C-17.99 20.99 -18.98 21.98 -20 23 C-20 20 -20 20 -18 18 Z " fill="#D0D0D1" transform="translate(684,274)"/>
<path d="M0 0 C1.32 0 2.64 0 4 0 C4 0.66 4 1.32 4 2 C4.66 2 5.32 2 6 2 C6 2.66 6 3.32 6 4 C7.32 4 8.64 4 10 4 C10 4.66 10 5.32 10 6 C10.66 6 11.32 6 12 6 C12 6.66 12 7.32 12 8 C12.66 8 13.32 8 14 8 C14 8.66 14 9.32 14 10 C15.32 10 16.64 10 18 10 C18 10.66 18 11.32 18 12 C18.66 12 19.32 12 20 12 C20 12.66 20 13.32 20 14 C20.99 14.33 21.98 14.66 23 15 C22.01 15.495 22.01 15.495 21 16 C18.43132396 14.27987623 15.87127976 12.54730369 13.3125 10.8125 C12.59126953 10.32974609 11.87003906 9.84699219 11.12695312 9.34960938 C6.98422114 6.5310383 3.40804218 3.67692125 0 0 Z " fill="#DCAD45" transform="translate(450,598)"/>
<path d="M0 0 C0 0.66 0 1.32 0 2 C-1.24735567 2.6509259 -2.49801832 3.29551669 -3.75 3.9375 C-4.44609375 4.29714844 -5.1421875 4.65679687 -5.859375 5.02734375 C-9.37918068 6.62667151 -12.39872444 7.12668793 -16.25 7.0625 C-18.10625 7.0315625 -18.10625 7.0315625 -20 7 C-20 6.01 -20 5.02 -20 4 C-19.11957031 3.87882812 -18.23914063 3.75765625 -17.33203125 3.6328125 C-16.17058594 3.46523438 -15.00914062 3.29765625 -13.8125 3.125 C-12.66394531 2.96257812 -11.51539063 2.80015625 -10.33203125 2.6328125 C-6.82125187 1.96605252 -3.52032497 0 0 0 Z " fill="#B5B4B5" transform="translate(812,326)"/>
<path d="M0 0 C0 0.99 0 1.98 0 3 C-4.95 3.66 -9.9 4.32 -15 5 C-15.99 8.465 -15.99 8.465 -17 12 C-17.33 12 -17.66 12 -18 12 C-18 9.03 -18 6.06 -18 3 C-12.01270113 1.88482498 -6.03748977 0.80499864 0 0 Z " fill="#C6C6C6" transform="translate(660,589)"/>
<path d="M0 0 C5.29260609 4.41050507 10.17591841 9.08508843 15 14 C15.998793 15.00120554 16.99858657 16.00141543 18 17 C18.66 17.66 19.32 18.32 20 19 C18.68 19 17.36 19 16 19 C16 18.34 16 17.68 16 17 C15.34 17 14.68 17 14 17 C14 16.34 14 15.68 14 15 C13.34 15 12.68 15 12 15 C12 14.34 12 13.68 12 13 C11.34 13 10.68 13 10 13 C10 12.34 10 11.68 10 11 C9.34 11 8.68 11 8 11 C8 10.34 8 9.68 8 9 C7.34 9 6.68 9 6 9 C6 8.34 6 7.68 6 7 C5.34 7 4.68 7 4 7 C4 6.34 4 5.68 4 5 C3.34 5 2.68 5 2 5 C2 4.34 2 3.68 2 3 C1.34 3 0.68 3 0 3 C0 2.01 0 1.02 0 0 Z " fill="#DEAE49" transform="translate(448,557)"/>
<path d="M0 0 C2.54756812 0.58008006 4.8094384 1.24257229 7.25 2.125 C8.25945679 2.47534302 8.25945679 2.47534302 9.28930664 2.83276367 C13.8700219 4.46789944 17.94698213 6.33093945 22 9 C21.34 9.66 20.68 10.32 20 11 C18.92621094 10.51789063 17.85242188 10.03578125 16.74609375 9.5390625 C15.3100032 8.90080003 13.87379921 8.26279278 12.4375 7.625 C11.73302734 7.30789063 11.02855469 6.99078125 10.30273438 6.6640625 C5.92337664 4.72665078 1.63551081 3.2060856 -3 2 C-2.01 1.34 -1.02 0.68 0 0 Z " fill="#BBBABA" transform="translate(787,254)"/>
<path d="M0 0 C1.1055189 0.93590504 2.20935453 1.87379858 3.3125 2.8125 C3.92738281 3.33457031 4.54226563 3.85664063 5.17578125 4.39453125 C7 6 7 6 8.5859375 7.70703125 C9.28589844 8.34705078 9.28589844 8.34705078 10 9 C14.127207 8.77690773 17.40122418 6.9249266 21 5 C20.67 5.99 20.34 6.98 20 8 C19.01 8 18.02 8 17 8 C17 8.66 17 9.32 17 10 C13.535 11.485 13.535 11.485 10 13 C9.61328125 12.52949219 9.2265625 12.05898438 8.828125 11.57421875 C5.52285046 7.60736982 5.52285046 7.60736982 1.625 4.25 C1.08875 3.8375 0.5525 3.425 0 3 C0 2.01 0 1.02 0 0 Z " fill="#C6C7C7" transform="translate(536,307)"/>
<path d="M0 0 C2.97 0 5.94 0 9 0 C9 0.66 9 1.32 9 2 C13.62 2 18.24 2 23 2 C23 2.66 23 3.32 23 4 C23.99 4.33 24.98 4.66 26 5 C19.83740819 5.22615016 14.48027281 4.44149898 8.5 3 C7.67757813 2.80921875 6.85515625 2.6184375 6.0078125 2.421875 C4.00337593 1.95572696 2.00141137 1.47897024 0 1 C0 0.67 0 0.34 0 0 Z " fill="#52390E" transform="translate(447,752)"/>
<path d="M0 0 C1.32 0 2.64 0 4 0 C4 0.66 4 1.32 4 2 C4.66 2 5.32 2 6 2 C6 2.66 6 3.32 6 4 C6.66 4 7.32 4 8 4 C8 4.66 8 5.32 8 6 C8.66 6 9.32 6 10 6 C10 6.66 10 7.32 10 8 C10.66 8 11.32 8 12 8 C12 8.66 12 9.32 12 10 C12.66 10 13.32 10 14 10 C14 10.66 14 11.32 14 12 C14.66 12 15.32 12 16 12 C16 12.66 16 13.32 16 14 C16.66 14 17.32 14 18 14 C17.67 15.32 17.34 16.64 17 18 C16.61070312 17.52691406 16.22140625 17.05382812 15.8203125 16.56640625 C11.5487329 11.51728106 6.93250035 7.12168063 1.94140625 2.78515625 C1.30074219 2.19605469 0.66007813 1.60695313 0 1 C0 0.67 0 0.34 0 0 Z " fill="#3F2E11" transform="translate(696,362)"/>
<path d="M0 0 C2 3 2 3 1.76806641 5.0847168 C1.54812012 5.86500244 1.32817383 6.64528809 1.1015625 7.44921875 C0.86953125 8.29677734 0.6375 9.14433594 0.3984375 10.01757812 C0.14320313 10.89865234 -0.11203125 11.77972656 -0.375 12.6875 C-0.6225 13.58017578 -0.87 14.47285156 -1.125 15.39257812 C-1.73843428 17.59858217 -2.3637876 19.80047762 -3 22 C-3.66 22 -4.32 22 -5 22 C-3.77048326 14.52164523 -2.11170763 7.2783523 0 0 Z " fill="#C4C4C3" transform="translate(638,638)"/>
<path d="M0 0 C2.64 0 5.28 0 8 0 C8 0.66 8 1.32 8 2 C13.61 2 19.22 2 25 2 C18.2270129 5.38649355 11.46138036 4.64568102 4.3125 2.5 C2.86975406 2.01534507 1.42997897 1.52112032 0 1 C0 0.67 0 0.34 0 0 Z " fill="#553C14" transform="translate(676,510)"/>
<path d="M0 0 C10.05610192 -0.14141393 19.97562315 0.27095441 30 1 C30 1.33 30 1.66 30 2 C20.1 2.495 20.1 2.495 10 3 C10 2.34 10 1.68 10 1 C6.7 1 3.4 1 0 1 C0 0.67 0 0.34 0 0 Z " fill="#4D3A19" transform="translate(514,717)"/>
<path d="M0 0 C0.33 0 0.66 0 1 0 C1.18451025 13.6332574 1.18451025 13.6332574 0 20 C-0.66 20 -1.32 20 -2 20 C-2.3690205 6.3667426 -2.3690205 6.3667426 0 0 Z " fill="#808080" transform="translate(644,594)"/>
<path d="M0 0 C1.32 0 2.64 0 4 0 C4 0.66 4 1.32 4 2 C4.66 2 5.32 2 6 2 C6 2.66 6 3.32 6 4 C7.32 4 8.64 4 10 4 C10 4.66 10 5.32 10 6 C10.66 6 11.32 6 12 6 C12 6.66 12 7.32 12 8 C13.32 8 14.64 8 16 8 C16 8.66 16 9.32 16 10 C16.66 10 17.32 10 18 10 C18 10.66 18 11.32 18 12 C13.83740241 10.5199653 10.41490692 8.4553071 6.75 6 C5.69296875 5.29875 4.6359375 4.5975 3.546875 3.875 C1 2 1 2 0 0 Z " fill="#DDAD46" transform="translate(506,546)"/>
<path d="M0 0 C0.99 0 1.98 0 3 0 C4.22530764 2.76441357 5.43040834 5.53484985 6.625 8.3125 C6.975625 9.09818359 7.32625 9.88386719 7.6875 10.69335938 C8.00976562 11.45068359 8.33203125 12.20800781 8.6640625 12.98828125 C9.11966553 14.03302612 9.11966553 14.03302612 9.58447266 15.09887695 C9.72159668 15.72624756 9.8587207 16.35361816 10 17 C9.34 17.99 8.68 18.98 8 20 C5.33333333 13.33333333 2.66666667 6.66666667 0 0 Z " fill="#B3B3B3" transform="translate(761,384)"/>
<path d="M0 0 C4.95 0.33 9.9 0.66 15 1 C13.80655062 5.77379752 12.20354235 7.38574709 9 11 C8.01 10.67 7.02 10.34 6 10 C6.66 10 7.32 10 8 10 C8 9.34 8 8.68 8 8 C8.66 8 9.32 8 10 8 C10 7.34 10 6.68 10 6 C10.66 6 11.32 6 12 6 C12 4.68 12 3.36 12 2 C8.04 2 4.08 2 0 2 C0 1.34 0 0.68 0 0 Z " fill="#D3AA4F" transform="translate(462,756)"/>
<path d="M0 0 C2.97 0 5.94 0 9 0 C9 0.66 9 1.32 9 2 C10.98 2 12.96 2 15 2 C15 2.66 15 3.32 15 4 C17.64 4 20.28 4 23 4 C23 4.66 23 5.32 23 6 C15.15836122 4.83675515 7.60407828 3.2452987 0 1 C0 0.67 0 0.34 0 0 Z " fill="#4C360F" transform="translate(549,618)"/>
<path d="M0 0 C0.66 0.33 1.32 0.66 2 1 C0.71319131 3.6274838 -0.57917678 6.25196683 -1.875 8.875 C-2.23980469 9.62136719 -2.60460937 10.36773438 -2.98046875 11.13671875 C-3.33496094 11.85214844 -3.68945312 12.56757812 -4.0546875 13.3046875 C-4.37937012 13.96452637 -4.70405273 14.62436523 -5.03857422 15.30419922 C-6 17 -6 17 -8 19 C-8.33 18.34 -8.66 17.68 -9 17 C-8.28735352 15.21240234 -8.28735352 15.21240234 -7.12890625 13.0859375 C-6.71962891 12.32539062 -6.31035156 11.56484375 -5.88867188 10.78125 C-5.45103516 9.9871875 -5.01339844 9.193125 -4.5625 8.375 C-4.12873047 7.57320312 -3.69496094 6.77140625 -3.24804688 5.9453125 C-2.17243012 3.95955849 -1.08952787 1.9781454 0 0 Z " fill="#C5C4C4" transform="translate(626,677)"/>
<path d="M0 0 C1.32 0 2.64 0 4 0 C3.67 0.99 3.34 1.98 3 3 C2.34 3 1.68 3 1 3 C-0.66554425 4.42083071 -0.66554425 4.42083071 -2.375 6.25 C-2.99246094 6.88550781 -3.60992187 7.52101563 -4.24609375 8.17578125 C-4.82488281 8.77777344 -5.40367187 9.37976563 -6 10 C-7.33333333 11.33333333 -8.66666667 12.66666667 -10 14 C-10 12.68 -10 11.36 -10 10 C-9.34 10 -8.68 10 -8 10 C-8 9.34 -8 8.68 -8 8 C-7.34 8 -6.68 8 -6 8 C-6 7.34 -6 6.68 -6 6 C-5.34 6 -4.68 6 -4 6 C-4 5.34 -4 4.68 -4 4 C-3.34 4 -2.68 4 -2 4 C-2 3.34 -2 2.68 -2 2 C-1.34 2 -0.68 2 0 2 C0 1.34 0 0.68 0 0 Z " fill="#3D2E11" transform="translate(418,516)"/>
<path d="M0 0 C3.71045247 1.57780923 6.29906384 3.90703248 9.25 6.625 C10.14203125 7.44226563 11.0340625 8.25953125 11.953125 9.1015625 C12.96632813 10.04128906 12.96632813 10.04128906 14 11 C12.68 11.33 11.36 11.66 10 12 C10 11.34 10 10.68 10 10 C9.34 10 8.68 10 8 10 C8 9.34 8 8.68 8 8 C7.34 8 6.68 8 6 8 C6 7.34 6 6.68 6 6 C5.34 6 4.68 6 4 6 C4 5.34 4 4.68 4 4 C3.34 4 2.68 4 2 4 C2 3.34 2 2.68 2 2 C1.34 2 0.68 2 0 2 C0 1.34 0 0.68 0 0 Z " fill="#E3B046" transform="translate(692,360)"/>
<path d="M0 0 C0.33 0.99 0.66 1.98 1 3 C-4.28 5.97 -9.56 8.94 -15 12 C-15 11.01 -15 10.02 -15 9 C-12.52359763 7.29305123 -10.1091194 5.78629988 -7.5 4.3125 C-6.78457031 3.89677734 -6.06914063 3.48105469 -5.33203125 3.05273438 C-3.56042371 2.025202 -1.78091912 1.01130764 0 0 Z " fill="#CACACA" transform="translate(703,262)"/>
<path d="M0 0 C5.94 0.33 11.88 0.66 18 1 C17.67 2.98 17.34 4.96 17 7 C16.67 5.68 16.34 4.36 16 3 C12.7 3 9.4 3 6 3 C6 2.34 6 1.68 6 1 C4.02 1 2.04 1 0 1 C0 0.67 0 0.34 0 0 Z " fill="#D7AB47" transform="translate(584,627)"/>
<path d="M0 0 C0.69287109 0.09990234 1.38574219 0.19980469 2.09960938 0.30273438 C3.79667213 0.54851588 5.49225459 0.80448152 7.1875 1.0625 C6.8575 1.7225 6.5275 2.3825 6.1875 3.0625 C4.14559019 2.92011163 2.10397955 2.77342972 0.0625 2.625 C-1.07445312 2.54378906 -2.21140625 2.46257812 -3.3828125 2.37890625 C-6.5665478 2.08519035 -9.66760907 1.63125687 -12.8125 1.0625 C-12.8125 0.7325 -12.8125 0.4025 -12.8125 0.0625 C-8.38499834 -1.16688396 -4.46430393 -0.68780185 0 0 Z " fill="#BEBFBF" transform="translate(333.8125,295.9375)"/>
<path d="M0 0 C4.52615993 3.67832017 8.39424999 7.41086363 12 12 C9.83125748 11.49396008 8.00032373 11.00016187 6 10 C6 9.34 6 8.68 6 8 C5.34 8 4.68 8 4 8 C4 7.34 4 6.68 4 6 C3.34 6 2.68 6 2 6 C2 5.34 2 4.68 2 4 C1.34 4 0.68 4 0 4 C0 2.68 0 1.36 0 0 Z " fill="#DBAB42" transform="translate(402,622)"/>
<path d="M0 0 C0.66 0 1.32 0 2 0 C2 0.66 2 1.32 2 2 C2.66 2 3.32 2 4 2 C4 2.66 4 3.32 4 4 C4.66 4 5.32 4 6 4 C6 4.66 6 5.32 6 6 C6.66 6 7.32 6 8 6 C8 6.66 8 7.32 8 8 C8.66 8 9.32 8 10 8 C10 8.66 10 9.32 10 10 C10.66 10 11.32 10 12 10 C12 10.99 12 11.98 12 13 C8.38522825 11.50198648 6.31379537 9.42462583 3.75 6.5 C3.04359375 5.7059375 2.3371875 4.911875 1.609375 4.09375 C0 2 0 2 0 0 Z " fill="#DDAC41" transform="translate(548,512)"/>
<path d="M0 0 C4.95 1.65 9.9 3.3 15 5 C14.34 5.66 13.68 6.32 13 7 C8.01662989 6.69797757 3.45612062 4.08728962 -1 2 C-0.67 1.34 -0.34 0.68 0 0 Z " fill="#B6B6B5" transform="translate(309,502)"/>
<path d="M0 0 C0.67546875 0.20496094 1.3509375 0.40992188 2.046875 0.62109375 C2.93890625 0.89050781 3.8309375 1.15992188 4.75 1.4375 C5.63171875 1.70433594 6.5134375 1.97117187 7.421875 2.24609375 C9.60565835 2.88468494 11.78835498 3.46775833 14 4 C14 4.99 14 5.98 14 7 C8.29290936 6.53411505 4.84060277 5.06242216 0 2 C0 1.34 0 0.68 0 0 Z " fill="#A3A2A2" transform="translate(778,326)"/>
<path d="M0 0 C2.31 0 4.62 0 7 0 C7 0.66 7 1.32 7 2 C8.32 2 9.64 2 11 2 C11 2.66 11 3.32 11 4 C12.98 4 14.96 4 17 4 C17.33 4.99 17.66 5.98 18 7 C11.89262558 5.23536928 5.92566493 3.30442525 0 1 C0 0.67 0 0.34 0 0 Z " fill="#D4A547" transform="translate(511,634)"/>
<path d="M0 0 C0 0.66 0 1.32 0 2 C-2.64 2 -5.28 2 -8 2 C-8 3.32 -8 4.64 -8 6 C-7.34 6 -6.68 6 -6 6 C-6 6.66 -6 7.32 -6 8 C-5.34 8 -4.68 8 -4 8 C-4.33 9.32 -4.66 10.64 -5 12 C-6.00578589 10.71283353 -7.00446798 9.42011342 -8 8.125 C-8.556875 7.40570313 -9.11375 6.68640625 -9.6875 5.9453125 C-11 4 -11 4 -11 2 C-3.375 0 -3.375 0 0 0 Z " fill="#D5A949" transform="translate(468,494)"/>
<path d="M0 0 C3.42409111 3.06679465 5.27342685 6.11716523 7.25 10.25 C7.77078125 11.32765625 8.2915625 12.4053125 8.828125 13.515625 C9.21484375 14.33546875 9.6015625 15.1553125 10 16 C9.34 16 8.68 16 8 16 C8 15.34 8 14.68 8 14 C7.34 14 6.68 14 6 14 C3.69 9.71 1.38 5.42 -1 1 C-0.67 0.67 -0.34 0.34 0 0 Z " fill="#B8B7B7" transform="translate(753,367)"/>
<path d="M0 0 C0.33 0 0.66 0 1 0 C1.25287193 6.06892629 0.69832609 11.16200408 -1 17 C-1.66 16.67 -2.32 16.34 -3 16 C-2.69262339 13.52009745 -2.37935917 11.04119265 -2.0625 8.5625 C-1.97548828 7.85544922 -1.88847656 7.14839844 -1.79882812 6.41992188 C-1.11328125 1.11328125 -1.11328125 1.11328125 0 0 Z " fill="#B2B1B2" transform="translate(829,293)"/>
<path d="M0 0 C4.85110358 4.41009417 8.348107 9.58004353 12 15 C11.01 15 10.02 15 9 15 C7.29013111 13.09522378 5.80454264 11.25065944 4.3125 9.1875 C3.68891602 8.36668945 3.68891602 8.36668945 3.05273438 7.52929688 C0 3.39381927 0 3.39381927 0 0 Z " fill="#BDBCBB" transform="translate(626,245)"/>
<path d="M0 0 C0.680625 0.70125 1.36125 1.4025 2.0625 2.125 C5.20780513 5.27934337 8.5888386 8.13934304 12 11 C10.68 11.33 9.36 11.66 8 12 C8 11.34 8 10.68 8 10 C7.34 10 6.68 10 6 10 C6 9.34 6 8.68 6 8 C5.34 8 4.68 8 4 8 C4 7.34 4 6.68 4 6 C3.34 6 2.68 6 2 6 C2 5.34 2 4.68 2 4 C1.34 4 0.68 4 0 4 C0 2.68 0 1.36 0 0 Z " fill="#403016" transform="translate(550,516)"/>
<path d="M0 0 C0.66 0 1.32 0 2 0 C2 2.64 2 5.28 2 8 C-0.3125 8.625 -0.3125 8.625 -3 9 C-3.99 8.34 -4.98 7.68 -6 7 C-5.34 6.34 -4.68 5.68 -4 5 C-2.68 5 -1.36 5 0 5 C0 3.35 0 1.7 0 0 Z " fill="#B8B8B9" transform="translate(356,294)"/>
<path d="M0 0 C4.31730413 0.47409648 6.33647461 3.03396703 9.25 6.0625 C10.14203125 6.98160156 11.0340625 7.90070313 11.953125 8.84765625 C12.62859375 9.55792969 13.3040625 10.26820313 14 11 C13.67 11.99 13.34 12.98 13 14 C11.14453125 11.70507812 11.14453125 11.70507812 9.2890625 9.41015625 C8.0333609 7.86733563 8.0333609 7.86733563 6 7 C6 6.34 6 5.68 6 5 C5.38125 4.731875 4.7625 4.46375 4.125 4.1875 C2 3 2 3 0 0 Z " fill="#DFDEDE" transform="translate(612,233)"/>
<path d="M0 0 C0.33 0.99 0.66 1.98 1 3 C-2.63 6.63 -6.26 10.26 -10 14 C-10.33 13.01 -10.66 12.02 -11 11 C-10.29875 10.484375 -9.5975 9.96875 -8.875 9.4375 C-5.50532643 6.58060284 -2.78843396 3.41128003 0 0 Z " fill="#BEBDBD" transform="translate(597,722)"/>
<path d="M0 0 C0.99 0.33 1.98 0.66 3 1 C1.44210317 2.13136586 -0.12153857 3.25482321 -1.6875 4.375 C-2.55761719 5.00148438 -3.42773438 5.62796875 -4.32421875 6.2734375 C-6.83596952 7.89415843 -9.19299187 8.99858088 -12 10 C-12 9.34 -12 8.68 -12 8 C-11.34 8 -10.68 8 -10 8 C-10 7.34 -10 6.68 -10 6 C-8.68 6 -7.36 6 -6 6 C-6 5.34 -6 4.68 -6 4 C-5.34 4 -4.68 4 -4 4 C-4 3.34 -4 2.68 -4 2 C-2.68 2 -1.36 2 0 2 C0 1.34 0 0.68 0 0 Z " fill="#DEB048" transform="translate(694,532)"/>
<path d="M0 0 C4.28115853 4.77513836 7.03759841 10.36156231 10 16 C9.34 16 8.68 16 8 16 C8 15.34 8 14.68 8 14 C7.34 14 6.68 14 6 14 C6 13.34 6 12.68 6 12 C5.34 12 4.68 12 4 12 C4 10.68 4 9.36 4 8 C3.34 8 2.68 8 2 8 C2 6.68 2 5.36 2 4 C1.34 4 0.68 4 0 4 C0 2.68 0 1.36 0 0 Z " fill="#DDAF4C" transform="translate(518,504)"/>
<path d="M0 0 C-1.3697164 3.99500618 -3.25722422 6.80009492 -6 10 C-6 8.68 -6 7.36 -6 6 C-5.34 6 -4.68 6 -4 6 C-4 5.34 -4 4.68 -4 4 C-5.32 3.67 -6.64 3.34 -8 3 C-4.93882432 0.37613513 -4.26826873 0 0 0 Z " fill="#E0B448" transform="translate(722,504)"/>
<path d="M0 0 C2 1 2 1 2.6328125 2.84765625 C2.87644531 3.94400391 2.87644531 3.94400391 3.125 5.0625 C3.29257812 5.79597656 3.46015625 6.52945312 3.6328125 7.28515625 C3.75398438 7.85105469 3.87515625 8.41695313 4 9 C3.34 9 2.68 9 2 9 C2 7.68 2 6.36 2 5 C1.34 5 0.68 5 0 5 C0 4.34 0 3.68 0 3 C-1.32 3 -2.64 3 -4 3 C-4 3.66 -4 4.32 -4 5 C-5.98 5 -7.96 5 -10 5 C-6.76527494 2.84351662 -3.62848922 1.38542316 0 0 Z " fill="#D7AB48" transform="translate(508,481)"/>
<path d="M0 0 C0.66 0 1.32 0 2 0 C4.31 4.95 6.62 9.9 9 15 C8.01 15 7.02 15 6 15 C4.99539469 12.87717331 3.99644398 10.75166979 3 8.625 C2.443125 7.44164062 1.88625 6.25828125 1.3125 5.0390625 C0 2 0 2 0 0 Z " fill="#C1C0C0" transform="translate(638,263)"/>
<path d="M0 0 C0.78503906 0.13277344 1.57007813 0.26554688 2.37890625 0.40234375 C7.91187987 1.33242643 13.44073841 2.24191887 19 3 C19 3.33 19 3.66 19 4 C14.71 4 10.42 4 6 4 C6 3.34 6 2.68 6 2 C4.02 2 2.04 2 0 2 C0 1.34 0 0.68 0 0 Z " fill="#DEB047" transform="translate(560,622)"/>
<path d="M0 0 C1.32 0.33 2.64 0.66 4 1 C4 2.32 4 3.64 4 5 C4.66 5 5.32 5 6 5 C6 5.66 6 6.32 6 7 C6.66 7 7.32 7 8 7 C8 7.66 8 8.32 8 9 C8.66 9 9.32 9 10 9 C9.67 10.32 9.34 11.64 9 13 C7.68227638 11.40012144 6.37098863 9.79494034 5.0625 8.1875 C4.33160156 7.29417969 3.60070312 6.40085937 2.84765625 5.48046875 C1 3 1 3 0 0 Z " fill="#3E2E10" transform="translate(524,513)"/>
<path d="M0 0 C1.39035371 4.17106112 -0.09769194 7.18206859 -1.4375 11.1875 C-1.68048828 11.93708984 -1.92347656 12.68667969 -2.17382812 13.45898438 C-2.77465056 15.30857501 -3.38629678 17.15464327 -4 19 C-4.66 18.01 -5.32 17.02 -6 16 C-5.16041203 13.14951077 -4.2475567 10.5472392 -3.125 7.8125 C-2.68220703 6.68811523 -2.68220703 6.68811523 -2.23046875 5.54101562 C-1.4991602 3.68915364 -0.75114245 1.84390619 0 0 Z " fill="#C9C9C9" transform="translate(348,553)"/>
<path d="M0 0 C4.62 0 9.24 0 14 0 C14 0.66 14 1.32 14 2 C15.65 2 17.3 2 19 2 C19 2.33 19 2.66 19 3 C12.4294834 3.24794402 6.43028541 2.32388229 0 1 C0 0.67 0 0.34 0 0 Z " fill="#573E0F" transform="translate(572,624)"/>
<path d="M0 0 C3.78611227 0.54087318 5.55400767 2.11722332 8 5 C8 5.66 8 6.32 8 7 C8.99 7.33 9.98 7.66 11 8 C10.67 8.99 10.34 9.98 10 11 C8.33035479 9.35718838 6.6643536 7.71067239 5 6.0625 C4.071875 5.14597656 3.14375 4.22945313 2.1875 3.28515625 C0 1 0 1 0 0 Z " fill="#CDCCCC" transform="translate(238,456)"/>
<path d="M0 0 C1.84187025 2.76280538 2.72248277 4.80707826 3.6875 7.9375 C3.95949219 8.79214844 4.23148438 9.64679688 4.51171875 10.52734375 C5.02075548 13.10510574 4.84888744 14.54449337 4 17 C4 16.01 4 15.02 4 14 C3.34 14 2.68 14 2 14 C2 12.02 2 10.04 2 8 C1.34 8 0.68 8 0 8 C0 5.36 0 2.72 0 0 Z " fill="#D8AA44" transform="translate(716,422)"/>
<path d="M0 0 C1.670625 0.2475 1.670625 0.2475 3.375 0.5 C6.72032033 1.0455458 6.72032033 1.0455458 9 1 C8.67 2.32 8.34 3.64 8 5 C5.36 4.67 2.72 4.34 0 4 C0 2.68 0 1.36 0 0 Z " fill="#B3B4B4" transform="translate(653,298)"/>
<path d="M0 0 C0.66 0 1.32 0 2 0 C2 0.66 2 1.32 2 2 C2.66 2 3.32 2 4 2 C4 2.66 4 3.32 4 4 C4.66 4 5.32 4 6 4 C6 4.66 6 5.32 6 6 C6.66 6 7.32 6 8 6 C8 6.66 8 7.32 8 8 C8.66 8 9.32 8 10 8 C9.67 9.32 9.34 10.64 9 12 C7.49707257 10.18992669 5.99772829 8.37687764 4.5 6.5625 C3.6646875 5.55316406 2.829375 4.54382813 1.96875 3.50390625 C0 1 0 1 0 0 Z " fill="#E1AF45" transform="translate(464,506)"/>
<path d="M0 0 C0 3.9654966 -1.52850211 4.96358831 -4 8 C-5.04451438 9.97711651 -6.05698138 11.97250996 -7 14 C-7.66 14 -8.32 14 -9 14 C-8.10870633 8.20659113 -4.16559102 3.8680488 0 0 Z " fill="#A8A5A5" transform="translate(543,221)"/>
<path d="M0 0 C0.66 0.66 1.32 1.32 2 2 C-3.94 5.465 -3.94 5.465 -10 9 C-10 8.01 -10 7.02 -10 6 C-7.8125 4.39453125 -7.8125 4.39453125 -5 2.8125 C-4.071875 2.28269531 -3.14375 1.75289062 -2.1875 1.20703125 C-1.465625 0.80871094 -0.74375 0.41039062 0 0 Z " fill="#B5B5B5" transform="translate(565,750)"/>
<path d="M0 0 C3.59634744 3.49359465 6.83451967 7.11098131 10 11 C8.68 10.67 7.36 10.34 6 10 C6 9.34 6 8.68 6 8 C5.34 8 4.68 8 4 8 C4 7.34 4 6.68 4 6 C3.34 6 2.68 6 2 6 C2 5.34 2 4.68 2 4 C1.34 4 0.68 4 0 4 C0 2.68 0 1.36 0 0 Z " fill="#3C2D15" transform="translate(418,568)"/>
<path d="M0 0 C1.32 0 2.64 0 4 0 C4 0.66 4 1.32 4 2 C4.66 2 5.32 2 6 2 C6 2.66 6 3.32 6 4 C7.32 4 8.64 4 10 4 C10 4.66 10 5.32 10 6 C10.66 6 11.32 6 12 6 C12 6.66 12 7.32 12 8 C7.44328408 6.48109469 3.68276708 4.04597738 0 1 C0 0.67 0 0.34 0 0 Z " fill="#DAA845" transform="translate(568,532)"/>
<path d="M0 0 C0.66 0.66 1.32 1.32 2 2 C0.68 5.96 -0.64 9.92 -2 14 C-2.66 13.67 -3.32 13.34 -4 13 C-3.52343588 11.20763933 -3.04366502 9.41613103 -2.5625 7.625 C-2.29566406 6.62726563 -2.02882813 5.62953125 -1.75390625 4.6015625 C-1 2 -1 2 0 0 Z " fill="#BCBABA" transform="translate(771,488)"/>
<path d="M0 0 C0 0.99 0 1.98 0 3 C-1.43429001 3.67354499 -2.87257057 4.33859701 -4.3125 5 C-5.51326172 5.556875 -5.51326172 5.556875 -6.73828125 6.125 C-9 7 -9 7 -12 7 C-12 6.34 -12 5.68 -12 5 C-8.04 3.35 -4.08 1.7 0 0 Z " fill="#C6C6C6" transform="translate(570,306)"/>
<path d="M0 0 C3.28788824 3.11016455 5.83735988 6.01618925 8 10 C6.68 10 5.36 10 4 10 C4 8.68 4 7.36 4 6 C3.34 6 2.68 6 2 6 C2 5.34 2 4.68 2 4 C1.34 4 0.68 4 0 4 C0 2.68 0 1.36 0 0 Z " fill="#DCAC45" transform="translate(390,608)"/>
<path d="M0 0 C1.37562854 1.28965176 2.70766393 2.62689293 4 4 C4 4.66 4 5.32 4 6 C4.66 6 5.32 6 6 6 C6.66 7.65 7.32 9.3 8 11 C4.52867905 9.59070303 3.11906726 8.09394917 1.25 4.875 C0.60804688 3.78832031 0.60804688 3.78832031 -0.046875 2.6796875 C-0.36140625 2.12539063 -0.6759375 1.57109375 -1 1 C-0.67 0.67 -0.34 0.34 0 0 Z " fill="#B0B0B0" transform="translate(223,436)"/>
<path d="M0 0 C2.97246802 2.54782974 4.41535288 5.45340883 6 9 C6 9.66 6 10.32 6 11 C5.01 11 4.02 11 3 11 C1.68 7.7 0.36 4.4 -1 1 C-0.67 0.67 -0.34 0.34 0 0 Z " fill="#BAB9BA" transform="translate(823,278)"/>
<path d="M0 0 C0.66 0.33 1.32 0.66 2 1 C-0.475 6.94 -0.475 6.94 -3 13 C-3.66 13 -4.32 13 -5 13 C-4.39254603 8.14036821 -2.27241033 4.2594482 0 0 Z " fill="#CFCFD0" transform="translate(365,270)"/>
<path d="M0 0 C1.65 0 3.3 0 5 0 C5 0.66 5 1.32 5 2 C6.98 2 8.96 2 11 2 C11 2.66 11 3.32 11 4 C11.66 4 12.32 4 13 4 C13 4.66 13 5.32 13 6 C3.40546697 3.10933941 3.40546697 3.10933941 0 0 Z " fill="#DBAB45" transform="translate(551,572)"/>
<path d="M0 0 C0.66 0.66 1.32 1.32 2 2 C0.35 5.3 -1.3 8.6 -3 12 C-3.66 11.67 -4.32 11.34 -5 11 C-3.55049545 7.2089881 -1.84827434 3.6125362 0 0 Z " fill="#A6A6A5" transform="translate(764,507)"/>
<path d="M0 0 C3.625 0.375 3.625 0.375 6.0625 2.375 C6.8359375 3.365 6.8359375 3.365 7.625 4.375 C6.635 4.87 6.635 4.87 5.625 5.375 C4.965 4.715 4.305 4.055 3.625 3.375 C1.42249008 2.91493654 1.42249008 2.91493654 -1 2.75 C-2.22589844 2.63785156 -2.22589844 2.63785156 -3.4765625 2.5234375 C-4.10304688 2.47445313 -4.72953125 2.42546875 -5.375 2.375 C-3.375 0.375 -3.375 0.375 0 0 Z " fill="#433110" transform="translate(670.375,485.625)"/>
<path d="M0 0 C0.33 0 0.66 0 1 0 C1 4.62 1 9.24 1 14 C0.34 14 -0.32 14 -1 14 C-1.33 14.66 -1.66 15.32 -2 16 C-1.34 10.72 -0.68 5.44 0 0 Z " fill="#553D0F" transform="translate(737,462)"/>
<path d="M0 0 C2 2 2 2 2.9375 4 C3.96786859 6.32131409 3.96786859 6.32131409 7 8 C6.67 8.66 6.34 9.32 6 10 C4.65826597 9.07456291 3.32679841 8.13422595 2 7.1875 C1.2575 6.66542969 0.515 6.14335937 -0.25 5.60546875 C-0.8275 5.07566406 -1.405 4.54585938 -2 4 C-2 3.01 -2 2.02 -2 1 C-1.34 0.67 -0.68 0.34 0 0 Z " fill="#C2C1C1" transform="translate(718,326)"/>
<path d="M0 0 C3.94139078 1.66751148 6.7892812 4.22710649 10 7 C8.68 7.33 7.36 7.66 6 8 C6 7.34 6 6.68 6 6 C5.34 6 4.68 6 4 6 C4 5.34 4 4.68 4 4 C3.34 4 2.68 4 2 4 C2 3.34 2 2.68 2 2 C1.34 2 0.68 2 0 2 C0 1.34 0 0.68 0 0 Z " fill="#DFAF45" transform="translate(420,640)"/>
<path d="M0 0 C0.66 0 1.32 0 2 0 C2 0.66 2 1.32 2 2 C2.66 2 3.32 2 4 2 C4 2.66 4 3.32 4 4 C4.66 4 5.32 4 6 4 C6 4.66 6 5.32 6 6 C6.66 6 7.32 6 8 6 C8.33 7.32 8.66 8.64 9 10 C7.8944811 9.06409496 6.79064547 8.12620142 5.6875 7.1875 C5.07261719 6.66542969 4.45773437 6.14335938 3.82421875 5.60546875 C2.14575321 4.12827531 0.56117966 2.59960869 -1 1 C-0.67 0.67 -0.34 0.34 0 0 Z " fill="#3F3014" transform="translate(410,628)"/>
<path d="M0 0 C-4.69031112 3.12687408 -7.25698366 4.2610462 -13 4 C-10.96180154 1.96180154 -9.70582202 1.32158941 -7.0625 0.3125 C-6.37285156 0.04050781 -5.68320312 -0.23148438 -4.97265625 -0.51171875 C-3 -1 -3 -1 0 0 Z " fill="#AEADAD" transform="translate(690,582)"/>
<path d="M0 0 C0.66 0.66 1.32 1.32 2 2 C0.02 4.97 -1.96 7.94 -4 11 C-4.99 10.67 -5.98 10.34 -7 10 C-3.535 5.05 -3.535 5.05 0 0 Z " fill="#BFBBBA" transform="translate(756,522)"/>
<path d="M0 0 C0.66 0 1.32 0 2 0 C2 0.66 2 1.32 2 2 C2.66 2 3.32 2 4 2 C4 2.66 4 3.32 4 4 C4.66 4 5.32 4 6 4 C6 4.66 6 5.32 6 6 C6.66 6 7.32 6 8 6 C8 6.66 8 7.32 8 8 C8.66 8 9.32 8 10 8 C9.67 8.66 9.34 9.32 9 10 C4.27236232 7.26847601 2.07357484 5.06873851 0 0 Z " fill="#43300F" transform="translate(662,498)"/>
<path d="M0 0 C0.33 0 0.66 0 1 0 C1 1.98 1 3.96 1 6 C0.34 6 -0.32 6 -1 6 C-1 7.32 -1 8.64 -1 10 C-1.66 10 -2.32 10 -3 10 C-3.33 10.66 -3.66 11.32 -4 12 C-3.45660208 7.43545749 -2.20536179 4.0271824 0 0 Z " fill="#E2AF47" transform="translate(529,390)"/>
<path d="M0 0 C1.32 0.33 2.64 0.66 4 1 C1.03 3.64 -1.94 6.28 -5 9 C-5.33 8.01 -5.66 7.02 -6 6 C-5.34 6 -4.68 6 -4 6 C-4 5.34 -4 4.68 -4 4 C-3.34 4 -2.68 4 -2 4 C-2 3.34 -2 2.68 -2 2 C-1.34 2 -0.68 2 0 2 C0 1.34 0 0.68 0 0 Z " fill="#463311" transform="translate(556,356)"/>
<path d="M0 0 C0.33 0.99 0.66 1.98 1 3 C-1.97 4.32 -4.94 5.64 -8 7 C-8 6.01 -8 5.02 -8 4 C-5.36 2.68 -2.72 1.36 0 0 Z " fill="#A7A6A5" transform="translate(732,318)"/>
<path d="M0 0 C3.63 1.32 7.26 2.64 11 4 C10.34 4.66 9.68 5.32 9 6 C6.03 5.01 3.06 4.02 0 3 C0 2.01 0 1.02 0 0 Z " fill="#B4B3B4" transform="translate(452,253)"/>
<path d="M0 0 C2.64 0 5.28 0 8 0 C8 0.66 8 1.32 8 2 C8.99 2.33 9.98 2.66 11 3 C3.49230769 3.36923077 3.49230769 3.36923077 1 1.5 C0.67 1.005 0.34 0.51 0 0 Z " fill="#443111" transform="translate(462,754)"/>
<path d="M0 0 C5.63281599 -0.2396943 10.54538831 0.61470179 16 2 C16 2.33 16 2.66 16 3 C10.26157749 3.20413361 5.39460953 3.27141454 0 1 C0 0.67 0 0.34 0 0 Z " fill="#472F0B" transform="translate(546,647)"/>
<path d="M0 0 C0.99 0.33 1.98 0.66 3 1 C0.69 3.97 -1.62 6.94 -4 10 C-4 6.58238295 -3.24061454 4.17045938 -2 1 C-1.34 0.67 -0.68 0.34 0 0 Z " fill="#B5B4B4" transform="translate(368,516)"/>
<path d="M0 0 C2.9156164 3.54039134 5.50127818 7.1626772 8 11 C6.68 10.67 5.36 10.34 4 10 C4 9.34 4 8.68 4 8 C3.34 8 2.68 8 2 8 C2 6.68 2 5.36 2 4 C1.34 4 0.68 4 0 4 C0 2.68 0 1.36 0 0 Z " fill="#483513" transform="translate(540,502)"/>
<path d="M0 0 C1.32 0 2.64 0 4 0 C4 0.66 4 1.32 4 2 C5.32 2 6.64 2 8 2 C8 2.66 8 3.32 8 4 C8.66 4.33 9.32 4.66 10 5 C3.47692308 4.50769231 3.47692308 4.50769231 1.0625 1.9375 C0.711875 1.298125 0.36125 0.65875 0 0 Z " fill="#49340F" transform="translate(728,448)"/>
<path d="M0 0 C7.75 -0.125 7.75 -0.125 10 1 C9.67 1.99 9.34 2.98 9 4 C4.545 3.01 4.545 3.01 0 2 C0 1.34 0 0.68 0 0 Z " fill="#A9A9A9" transform="translate(560,281)"/>
<path d="M0 0 C1.34173403 0.92543709 2.67320159 1.86577405 4 2.8125 C5.11375 3.59560547 5.11375 3.59560547 6.25 4.39453125 C6.8275 4.92433594 7.405 5.45414062 8 6 C8 6.99 8 7.98 8 9 C6.65826597 8.07456291 5.32679841 7.13422595 4 6.1875 C3.2575 5.66542969 2.515 5.14335937 1.75 4.60546875 C1.1725 4.07566406 0.595 3.54585938 0 3 C0 2.01 0 1.02 0 0 Z " fill="#A1A0A1" transform="translate(811,265)"/>
<path d="M0 0 C2.97 0 5.94 0 9 0 C9 0.66 9 1.32 9 2 C9.99 2.33 10.98 2.66 12 3 C9.18185434 4.40907283 7.82722796 3.50872691 4.875 2.5625 C3.96492188 2.27503906 3.05484375 1.98757813 2.1171875 1.69140625 C1.41851562 1.46324219 0.71984375 1.23507812 0 1 C0 0.67 0 0.34 0 0 Z " fill="#D5A644" transform="translate(483,708)"/>
<path d="M0 0 C3.98381075 2.16264012 6.88983545 4.71211176 10 8 C8.68 8 7.36 8 6 8 C6 7.34 6 6.68 6 6 C5.34 6 4.68 6 4 6 C4 5.34 4 4.68 4 4 C3.34 4 2.68 4 2 4 C2 3.34 2 2.68 2 2 C1.34 2 0.68 2 0 2 C0 1.34 0 0.68 0 0 Z " fill="#3E2C0F" transform="translate(494,538)"/>
<path d="M0 0 C3.28788824 3.11016455 5.83735988 6.01618925 8 10 C7.34 10 6.68 10 6 10 C6 9.34 6 8.68 6 8 C5.34 8 4.68 8 4 8 C4 7.34 4 6.68 4 6 C3.34 6 2.68 6 2 6 C2 5.34 2 4.68 2 4 C1.34 4 0.68 4 0 4 C0 2.68 0 1.36 0 0 Z " fill="#D9AC4A" transform="translate(432,538)"/>
<path d="M0 0 C2.97 1.65 5.94 3.3 9 5 C8.34 5.66 7.68 6.32 7 7 C4.36 5.35 1.72 3.7 -1 2 C-0.67 1.34 -0.34 0.68 0 0 Z " fill="#BFBFBE" transform="translate(275,485)"/>
<path d="M0 0 C0.33 0 0.66 0 1 0 C1.28571429 7.42857143 1.28571429 7.42857143 -1 11 C-2.25 3.375 -2.25 3.375 0 0 Z " fill="#7D7D7C" transform="translate(777,462)"/>
<path d="M0 0 C1.32 0.33 2.64 0.66 4 1 C1.69 3.97 -0.62 6.94 -3 10 C-3.33 8.68 -3.66 7.36 -4 6 C-3.34 6 -2.68 6 -2 6 C-2 5.34 -2 4.68 -2 4 C-1.34 4 -0.68 4 0 4 C0 2.68 0 1.36 0 0 Z " fill="#3D2D0F" transform="translate(540,370)"/>
<path d="M0 0 C7.48291572 6.15034169 7.48291572 6.15034169 10 10 C6.03209924 8.32127275 3.13068506 5.91722926 0 3 C0 2.01 0 1.02 0 0 Z " fill="#B8B4B7" transform="translate(536,307)"/>
<path d="M0 0 C1.9375 0.8125 1.9375 0.8125 4 2 C4.33 2.99 4.66 3.98 5 5 C2.625 5.625 2.625 5.625 0 6 C-0.66 5.34 -1.32 4.68 -2 4 C-1.34 3.34 -0.68 2.68 0 2 C0 1.34 0 0.68 0 0 Z " fill="#B3B3B4" transform="translate(584,298)"/>
<path d="M0 0 C-0.33 0.99 -0.66 1.98 -1 3 C-3.06640625 3.94921875 -3.06640625 3.94921875 -5.5625 4.6875 C-6.38878906 4.93886719 -7.21507812 5.19023438 -8.06640625 5.44921875 C-8.70449219 5.63097656 -9.34257813 5.81273437 -10 6 C-10 5.34 -10 4.68 -10 4 C-8.71086513 3.32845067 -7.41859796 2.66291141 -6.125 2 C-5.40570312 1.62875 -4.68640625 1.2575 -3.9453125 0.875 C-2 0 -2 0 0 0 Z " fill="#C6C7C6" transform="translate(553,758)"/>
<path d="M0 0 C0.66 0.66 1.32 1.32 2 2 C1.04882866 3.1725131 0.08882991 4.33787015 -0.875 5.5 C-1.40867187 6.1496875 -1.94234375 6.799375 -2.4921875 7.46875 C-2.98976563 7.9740625 -3.48734375 8.479375 -4 9 C-4.66 9 -5.32 9 -6 9 C-4.47291037 5.56404834 -2.40072955 2.88087546 0 0 Z " fill="#B8B7B7" transform="translate(606,711)"/>
<path d="M0 0 C0.66 0 1.32 0 2 0 C1.67 3.3 1.34 6.6 1 10 C0.34 10 -0.32 10 -1 10 C-1.02689216 8.52093108 -1.04634621 7.04172517 -1.0625 5.5625 C-1.07410156 4.73878906 -1.08570313 3.91507813 -1.09765625 3.06640625 C-1 1 -1 1 0 0 Z " fill="#A5A5A5" transform="translate(642,614)"/>
<path d="M0 0 C0.33 0.66 0.66 1.32 1 2 C1.66 2 2.32 2 3 2 C3 2.66 3 3.32 3 4 C3.66 4 4.32 4 5 4 C4.67 5.32 4.34 6.64 4 8 C2.02 5.69 0.04 3.38 -2 1 C-1.34 0.67 -0.68 0.34 0 0 Z " fill="#3B2D12" transform="translate(445,550)"/>
<path d="M0 0 C5.75 1.875 5.75 1.875 8 3 C7.67 3.99 7.34 4.98 7 6 C4.36 4.68 1.72 3.36 -1 2 C-0.67 1.34 -0.34 0.68 0 0 Z " fill="#A3A3A3" transform="translate(290,494)"/>
<path d="M0 0 C1.85776765 3.13498292 2.20140476 5.37471432 2 9 C1.01 9.495 1.01 9.495 0 10 C-0.19412181 8.52168779 -0.38012131 7.04230684 -0.5625 5.5625 C-0.66691406 4.73878906 -0.77132812 3.91507812 -0.87890625 3.06640625 C-0.91886719 2.38449219 -0.95882812 1.70257813 -1 1 C-0.67 0.67 -0.34 0.34 0 0 Z " fill="#8B8A8A" transform="translate(776,425)"/>
<path d="M0 0 C0.66 0.33 1.32 0.66 2 1 C0.02 3.97 -1.96 6.94 -4 10 C-4.66 9.67 -5.32 9.34 -6 9 C-4.02 6.03 -2.04 3.06 0 0 Z " fill="#C2C2C2" transform="translate(207,327)"/>
<path d="M0 0 C0.99 0.33 1.98 0.66 3 1 C1.71283353 2.00578589 0.42011342 3.00446798 -0.875 4 C-1.95394531 4.8353125 -1.95394531 4.8353125 -3.0546875 5.6875 C-5 7 -5 7 -7 7 C-7 6.34 -7 5.68 -7 5 C-5.57421875 3.67578125 -5.57421875 3.67578125 -3.6875 2.3125 C-3.07261719 1.85488281 -2.45773437 1.39726563 -1.82421875 0.92578125 C-1.22222656 0.62027344 -0.62023437 0.31476562 0 0 Z " fill="#B7B7B7" transform="translate(493,797)"/>
<path d="M0 0 C0.99 0.33 1.98 0.66 3 1 C-0.96 4.465 -0.96 4.465 -5 8 C-5.66 7.34 -6.32 6.68 -7 6 C-5.90716423 4.96704564 -4.80029421 3.94892165 -3.6875 2.9375 C-3.07261719 2.36902344 -2.45773437 1.80054688 -1.82421875 1.21484375 C-0.92123047 0.61349609 -0.92123047 0.61349609 0 0 Z " fill="#ACACAC" transform="translate(583,736)"/>
<path d="M0 0 C1.32 0 2.64 0 4 0 C4 0.66 4 1.32 4 2 C5.32 2 6.64 2 8 2 C8 2.66 8 3.32 8 4 C8.66 4 9.32 4 10 4 C10 4.66 10 5.32 10 6 C6.00499382 4.6302836 3.19990508 2.74277578 0 0 Z " fill="#DFAE47" transform="translate(432,684)"/>
<path d="M0 0 C0.33 0 0.66 0 1 0 C1 2.97 1 5.94 1 9 C0.34 9 -0.32 9 -1 9 C-1.33 9.99 -1.66 10.98 -2 12 C-3.40907283 9.18185434 -2.50872691 7.82722796 -1.5625 4.875 C-1.27503906 3.96492187 -0.98757813 3.05484375 -0.69140625 2.1171875 C-0.46324219 1.41851563 -0.23507812 0.71984375 0 0 Z " fill="#584117" transform="translate(599,637)"/>
<path d="M0 0 C0.66 0 1.32 0 2 0 C1.67 2.97 1.34 5.94 1 9 C0.01 9.33 -0.98 9.66 -2 10 C-1.34 6.7 -0.68 3.4 0 0 Z " fill="#CBCBC9" transform="translate(341,573)"/>
<path d="M0 0 C3.94139078 1.66751148 6.7892812 4.22710649 10 7 C9.01 7.33 8.02 7.66 7 8 C5.17578125 6.85546875 5.17578125 6.85546875 3.3125 5.1875 C2.37857422 4.37345703 2.37857422 4.37345703 1.42578125 3.54296875 C0 2 0 2 0 0 Z " fill="#B5B5B4" transform="translate(526,299)"/>
<path d="M0 0 C0.66 0 1.32 0 2 0 C2.99 2.97 3.98 5.94 5 9 C4.01 8.67 3.02 8.34 2 8 C0.5522078 5.10441559 0 3.25811062 0 0 Z " fill="#B0AFAF" transform="translate(646,280)"/>
<path d="M0 0 C4.455 2.97 4.455 2.97 9 6 C8.01 6.33 7.02 6.66 6 7 C2.8125 5.25 2.8125 5.25 0 3 C0 2.01 0 1.02 0 0 Z " fill="#A5A5A5" transform="translate(605,226)"/>
<path d="M0 0 C0 0.66 0 1.32 0 2 C-6.75 6 -6.75 6 -9 6 C-9 5.34 -9 4.68 -9 4 C-2.25 0 -2.25 0 0 0 Z " fill="#A5A5A4" transform="translate(711,570)"/>
<path d="M0 0 C0.66 0.33 1.32 0.66 2 1 C-3.14285714 6.57142857 -3.14285714 6.57142857 -7 7 C-4.66666667 4.66666667 -2.33333333 2.33333333 0 0 Z " fill="#BFBFC0" transform="translate(684,274)"/>
<path d="M0 0 C0.99 0.66 1.98 1.32 3 2 C-1.95 3.485 -1.95 3.485 -7 5 C-7 4.34 -7 3.68 -7 3 C-3.6875 1.375 -3.6875 1.375 0 0 Z " fill="#C1C1C1" transform="translate(556,214)"/>
<path d="M0 0 C0 0.66 0 1.32 0 2 C-0.66 2 -1.32 2 -2 2 C-2 2.66 -2 3.32 -2 4 C-2.66 4 -3.32 4 -4 4 C-4 4.66 -4 5.32 -4 6 C-5.32 5.67 -6.64 5.34 -8 5 C-2.25 0 -2.25 0 0 0 Z " fill="#3A2C12" transform="translate(562,706)"/>
<path d="M0 0 C2.31 0 4.62 0 7 0 C7 0.66 7 1.32 7 2 C7.66 2 8.32 2 9 2 C9 2.66 9 3.32 9 4 C6.03 3.01 3.06 2.02 0 1 C0 0.67 0 0.34 0 0 Z " fill="#DCA943" transform="translate(467,702)"/>
<path d="M0 0 C1.85776765 3.13498292 2.20140476 5.37471432 2 9 C1.01 9.495 1.01 9.495 0 10 C-1.125 2.25 -1.125 2.25 0 0 Z " fill="#C3C2C2" transform="translate(338,641)"/>
<path d="M0 0 C2.97 0 5.94 0 9 0 C9 0.66 9 1.32 9 2 C9.66 2.33 10.32 2.66 11 3 C6.72213252 2.50639991 3.90432869 1.95216435 0 0 Z " fill="#CDA349" transform="translate(603,550)"/>
<path d="M0 0 C2.40072955 2.88087546 4.47291037 5.56404834 6 9 C5.34 9 4.68 9 4 9 C4 8.34 4 7.68 4 7 C3.34 7 2.68 7 2 7 C2 6.34 2 5.68 2 5 C1.34 5 0.68 5 0 5 C0 3.35 0 1.7 0 0 Z " fill="#DBAD48" transform="translate(620,455)"/>
<path d="M0 0 C0.99 0 1.98 0 3 0 C4.79682816 3.80504787 5.07349791 4.70600835 4 9 C2.68 6.03 1.36 3.06 0 0 Z " fill="#C0C0C0" transform="translate(761,384)"/>
<path d="M0 0 C0 0.66 0 1.32 0 2 C-0.66 2 -1.32 2 -2 2 C-2 2.66 -2 3.32 -2 4 C-2.66 4 -3.32 4 -4 4 C-4 4.66 -4 5.32 -4 6 C-5.32 5.67 -6.64 5.34 -8 5 C-2.25 0 -2.25 0 0 0 Z " fill="#DDAF47" transform="translate(562,356)"/>
<path d="M0 0 C1.32 0 2.64 0 4 0 C4 0.66 4 1.32 4 2 C4.66 2 5.32 2 6 2 C6 2.66 6 3.32 6 4 C6.66 4 7.32 4 8 4 C7.67 4.66 7.34 5.32 7 6 C5.83054208 5.19152271 4.66449539 4.37810888 3.5 3.5625 C2.8503125 3.11003906 2.200625 2.65757812 1.53125 2.19140625 C1.0259375 1.79824219 0.520625 1.40507813 0 1 C0 0.67 0 0.34 0 0 Z " fill="#DDAC49" transform="translate(418,674)"/>
<path d="M0 0 C1.98 1.65 3.96 3.3 6 5 C4.68 5.33 3.36 5.66 2 6 C2 5.34 2 4.68 2 4 C1.34 4 0.68 4 0 4 C0 2.68 0 1.36 0 0 Z " fill="#CEA241" transform="translate(402,622)"/>
<path d="M0 0 C1.98 1.65 3.96 3.3 6 5 C4.68 5.33 3.36 5.66 2 6 C2 5.34 2 4.68 2 4 C1.34 4 0.68 4 0 4 C0 2.68 0 1.36 0 0 Z " fill="#D8A741" transform="translate(544,538)"/>
<path d="M0 0 C1.98 1.65 3.96 3.3 6 5 C4.68 5.33 3.36 5.66 2 6 C2 5.34 2 4.68 2 4 C1.34 4 0.68 4 0 4 C0 2.68 0 1.36 0 0 Z " fill="#D2A241" transform="translate(538,532)"/>
<path d="M0 0 C1.99097846 2.98646769 2.94124926 5.59687262 4 9 C3.34 9 2.68 9 2 9 C2 8.34 2 7.68 2 7 C1.34 7 0.68 7 0 7 C0 4.69 0 2.38 0 0 Z " fill="#E0AF46" transform="translate(512,491)"/>
<path d="M0 0 C3.37503669 1.1858237 5.64722731 2.27573689 8 5 C7.01 5.33 6.02 5.66 5 6 C2.3125 4.1875 2.3125 4.1875 0 2 C0 1.34 0 0.68 0 0 Z " fill="#AFAFB0" transform="translate(261,476)"/>
<path d="M0 0 C1.98 1.65 3.96 3.3 6 5 C5.67 5.99 5.34 6.98 5 8 C0 2.25 0 2.25 0 0 Z " fill="#ABAAA9" transform="translate(232,448)"/>
<path d="M0 0 C2.6855594 2.6855594 3.06049974 5.37621328 4 9 C3.34 9 2.68 9 2 9 C2 8.34 2 7.68 2 7 C1.34 7 0.68 7 0 7 C0 4.69 0 2.38 0 0 Z " fill="#DCAD48" transform="translate(616,445)"/>
<path d="M0 0 C3.37503669 1.1858237 5.64722731 2.27573689 8 5 C7.01 5.495 7.01 5.495 6 6 C3.96166576 4.7260411 1.96147874 3.38938077 0 2 C0 1.34 0 0.68 0 0 Z " fill="#B8B7B7" transform="translate(544,274)"/>
<path d="M0 0 C3.96 1.98 3.96 1.98 8 4 C7.34 4.66 6.68 5.32 6 6 C4.02 5.01 2.04 4.02 0 3 C0 2.01 0 1.02 0 0 Z " fill="#AFAEAF" transform="translate(801,259)"/>
</svg>
